<mxfile host="app.diagrams.net" agent="Mozilla/5.0 (Macintosh; Intel Mac OS X 10_15_7) AppleWebKit/537.36 (KHTML, like Gecko) Chrome/132.0.0.0 Safari/537.36" version="26.0.6">
  <diagram name="Page-1" id="5f0bae14-7c28-e335-631c-24af17079c00">
    <mxGraphModel dx="1195" dy="887" grid="1" gridSize="10" guides="1" tooltips="1" connect="1" arrows="1" fold="1" page="1" pageScale="1" pageWidth="1100" pageHeight="850" background="none" math="0" shadow="0">
      <root>
        <mxCell id="0" />
        <mxCell id="1" parent="0" />
        <mxCell id="39150e848f15840c-1" value="JetRacer&lt;div&gt;&lt;br&gt;&lt;/div&gt;" style="verticalAlign=top;align=left;spacingTop=8;spacingLeft=2;spacingRight=12;shape=cube;size=10;direction=south;fontStyle=4;html=1;rounded=0;shadow=0;comic=0;labelBackgroundColor=none;strokeWidth=1;fontFamily=Verdana;fontSize=12" parent="1" vertex="1">
          <mxGeometry x="120" y="70" width="330" height="220" as="geometry" />
        </mxCell>
        <mxCell id="39150e848f15840c-2" value="Raspberry&lt;div&gt;&lt;br&gt;&lt;/div&gt;" style="verticalAlign=top;align=left;spacingTop=8;spacingLeft=2;spacingRight=12;shape=cube;size=10;direction=south;fontStyle=4;html=1;rounded=0;shadow=0;comic=0;labelBackgroundColor=none;strokeWidth=1;fontFamily=Verdana;fontSize=12" parent="1" vertex="1">
          <mxGeometry x="530" y="70" width="330" height="220" as="geometry" />
        </mxCell>
        <mxCell id="39150e848f15840c-4" value="Car Controlller" style="html=1;rounded=0;shadow=0;comic=0;labelBackgroundColor=none;strokeWidth=1;fontFamily=Verdana;fontSize=12;align=center;" parent="1" vertex="1">
          <mxGeometry x="140" y="210" width="100" height="40" as="geometry" />
        </mxCell>
        <mxCell id="39150e848f15840c-8" value="Instrument Cluster" style="html=1;rounded=0;shadow=0;comic=0;labelBackgroundColor=none;strokeWidth=1;fontFamily=Verdana;fontSize=12;align=center;" parent="1" vertex="1">
          <mxGeometry x="710" y="140" width="130" height="50" as="geometry" />
        </mxCell>
        <mxCell id="PNhUklN0JLp1l5unrN9_-1" value="" style="shape=image;verticalLabelPosition=bottom;labelBackgroundColor=default;verticalAlign=top;aspect=fixed;imageAspect=0;image=data:image/webp,UklGRtxSAABXRUJQVlA4WAoAAAAQAAAA8wEAHgIAQUxQSNE0AAAB/yckSPD/eGtEpO5Bjf//1Urzu/fCpbsRxQAVuxtbpzOms2vGZq2sGUu7pk43Z3dh9+zu6eypiKICgiDdF7jxe6Dc3/+c8z/3HJ5F9H8CQPGWqwJl8JEjyuL679aXwX37qmIZ3HzjZ2Vwm3FJ2ZvjKbzqXubmex9TapW5VXmLpsFlbs2zEFeUufUuQbziVtb2HSIm1yxrW4aIxoFlbHYHEBGXlLF53vrglFPZWuibD2IrlK01zfwgv33ZWh/jB/hd2dpU/OgmTZnauo/d8ixLcz7zsaRqZWmBzz5m6FKWVjf1YzihLK1ncSnrytKmYKkXXcvQNpT2KrTszOVCaTmRZWflY0uzDCs7a55VGs4uOxtmtmKntsxsIVp51b2sTH/EmlcVysoC/rcmq1lZWf00a0z9y8r6G63BaWVlc9HqVWVk+sPWHdWXjQU+te62V9lY00zr4kLLxoabrctsUja2HK0v7lkm5nKegOPlSKPoNHbOnn7BoeG1G7ds36Xn5wOGDv9y7DffTZj8ww9Tp1k7vfQZzZm0njGdPI06I5JS/S1lKaXG9Bminy7uH3+eMbadp/LSOPqUrxnZc/jEOSt3HDl348Hz+HepGdl5hUUlJgsKfKoSk+Uo/JeUvkbKLg2hpxG5bk44NrWVr1ZBad3LN+w5bsG2U/+9Ss0pQgmeqABM1wuX3oiyEKnnXQgtsjhWHLN5UBUH4KJP/fJuWptHH9R44G87rsZmFKGET1QAppoo4e76EBxPkp4GEKq+41Xx07V9KmiBkwFRGbFXd/w6sFGQ3lZxq9lv3tGnmSaU+olQYGt/RLhNGkLF16S4CoSgaC6ZX2/tW04D3AzYgx81ZTw9Oq9fTXdbw6Fq/2WX3xmRhydCgbHzWeHGAbGLgZTekOBxnUPvj3wVpgOOBuxGq43vrq4YUNXRZnBrMulovBE5eTIUWHvcECyzKeUnJBd1J+iP8abo7m8NHIGrAbuRbkw4PrWJmw3g1HDahQzk56lQYO77QLC7vgT7gzTLQAJs5cu7XX38gbP+u5FxxqXp9R3lLXTU8VTk6YVKwD4oRrANGkLwcxp+T1nCEeODX+rYA2/9d6OA749+FSpbDs2XPzchV29HgIChCUJZRgGxXT6DJZTp3Mg9PTwI+Ou/G4U1P1/SzEGO3D/bl46cfd4YhKyeLFRafco0ZLiJ8iUn3m3q5Aqi1zgHhlZt/dnAL0aNn/TzUAcm/rtR+PT9PdzkxmvQ2ULkbUo3ELRBulA3PQn2h1hEaQi9jTx4vaS+DsSscavQuP/Xy3effxKfnFNsQkRM7AYs/XejKAtOD/KSE8+hl4uRu4XjQNhWOUItB2L5lyzOOBPa5UnO8uTXaiBenV/Nz3/ceeV1pgmtT+4FLP13o1iLLw/2kAvXfueLkcMrHATqXChQSV9KFwOLB76EhukSM9+bUAHE6lTxk6m7H7wvQYbZQ4Gl/24UcdG5vq5yYN/hSCHy+Kw/CNyrRKC4MMpMZBkbTKj6TlLme98GgTj1oZ/OPvWmEBkbJmtY+EehuAuPdLDnXq11mcjluCYg9BAU+LgjwekUk4RQQrlYCZnvfRsEovRsNvnwKwOytyxzAIb+USj6zHW1+OY75RXyuWgMCD5WqBlADE9gklaf4PtAMpaH3waBCDVB3ZfdykJhj3gDQ/8olOKrKb780na6aEZOb3diYEeZIlBOa0o/I5P8jgT3q1KJmRECwmvK9V7zxIBCP6wGDP2jUJrmi520nApakI68jo4AesPBlFkC3fWl/IlMS3oRHE9II2FBOAjv1211dDEKn9ENGPpHoWTTFwRxqcN15HbRl0CvfnceZYlAK4Ho9S8bywCCdp8U0lbWAcFdIhfdK0Qxmn/VMPCPQilf68Afjxnvkd/7XGjBp3ES5W9hSvpRmmWxwWEE2CS+gv2ROhBYGzb+bDaK9Lgn0P2jUNrvZ3hwpvoBE/I7qTGQXbcgjqBsFuZ1ZcokZDyJskJspmv9nEFg107rXltQrIlNgO61HaVuOlCdJ5puj5Dns4Gs+dmEOIigiRJmv56gP8RqAWWOyKIn+IHAFcacy0PxmqYA3XWVRXKIj7ppuOE4MQ15fi+E1isL0TyAYHdIEMt4IFZ+w2o1Zaqo0v8IA2F19RZGm1HM57xojouMyMO0iY6c8FlRhDwvHgnkav8joqkvwfGEICl1KH1LWG2hjBNRyT/tdCCoc4fNySjurM5A1k4vQj4WrfDhQqWDFuT6aQ+S8w5ERGNvgssFQU47U1Yi652UYeJ5MtodBPXoczwXxb5aRxuUjby0HKzEgdqXke953YE8uviD4h4E9yuCTAei331m+3SEviaRpC+rDIL6fnHRgKKPqwXkpm+Qo5drS67FA+T8PidSjZf4oaErweO6EJnNKe3zmZ1yInQvEoX5fEcdCOk/9lYJSnAWkIMuIlcftJBY22jkfFYHoDpswY8WdCJ43hTiqjtlDjK/7kHomC+G+Kk+IKTfmNsmlOLzSiS7P5Cz0W0l1ekl8j7KgfR5/sdy2xK8bgsxE4juV9nd8yW0zBbOsKcBCOk7+l8TSvNnIPfJ5Q2+7CShDq+Q99kdgOp/Az+eE0nwuStAditKkwx2TwMIDdMFezrcGQR0H3LdhBJ9UZkUeg/5+6qDZFrHIPf3OZKmWEprRfC9L8B1T8pUZP8ymFDrvUAFG6uCgE6fnSlGyS4Aqm4Z8jgmUiKNnyL387oAteoLLDWb4vdIgDlAdDolwJsQQrV3wjwe7ADs7dodLEDpJtcjtU3nEj5tLIlq/yL//3GhaH5HK1qKJjuSUidFgPjyhEpvhchfFwYC1lmbgVLebkdxPYqc/reaBMqdQf4X9QdqvUQBHrK74kH5FgVMCCWUjxPg0QA9sK8wKx4lbegJ1AEGXuGZcqJz34YyeMObov0b2fneZ/czEB2PCZFcnRD8gplhcxiwdx/1CCV+24fidQn5vc1dZHZzTTJg+Q6oDZOtyWlF8LnLLL0JpXayEGn1CAFPWb0c5QjMde1PlKDUZwN1cDHHTHPsxDUyH2XwRWWKdiVam9eW4H2H2VkXyncoZGYTgt9DNsb9dYB9tb8zUfJZLSju55Dn+SNF1TIe5XAZUOskWVXQkeD1L7NJQHQ6IUhOJMHnLpPEiW7A3OPrGOTgFXdKt3yuYXxLEZW/hnKY3oy0GK0u7ELwvMUqqRal3ntB8tsTvG6zuNgSmGvbnjQiD+cC0W47cv5qiGgc1qAsHnakhMVaV9SN4HGd1T49ZTIKWvgJwfMmLXdpIDAPXZKOXMzvSKmZyDtc4yCWEYWyUDIEqNPQ+uKeBNeLjIxfANH5jDBF3QjuV0nPBtgBa4cBD5CT0cGUScj9whEiqfsSZfFxMMX/LsHYm+B0mlFMKKVxujDFPQhulwjG/TWBeY0tBcjLPTqCyxn+4cu6onDdj/K4CKhDSgjmfgT9MUZrNJRfUdiSXgSX89alTXcH1q5jXyA/pwCxfqoM4H5XMYwrloeslhSn40i0DCToDrDJ7wJEr5sCGT8nOJ+16n5XDbCut78E+WnoQvka5bB4nAhqxaI8nnGhtMqi4CCCJorNdS9Kp3yBTH0oZ6wwRoUBa9dv3iBP31Yh6HbKAsbWEsxhC8qj5Tug/oHkEQTYwmY6UFeguJxOl5Y23Q1Y1z9Ygly940UIeCwPuMVBqN55MvE2glLhOW0CZQ2Td3Uo5Z4K1pdyqpQHn2qAscvXccjZPVpCk0yZyOstUMB1lMnd9pSRJtqvlD+Y7NFTBpaIzPHkR8x7w4F1jahi5O1fQBxslgm8HiDMZLNMGIcB0fEY0n+nzGFR3B+I9rtRaHM/yokPcmZ7AGP9sOfI3wmU39BaU0H6u7iY+9dOHzmwd9e2zes3bNmxe//h4xf+/T82ISWryCwt82RBwp+jTL6sRGmUxmA1ZSqLewGUmkmCmSgOH8QO1AHj0LUFyF/LIMo2REthSvSlfatnf923faMaFQO83Z0d7O10GgAArc5e7+ji6RscVqfZJ4MnzF9/8HJ0coFZEvg8XADNYpTLLTrKr8hwC2U8i5lAnYLC9SU4nkC82BgYa7r+hzw2fk6w+3XbzBEdawW62oFI9W4BNdsP/WnNsYfJBrHhYg27eolyUTIAiF43WeykDGWQUp/icU18p01rg4Gx128ZyOWi7gSNXgPSdPCt2eXbv/55km4S0du6zLQrUS5fhFI65rPYryN8bqTt0VM+yRdBH4LTth+cgHGD42bkc2EXgtQd/RsMXHD0WZZZHPinllXjFNnYoqP8gSzPORO6FJKKPgeidh2Kzq6yDtjaD3+FvDZ05cpHHYKaDV9xJckogncNGWlXoVwaBwMx4BGTO96E1jmkWz6UsNciMPYmMA/8swC5XdyTPx91q9Fv8dn4YoFwlY5NvSTZeF2F0t3A5FkgoUE6aQpQv7GIoOQzUTS/hBw39+PUh85hvZdcS7UIkVSPiWYZyuZee8rfyPR1OUJYEuVNVYrbBRRhcQ8ROIxNQK5/xbEP3euP2f60gBkuYlL1tWxYxgAx8DGbtxUJwS8pq7SUDrliKOomXNBqA/J9KecAQBfUef71TEYvw1hMQ9lMrk3pZmCT1oDge4+Q1QaI2nUoxsIugjW9hLw/YMe9Dz2aTz+dYmGA0xkE3JWPM86U5cg2vyPB7TLhiBOlerwo8jsKZDf8DXL/WZAsAIBznfFH3tH+86MNKJaPn4Hoe4+RsTdBf8y6on5AnYqizG0jjM+SfOR/fke5AACH2t+fTCUU9SHp96Js5rahtMtjZBlI0Oy07qYPxee2OLKaC1LzGMriUhkBAOeG0y5kWYO77Sn1UuTjvh9lNrIeS4CVVlm+B2rfInGkNxLi0/9RHmMqyQoAuLVc9LC4tOR6lJ9QPtdoCK6XmM2jzLbqeUWKw0EU5/ta7JwmpqFczman1XuXD6vWoOPng4d/OWbs2HHjxo4ZPWpY/x6RNatWDnaz00oFAAL77Xz7MfyJ4H5FPkxDgFg/jdlayrdWzQVq8wyRJFZhFri2GGXzfSeS1qNi7R5fTl29/+Sdl0nvM/OLTRa00mw05KalvH129fjePyeO7FG7opdOAgD2NSZdyvvgqod1rbLlI7E65WtkvoMywGzF21qkP1Ck8eVZ1T2LcvqsTWlaz7COoxfuvx6XZkCRGtLj/j2y8tu+dcs5iAwA3D/ZmICY09q6OSifp50JdnvZHdMTOhdYsUpLCXslsW7PUF4Tf6nlbu9bree0XTcT81GSJekxp9d91yXcQyMmAF3EtH9L5lvlflVGZgGxwkt2d7wJjTNKS28B1Gko1jchTBy+TUXZTb5+8l5yEUq9MOnGlu87VHQUDwD49pvoZE2jdPko7ELpUcTuRTAhLLG0XXpKwD3RvAxm4bPCgLZ8/pvTC/tFuIkGQKex5nuUz5jylMXIPqEiITC6lJxOQB1pFM2zQAZhh9H2NyZfWda/mrNIrNYfkJH99gS3KwJkNCZ43ijlkBPF7TyK9oEvrcUdVIjGxLOzOgdrxVX+hYz8AMQ67wUo6k5w+Odj+T2A2r1APLe8KJp+r1FJFkRvG1nDSUSdC+Qjtw1lhEUAywACbPnYSVeKw14U70VXguPkTFSa5nenpjV1F8vPKJ9PgyjrUchvKQs+YugH1MhMER3TW+e1oggVaeaV2ZEeYtAflpHddgSfe4Iso3z7kXMeFN0GFPFujVUV9lpQseZcn9XSXbDgaBmZDMSmWYJspfQzIWLRAKA2TBHTDrC23mVUttmXp9d3FKZVjnzktaWMR0GP6wltcxHxvAdFswLFvNWajk9Q+b4/PqayVoCvUD6flyNotwpz35dQMwWxaCBQayaIal1pmmGJqIjNr9Z382a2QkYO2hP8HgrzOoRQ7iXieQ/SQhT1slL0k7JRMRf++2NtOyZOp2TkJyA2yxImtQ7B8xYa+gO16mtx/fYxt4UGVNTvdvX2YRAULR+GrpSxKKyhK0F/DE+6kWaiuL/+iP9mEyptw60fqmkpDdPlI64yQbNJIMsgAqwv+gyolWNENuSDKkdRkcetaeNkXe8S+TjrTPD+TyCcTpl1zIX0C4rbMgAA6l1HpZ59bICvNZNRPpcCsV6aUGsofboAtUqMyIy9ASIfo4Ivvj0htLS/5cM0hDLELNReLcHNgfQbirzwE+j+CpW9JXpOLc0H+mPykVafshyFvuFJoIe9FFtWyyHJqPzfrmysBfD+Tz7u+xJcLgj2Mlig2Sj2tNUZqAqmrGwJFePkY5eOUDlesJSawlR9JTqzCdXCDGiUIR/TgPipQTBDV2Hmo4oLXQ2yYfiUMh2FHyZIzXhVZwTK5ttwgi5KBLOF0K5AVWe6fFxzJ/g+FMEWIRonqzvL5WM9EOunieCUEzv7TajqanbKx3eUgWYRPA1g1y5T3XE6IRsFHSmLUISJYcycDqC6631DNuIrE/RHxJDfgdlnBSpPuaeycdmNEBQtBssgVh7nUOUNj5eN9UBsmikG/I3VqBK1p1GKbEygDLWIYiujcvdR7e2QKReFXSi/oyjPu7D5BVXfXvlykVyDoD8ijhdBTGrFqT9flMjFY39C4DNxpNZhYbca1d9vzHJxwpHQIF0cxT1ZtMtQgX60yMVqIPY2igPHMXA9iirwQpTLyZTvUaR/MRhWpAatkouS3pTVYjloRwq5h2rwVrnIaETQHxXLQz/SbFSFD8jFyxCC//9iSapKaZykDp2Si8tuhKpJYjF0ITjtRnX4klxs1xA+KRQLfkUYWKgS3ZSLmUAcgaJdbl3wHVSJ75MsVx5zyTKM8rt4DtlbNQvV4ickPFfvxxgO5bYhaKPE89jPmqbvVKMXtOIhEDb7FXfehhE8b4knOcIK14OoGr+h4XVfgOoL4zhzx5tQ4Y14irpb8VWxepTIwDgWAKDWskSuHLQntMwWD35TWng0qsfvGeDdYAAATb2VyRxZCsT+ZhGtLsV+DarI6Swskz4A0DZel8qN8ZQfUcQnHT/WM1dNymaBT0I/AmDXfEsGHwxdKZvFFBP0kaCbqCbnMcGfSwGwb70zmwfvaxOcz4opo9EHmrmoKheyeVm1NACHjvtypfckgBAUIyZT/w/apapLRWxwgTUAjl2P5EvttBOhTqqYcCYA+JxHdbmEUXxtqwCce54olNY6IPYsEVWUFuBni8pkYoQrtNYBuPU9WySlqZTxKOr/vKFVCqrMZlbvGlEAPAZdLpGMsS9lpbiSwj3PoNpsYYXr7UgA3sNvGCWS2ZRgf0hcRd2mmlWztFYMAHxH3zZJ4lUFgt9DcVmi3qJ6vkPPAiDgm/tmCVxzJ1RJFBeaUEXP7sgGIHjSY/Ht0hI6FohMXT/ozAigwvRosc0F4jBLGUZ+D2YAlX99KSrLCMp8LMs86cYOIHzuaxHltSNodpZpGAYIARCxOEE0SVUJHtfLNPCSlyCgqb00QST3fAjlX5dtlIwQBkBTa0m8KI7oCc2yyjbwlr9AAJpaC16IYAUQ+5rKOExfCwYAVaY/NAn1LWUqlnU+KCcCgHJjLxUIUtSdsqHMw/KDKAA8uu96L0BqXYLTqTIPfFZJHAD6RvMflbCKDiIERpd94G9iAYCgwQffsznnTKiZUgYSW108AA4Nf7qex2AjELsXlYHgIo2IAMCzwx8PCyk/UsZgWejbuuICgIBPl98vsMY0gLKiTARXasUGAP6d511OKyW7BUG3v2wkpYkEAMCtwTe7nuYhYlxFgs+9shHcZE+q3dlRBABgF9Ru+oEXZz0IlRLKSDJak0KvHersKIYP9SFVdYR2eWUkGOVAga8x90A3F3EwHGwpK8n5hOR7DTH/RB8PSczGMtMjLhQYYEBEw+WvgiSwveykoBfJ+SB+aHr4Y3WtyNyulJ3gGXcKtEr9ABHj17R1FlW52DKUosEk7R+lIGafHFVeRI0yylDwqi8Fwp6VhmiKXtraVSyfG7lhNqlgxnEkGFNiBSJmn/8+wl4Uk5Cbj0+rYPiwPMntmHWI+HbPsIpa4dbxY0PXPBUMfyVBq/cURNPLLYMq6YRxOM4Ny1cOJ9SwuDokzVwaIhpjd46q4ShAwFNupNaDQSUqGK6zo0DgdRaIaE46OaONv4ZR9XfcuOgKgY/UsMxOJOiSyebD3IcbRzf01jDoauDGzwCwQA3D054k7RJ2iGjJuLPh6xbBesKXyMvMZgDQPEMNM44nQbmbQnw059nx+cMahjhqSlnKjbMuAOB8Wg3D6HASdE4X6kNT1vNzqyf3bVjZXW+3hxvfwYdTVDFcaUfSzLKI4OMlWW9untwax4s34R9plK6KZXcjgc9p0XB2rfYjrpdUMbwWQIIm8XKU0x4+PlMds8zUkOArgwz941zKJ4WqGKa0pjmslp/iQVBq+ZfqGJ71IUG5a7Jzw6c0+0MqmflnGrRMkBnTGLByhkqGKW1oMKJAXu4GWtO9SCXDSwE0+8UWOTF/A9ZWS1LLcLGOBN6H5eRuoFVed1Sz7F40CP9PPkxjwWrNDtUMH1alQWS8bFz3tQ5mqWe4y5UGg7JlongIEIda1DPjFAbaacXycNKN0sWgnuH7zjRwWGqWg5wuQK2erKLhvXAaeOyUg616UvBLNQ33eNAg+BT/EhsA2fe+qmaaqaNBlWvcmw10p9OqGmYPZgC173PufggDTZS6hm9aMoDmz7lWNAxYblbZ8FZlBtDuFc8OODNZo7bhfm8G0CmOX++aAtM/VTfLCkcG0DWBW7OA7WLZMBflZ6cmxsfFJb7PzDcYFRwW/aBlAN3ecupmIKPZMmBIunts2c8jO7VoXDciPCwsok6jFm0GTl2w998EgzLDrCEs4NN4LuX2BMZzOJf7eNe0LhGeDsDS3i2887T9MQYFhkldWcAnb3i0xp7VYp69PzWjtb8OhLUP6bH8QZHiwphmLKDDC/48CQPWK7iVd2lKPScQp3+vrUlKC/+ryQJaPeKNYSgwX8WppA0d3EHEdnXmxigsvFyFBdS/xZltjuw2cSnh9zo6EHuVX2OVFZ4oxwKqneNKTASw38Wh9JW1QJLVV6QrKtzvzwLKH+CIYQSwdzzJHeOJNjqQqLbdWbOSwp2+LMB3tZEb2xwF8LnLm8SJHiBh759SlRRu9WYBzrPyORFdHQQMfsGZSy1A4h1vKynLBk8WYDfmPRcKhoKQEclcKVkfDJKvtNuknNCywZsFQLfnPFirF6SrgScFM52Bg+6LipQTWrb4MIEGl6T3rBIIOtTCkdwJdsBF/Q85ygkt2/2YQMg2o9Te9RVmLvIz/3sdcFI7Pks5Ie4JZgKuv2RLDJO7CaHbw4/in3QgrNbB1a9ClbCqVSsF+7jqtYKAdmyOgsJjFZmAtt9LieHT6gL4PuTH347AXh/cYugvG07cePjiTXzC29fP7t88sfGXgQ18NMxAO6lQQeH5akwAGlyVGK63Z1cnlRtn/YG1T5ufDz/LMSHdmH533eBKWkZgN9ukoPBWQzbwq9TSm7Prb+JFQhNg69Ri8Z0cFNAYu/4TVzbgukVJ4ZP2bDZIDZewW4KcNE0Apu79j2Wg4Hmn+7sxgeBLSgrjPmehPyq5O16s3K7w4qwXC32PUwYUpeGfDjoW0CxeSWHaeHua3yPJpdRiVfs9J/K6AcOwtXko2owl5VjA6CIlhQVzXUkVEyRX1I3VSDMnDjgy6P4IRX29DQunHYoKTRuDKJE5kjP1ZWQXhXws6A5k+69TUeSJo+xoEBGjqBBnU/qaJGfszSgsjhOX3Um6yfko+ryfHGnwtVFZ/UyZgJLPiWQ00syJyUAem4sSLJrnRPM4pagsQyirpBdbno3+APIxpTapXTJKsnimngRdcpRUXjuCbp/0DurZNErlxFlnSuA1lGjhdxqSfoeSSo4geN+RnGkEsF2InJwD1GkWqWD6ZyRoma6gngQQQl5L7k4Am/LPOFHSi1L5OUr3aU2S/TYFdc6Z0ChDaoWDge13Zk4kR1DGWySEUc4UaJOlnLZqCL1KpPannk3wfeTkkwCC8wmUctGXJMcjymkOEMegxHf5AtuJFl6cdiJUT5QUPo+gQP9ixfQlZZnYzITCP32BbYXHyMudQOxeJC1cqaP43VVKhV0Iml0iK16wPNUK053BDsBWsxC5uYkyDiX+vhkFZiul1LoE9ysi2+ykbTz/RkpBUVFu7MERAcC6TRo/1lB+lBpusac0TldIMcGE4JfiuhoCAOBeq0W3T5qG2gNzv3PIz1WUXyWXEUlxPqOQrrgRaqWIKq45iNJ+GXJ0A2Wa5HClhgA/KKQ9WsKnRWLKGwLi/LKAJ1spE6T3KpzSMF0Z/Q7EL1DE5jk6cfROQZ7uoIyUHk6kuF9VRl9T5opprweIsstb5OpeLaFnsfQuuxNgkSIq7knZKqLblUGMmn4JyNer7oSW2dLLbEbpUaSEMhoTnM6IJ6E1iNHh+wzkbEwQoUq89HAGpXKcEnoTSgh4Jpr84SDGiusNyNu3lQkeNzhwzpXgdFoJ/etFCE8Si3munQgcP7+L/M2JJGi3cuB9XQL8roQO2RM65ItltwcIrmsWlY8cNg8hwNccMA+jDDYroL+AONAikhsVQWinthvfI58XU5pmSg9XUBpnKKDJlB9RnC+bgLB24V8ezUZeH7YneF7nwGU3QlCM8jH1o6wXh3l5hJcDMzvfpt9ExZmR38+CCPArBxKrEZxOK5/sVgT9EXFYCpLv/bN0+rDI+lV8XZwdHfT29g6Ozq4hdZoPnbXnfhbyPa8dpVGq9AxdCLBB+bwNI/g9FEeppoKMuEe3Lp86fmjv3uPnrtx6nppnQhn8haLfKT0cR5mmfO77EkLjRSXXp50I0DlXessoAy2K54QjoWW2DZRci+K4S3qH7AmfFCqe9UDsa7KBcDIFmiVL7o43oUaK4vmJ8j3awpfdKZrfLFJ7FUIIeaN0LEMpf9tEeR0o4HtWaskRhICnSie/PUG3zybCdToKNH0jsewWBI/rSic5guB12zZKaUSCITnSKupG0B9VOk8CCCGvbSP8W0vSzTJJyjKYALuUznkXQsN0G+ldAxK475QUfknZrnS2aQifldhIuM2BBBVvSmo8ZZPSmQvE0Wgr5/ehQcs4KU2krFc6X1GW2kx4K5AGQ3MlNJ2yRuEYuhA0O20nXKSj6WabpPMr5W+Fk1aX4HbZhsrpSwP3XdxYpXBelCMEv7Ch8HlNGlS6KZmfKWsUzlV3Qs0UW+p1WwbQMk4qMyjrFc4eHeFTg+1kOdkQmA7NlchUykaFswSIw9BmzprrA2y1s0zSmEzZrHC+ocyxmR711AJjp2kGaXxH2apsSj6jbLGRSnaGA+sqW4tQml9RdiibzCYEp9O20bsJLsBY2+0+SnUoJUrZvAklBDy1ia62BtZeMzNQquZ+BPvDyuZfL0JYog2UvyIIWNc/ZkbJFvckuJxXNoftCR3ybZ8XQ+yBsf6LWJRwQUeC5y1lsxKIA822jvlIHWBd7u8ClHJWc4LfI2UzhTIdbdz0XzyBdbtrKO33tQnBLxWNqT9lvY1zt6sGGLtOTkaJv61EKB+vaHJaEeyP2DRFmyoB6+pRRpR6TBAhIlnRJIYRfB/YMgnjHIGx7vP/Ufp3vAmROYrmgS8hNN6GOd8MWPsuyEYOnnEidC9WNCcdCS2ybZbcxf7AuslpC/Jwt5bQ36xoNgCxj8lWedZPB4wdR8chH/8C4nhUtD9TvkPb1LgvAliHrjcgJ3+h/K5oLMMoK22T91PdgLGm823k5kjKZkWT34Gg3WuT3OwArD1+TEVuGroQ7A4qmpQaBK9/bZDC1SHAuvZBE/IzrT7B619F8zSQEPLK9ng9Sg+M7QZFI09flSeUi1U0510IDdJtDcuJhsA6cFkecvWGB6FemqLZriH0LLExsub4AOuWl5Czu3WEnsWKZh4Qv0Lb8lFPLTB2/jYReTsPiF+ioh1NWWJTlOwIA9ZhW4uRt5bhlN8VjaErQbPDlkj63hkYa3vcR/7mtiFodyuatHoEt0s2xJVIYO09KxM5/KYSwfs/RfOyHCHohc2QvyIIWNc/bkYeX3QlVHmraK65E2ok2wovBtsDY/3wWOTzaiB2LlQ0e3WErgbbwHy4DrAO+bsAOT2eMhoV7VIgDrXYBOk/ewDrdjeQ13ltKCuVzbeU2WgL/tdFA4zdpiQjt6PLEVzOK5qSXpTNNkDRporAuvpuI/L7gD2hYpyiyWxKcDwlf/HjHIGxrs//yPMZQOxcqGjiKhICnsreuWbA2m9hNvK8oBNlEira216EKokyl7vID1g3OWtBrkeXI2h3Kpsj9oT2efL2tK8OGDuOiUPO79AR/B8rm7+BOMAsZ8a9EcC64gYDct4yBoiROcrmB8o0lPH3P7gBY80nd5D77+tSJqKiNQ2grJOxm+2BtcdPacj/864E3R5lkxNJsD8sW4WrQoB17UMmlMEZQCz3XNkkhhN878vVq5F6YGw/6DnKYUYTSjeDsnnoRwiNkyfLiQbAOvCPPJTFC66UJahsTzkSmmfJUtZsb2Dd6hLK5HQget5SOBuB2MckRw97aoGx83eJKJPJdSnNsxTOr5RvUX5LtocB67BtxSiX+/WUGahsLV9Q/pKfpO+dgbG2xwOUTeMQILpdUjj5HQnaPbJzuRWw9p6difL5JITSIkvhpNQkeN6SmfzlgcC6wT9mlNH5QJ2NCvdZIKHcK3mJGWwPjB1GxKKcpjSgeN1UOhdcCPXT5MR8uDawDllVgLK6w57SOV/p7NAQehbLSPpPHsC6/Q2U1/xPgahZg0p3PhC/RPn87xMNMHabkoIye9KVUuWV4hlD+V02ijZWBNYRe4wos4Z+QP3aonQMn1J2yEX8WEdgrOv7BGX3ggfF7Twq3bT6BNeLMnG2KbD2W5SDsls8FKhd8hVPbAghKEYWchb5AeumZy0ovxe8KHY7UPFe9yBEJMvBkz46YOw4Nh5luLAPUBulKp99OkKXQv4Z91QH1hU3GFCOj7iQlqLyXQbEoRbupUxxA8aaLndQlrM7A7XqKwX0HWUW8v5GO2Dt+VMayvNGPWkWKt+S3pTNnCtcFQKsax8yoTy/qQPUsJcKKLMpwfEk316N0ANj+8HPUaYtM4D8GyrguIqEgCc8s/zTAFgHLc9Dub4ZSKoSo4TueBOqvOVY5ixvYB15GWU75zMgz0UlfFRPaJfHr4c9tMDY5bsklO+/7Ul1EhTRKiD2N/OqeHsVYB2+vRjl+3EVoOpWoyKeSpmKnE76zhkYa3s+QBkvGALkyHRFZB5IWcupy62AtffsTJTztQ4k5/2oiHNbE+wOcSn/j0Bg3eAfM8r53YpAHmxQRonhBN/7PHo+yA4YO4x8hbKe2QPIIfdQGUcHEkLe8Md0qBawLr+6AGXdMk9Hm4sK+U0FymvupP3kAazb30SZP+4D5ObJSim1DsH3AW/udNYAY7cfUlDmo+sA2f0YKuW8dgSHf/hStCEUWEfsNaLMZ/cF+gSjYjL1J8AWrsSPcQTGdn2foNybZuloDeJROU+kzOHJ2SbA2n9RDsr+Tncgux5ABb2UMowfOQv9gHWzcxaU/WuhQP++REnt0RE6F/Liyec6YOw0Nh7lP7YJ0FsmopK+7kEIS+SDcU91YF1pYxHKf3ofoPtfQEX9ugLB5y4XUqa4AmNNl//QBiz4RkPTLUJlndWMoN3NgxvtgLXnz+loAxrn2AO9X47CMg0gwC/SK/i7HLCuc9iEtuB6V6DXiUGlPYvSq0RqscP1wNh+SAzahAf9gO57EhX3XjtC9SSJPWkMrIOW56NNeKY80O2XovK+50NwuyKtvL7AOvIy2obXw4HhqAIFllqPACuk9bcdI5fvk9A2vF8HGLZPQgVuGkzpb5TS40rANnxHMdqGT5oCw+oPUJEvpYQnSKjoC2Cq/ewh2ojPWgBD/xOozC+4EByOSeiQCxOfOVloIz6PBIZOq1GhJ9UgwATppEUCy4YnLGgjvmgLDO1+NSo10xBKvVTJrNIxcBj5Cm3FmHbAckweKvZVFOeTUkmsC/TyqwvRVnwaCSx7p6Fyv+9HgPEWiSzT0DrcRJvxUTNg2TYOFXxeB0p4nDSS6gDV+Yf3aDPebQQsG/yPin4uRbtOGqu1pO9L0Ga8XgdYRtxGZX/DiwDtc6WQ2QqoES/RZjwdDiwrX0GFn9eB4vyPFI44UuxWo824vzywLH8aFf9SCvQxiM84BKjtM20F82Y/YBl8BJX/42CK+znxPQ2mOO5BG7FoqQewDDqAKmDJUAp8Xii65UDtlG0j5Ex3BJaB+1AVPOJIcT4stvxOFIc9aBumjNQBy4A9qA5mtKRA6zSR3fOlNE2zDV72AKaBe1AtXK2laH8X2XKgLkGb8HZzYFruIKqGb2tRoPwdURX3olSItgmOhgPT0H9QRVxIgu5ZYnpdkTLEaAOUrPYDplXOopoYV5OknW0W0VE9wW4nyn/Oj87ANOIyqotLNBTwPCiiX4EY9kb+4ofogGnD26gyJjUiQfgd0RR1pwwwyt7tSGDb9gmqjtscSND8pVgSwyl/osyb94cB2x5vUH3M7UGDTnEiuelB8LwlcwWLvYCpZmgyqpHXAmjQLU4c2zWEuqnyljRaD0z1E7NQlbTM0tCg4wtRzARiX6Os3WkHbF0XGlClTGnLAJreEoFlEGUmyrhpdxVgG7DRhKrllSAGUHmPSbCCTgS7vTKWM8sD2IYdRzXzD3sG4DYjVah31QgeN+Tr5QAdsG36L6qa+SNZgKbtBbMwscGEkFjZOt0AGPeORZUzoTULAN8psYLc9yXUS5Op/GX+wFb/XTqqnneqMQGIWJYowGknQscCeXozwh7Yei4xoAp6KpgNaOouiWW2W0P43ChLF5sC40r7LKgoLbzCXT5sACBswqVcNtuBOBxlOH9FEDBueQuVpcXELctmb1YA7m3m3chksIkyQYZefaEHtrrBcagwzSXcQstGH2YA4Nn42533043WraPMkB3LqYbA2PW3HFQcBn6hJSpYAADQ+tYbMGPH6f+T0vONFkRcQ/lNbnIW+gLj0O0mVJzGfI4h/hMuyEe1DoHhtTr2HzFm3DeRlJky86SvHTBueQMVaHE21/BOpGBCzpIV454IYGw/PAGVqCGdbxj3hb0tlDzZDRh7L85HRVqQzDnMXx5o+1xtC6xrHLOgMs1N4B3i5Q5a2yZvRTAw1nz2BJVqZiz/MG1esC3zdIA9MHb7ORMVa2q0DCDeGexiqxTvqg6sq+41oXJNfiQLaDjcycEmSfjGBRhruj1EJZtwVx4Qs6PaO9kcltNNgbXbj+moaGNvyQVi9pG+PrZF2kwfYF19rwmVbfRV+UA03JpRR2873OisAcba3k9Q6T66JCeI+O7AmOoONkHu8nLA2ntuNireO+dlBtH89ui0SH87uXvc1w5Y1z9hQeV77YzsfJjzePfUT6p52slW8baqwFo//BUq4fP7ZOlDQ+Lt3YvGd2tWLdDT1dFOy2Amx+LHOwPr8qsLUREfWytbHy/OSoy5c/H4nm2b169Zbf2q/7hlOd0UmHf6FxVy1EKZk+Gseb7A2uPHVFTKG36yKKtHvXTAut4REyrmPyYoqpKdVYG146hXqKBnjzMrqJTJrsC68kYDKmjLlJFG5XSrPbDW9XqAito0ukeeUiraUAFYByzORmVtGNAiVSG9+9YJWLe9gko759NaScrodntg7TnjPSrutFZh8UqoZHslYN3gmBmVd1Kt8tEKKG2qKzB2GvMGlXhsqOcV5fPwUw0wrrKlCBX5/QCHI0rHfKAaMNZ+9gAV+kV3TZTCyV/oBYx952ehUj9kDyuVTcIIe2Dc+IwFFfsGgCmK5t/WwNjhqzhU8PMAhisY0+7KwLj8WgMq+e8APitRLHmzPYBx25uo6E39ABqkK5XEEXbA1un7ZFT2eW0BKr1VKA87AOPQzcWo8FNqAPg+UCanagLjtrdQ8UcHAuiPKZGSdYHA1vGbd6j8L7kCwCYFkvOTM7Att7YYVcBdWgCYqjySvtAC26aXURWcBwAwyKw0orsAW7uhb1AdHPVB00yFcb0RsPWcn4fqYH6HDyq8URaHqwDb8P1mVAkTq37gckFJGNf6Adt2d1E1vO31AWxSEIZ5LsDUblQSqodRuo98rxxypuiBqfuCfFQRf4GPdi5QCqmjtMC0YpQZVcSS3h+rFKcQ4vsA28bXUVVMrvkx53PK4FlHYNvrBaqLNz0/BssUwb2mwFT/fTqqjGs1pfQ3KoBbdYGp++8GVBnNI6HU6km23+UIYBqyw4xqY1r90lzO23xnwoBpzfOoPt7yLA3m23pHQ4Fp6weoQv4JVnYusO0OBAPTPnGoQhb3tibwf5tufxCw1I1ORzXyZag1mg223P4gYOn4Ux6qklF21kDfEtvtQBCwdFtWjKqkaQRYXe6ZzXYgCFj6bjSjOvm6inWa1bbawSBgGbIP1crtdtbBp4W22YkQYBl2GtXK4v5A9L5pk12oBCwjrqJq+SCQAtNtsRvVgGW926hezgNyzUTb624dYNn4AaqXqY1puo0215PGwLLF/6hi7tbToF2OjfWmLbBsE40qZkEPYOh83LZ63xtYto1BNfOiBwvoY7Clcr8Elm1jUM0sGQ5M3c/bUEXTdSzaxqCqedOXDQwutplMvzsAw8jnqGqaxgBjz4s203Z3YNjsKaqbt/xZQX+DjXQhBBg2fITqZskoYO520jZ6UhcY1rqLKucVb3bwaa4t9O4TYBh+HVXOwv4goH6HDZQ3ChhWOIdq5yEXIaBJss1jnmfHwO8gqp0Z7UBQzXybZ78n0N02oer5p04YCLln49wLB7rjUrPq8SwchB5ssGmSOwJdO70Y1c6SMSC44zZbxjAeGA7PQdXzoJtwEBFjw6xyYNA1GVXP+IYgxlFFNsu1ckBvEI2qp3ECiNJxk63yrg3QQ6+i+rnXTRxQ+b5tUjIB6O67UP2MrgFi7ZZhk+xwodnNN6sfuQNAtJrpRhvkUTjQR+aj6mmeZycecN1he+T1A3rkW1Q/D3mBmEOv2xx/29Mq/Yvq573qIO7GL2yMuxWB7LID1c+EtiD2Xmk2RU4voE81qh/ZQ0D8o/NsiRV2tK5pqHoaJmsloJteZDs8qgTkyvdQ9TTO14MUHReU2AqGYUB22oyqp3mlK0jTeZnJRtjjTBtfrHpY1nmAVF3/MtkECQ2B3Cge1U7LZi+QruuyEhvAMgPInv+g2mle5wVSdl5QJH+3AmkzzGqHcaUHSNtxWp7cGQYDuUUyqpyF81xA6trRaTJ3xJXkeRJVzuxJeuDgZy9kLaMdkCebVI6EIVrgYuPrcrbajlQvHtXNe22Al6HbjbKVWA+ojrtQ1TQfqgb8dJ2WLlfLNKSBhapGzlwv4Knm03vyFF8LqMH/oZr5rL8OOFtpo0GOFgH5V1QxS/bUAP46jnwuP68jSHXiVYy4712ByxFbC+VmEVDt1qNqWXygAfDacdBdeUmqS2qXqVo8He0KHA+Z+05ONukoTvtRpUxfEQZ81zTeliMb+V2B2iNfnSg82EYH3Nd3PWGQieteFNcTqEaWXOrrDLLo2vd8sSz8AtRehSqE8eYIb5BNj4FnDfzLaEpx+QdVx5Lro/1AVt16H83m3RV3Suc8taHg/DAfkF2ntuvf8m0eEO22obr4flc3d5BlbY2p1wv4ZfiUUitJTSi+P6eRHuTbq8vfT4s5FVuRMglVQ9OrrX0DQO6DP1/3uIBHJxwJzqdVgqIXO7+orANbUBPQae65RCNvFgOxTooKYE69ubxXBTuwIZ2r9l1yNq6AI+ZhlOEWhVf87saa4fU8wQZ1rtTp2w3nX2eauZATSVmDit2S9/bWrp8+q+EBtqxL+cYDp2w8dv9terG0EioT3K8pMFNu8rOLO+eObBfuqQXbWO9TqX7P4ZP+jDp8JTo+MTXXaLZYRHbPh1ApXhlZTIactMSX9y4cXD/3m75tIgJdtWCLa/SeIWG1mncfMe77Hxeu3nvm/MWrt/57FB0bn5yenV9kNJnZnXEmROYoDIvZbCw2FORmpr6Lj41+dOfauaNR6/+YNfmrAV1b1goNcLcHzgMAVlA4IOQdAAAQnwCdASr0AR8CPpFIoEulv6MhorGpa/ASCWNu9ThREJ80b+m8Ux0Z/Q9YbuNPGP6044FYwtV/MvxI/LnyAOQA/in82/FH8ndv32c7LEP0X8Uf5XdQ0efl/7Z+63lJxv5q+8flD/e/3U6zbm37X+uv717wfJ3snz6fJ/1r/vf4L/Lfut89f9f6mv6p/tf+D7gP6m/rd/p/i9/zvUx5g/2r/dP3gf+d+3Xug/x3qB/3f/bf//12vYs/ej2A/5T/xvTl9kn+6f9P94PbJ/+3sAf/j1AP/v1e/UH/A/hV8cbmhfjcL7O/3/L+BkcllVZ+0+gB6R3d01Av5J05fQA/TkUJEmNwa8e1V480Ie1V49qrx7VXj2qvHtVgYwJ4v0tePaq8e1V49qX2ctzK3thP7IvS6lSLXxpsjXYf76Gp2qsre6LnWjJKpNYZSYnZvljd/1MeCtUrZ5I1joK4ZpPq+oZFnEXQ+GrAhDwoBVW1lDPariIuyEaUFB0yIVlO0xzEM6JWnZk9xneRCcp5LNxJPEjlPlkbhp+XqTYCLq11eZybxOSlGJwnaoMtHoda6IDWlVJp9t0TsogAs1S/n6ghZye5037FV2Z/1cMi1pV1VbpymYpF+sp2ZPboG0K5yp4VmpFCwRx8nIH0dsI8A4wP+icktqwYdn1VLIraGASgVY81mrrUBBaWYkSYOf+GoxaKMD4713ADbVnXMilrqOMvdZaSxkf39GvQFrV+owlTO+w3M+q0P+qouDlP5escCZy7L/MaRTPnY/fOx++5S95/ZXpSIXHo7om7awATjInY/fOx++dj961DhbXvrOlIbBr5GqY+vB/987H752P3zsfvu2+RSnZoFKEcZMj2EpnBkw+DJh8GTD/b5B9oZpykbfrnjmhG+Y1jOD8rpLnsrEKGJ987H752P3zsegfJY8Aj3t0Z09GCWxHE5987H752P3zsfqwb/oKttO8oeWzL3MfWSdUK+Y7U1MFV1jZ3DLJX+oe1V49qdIA4ZMzyXoyAYHQiL1MJlWfINhU6XbczgD987Hvp1XTJACpSiPUzfgiuYft2cnQJX2ntMwR7VXj2rPG+zhoXCwr868Sl0AbXFI5B2H5+nyf9n2yywjXj2rPG/pOyj0I12GmvYq3tnlDPdA2xPvn/Ze7OS+158KK/LEaMFHTk9Z2l78J7wiu7hnwZN3jf6wrLa7H722vw5bSJkfAXGbB3GGhvd4m4pnBkxbdtXxlL31UYdDgZAdIdeRG/CVXHr5Gaqdj987db68xuKEFkiXoZZhVIIupKSGngyPsdwwPE7H752630Po8ETeJAx1fUqllPrJ9IWh5jQqTODJh8Y19P+mgYrJIHTiDDgApbnG1Xz5/WHuhfx2SVLx7VXj4P8cCY4NUkzU7SajGL5MfFJeDAoD2tdiSyd4vD2qvHtViu/pSYg6Bw7Bgde+XRO2sVHTQaO1nYSMoAhI1KiBbYZ8GTD4MmLcMsKiIOXHAbC8aT63WVyrKA/T4149qrx7Y8x1I/GiYvkC5EA6ICWSYHhnwZMPgyYc0L3jfsv0xecpQP/sREryxTODJh8GGkprQzSWcH9V+jrIsGjmfBkw+DJh8GvJKJCYXvxaSsuVUusF2Paq8e1V49mij3tcQrbakeXR0b0rTln2zQPVXGJnY/fOx++diW2bp2qzBo1PhhzZCoC0kBYQjXj2qvHla1W2T36AAA/hSgAChvCSJM7ESxh7Ja54hA8eV2h1wur97rFdrEAAAAADs5IBBNtwnjpe5EbDhQM2M8AAAB9m+6EQpWXOOndJPQ2lCG42uMblIeCEw9yaSsXLpu34tIc/vII8ZGBRY88yPyuGdvf4nZyOip9/tnn8k21/MrZO45s6DCq+xEiP0yE+aH/+q5dY8+3lEuLxonfaaGX+hI2TZZvEF+JQAGkCJNtBx+qC8B1oK/jGdR66Uu3LLAVrFvCtjgbmlGQF+Wuse0KfDBHy/zVe9tjRpA5iXIRB2hukVsCQ24m4cqX//gkCwY7a5SpKyyi7LuaQXi+nFBwStV8HTQdHbz0CCD9YV6Oc1tYEs71jYIOkdQP+c9EsKHV9nKE1upL5CBwpJMHQeXk42/V2Azq3+H+jEeFcmFkaJFvqFa1ju0VeTv/wjlWwhCH8lcIfTcZerAtVltKUcRubg6uyNdEcHNtdnggR7IOS51HQj//tpgRCGDu47JvY0Y8097luyc02SIedhQm3QRhqTX5ThvW9/rclPJKmxffiPZPEJmrlROnOKCXJCV/d9oCUxmEQkcvFU/IofUhSSDKlhmkPQHEBZtALscENVRK8kO3fhTBHEcORbRA63QLmwu13mt7VnYWSJOk3lfEZR0UUESp9iTlVqhuihehltGXbm+Tz//5klxFWa0b7Y3xaFyUBzuS8pmpGqX3R4WSHVJ0NFkttbcjYPTrcXz+hJjWpSHKaQYL7z/UDzSDcvuM2Haiv2jzRVS9GiB/1bTzh1SySwt1qLdCRn0v45lE6g4q03Jc85bqy2IWhuD0Hdm6GjvvjjgucMTeQw3d0vpX4Rt5DhOpkshXIxtYUJaRrgdKdSU/AZpaxy2Gn1FVnsHeG0MXu2To5K6JxGLuup7lfjsjyv/XgoIwVuhZ0wexwP/5Q/0TVTQzderxGKyMGdtOlKFmRllLvgUjPndLP7aGvW8j1M9argaYPPvnzl+8efBCYNDh6voz2fJsopZ0Z283qVh+ZLWuf3A3TH3RtZdO58NEYrOrPKSQ4vz/t1irh4LiytvvqZ2cZ2x8JH6z/vzla1L8rzIqNJnKEUR3zG6cC3uCRdbaKiN1qdKXNt1Fr2CPOTGFPEMOb7r98qih9iSJS3pLIHivrjKXAtScDGgCRmNrI4wyfqCgfz1QPujjthloWUXGbCHZ4qAIflVpDvm1GDcbQkaW25PGUTdRNWeaQ/np2YDhvwYv7bheYhKoyMtrf6dpFUTZCxZudKfyIgepDb2LGNMkx+n/onjmJY9xNnJrhM7adlts7Eg8EnlJ/hRiEcz9F40m1UrDxijxj4IAlj0zrC8n5J45ULYpqSuB/szp4qSgkEj5HOKkn6eQd/TWmN7pTM/MXorvltffNK92koEX7iqXauL+Rvu7dC/53dISlcLKcX6Ux5heQkUk6H/f14wlzkbMBRbxPmvUX+BAcj/6uPL6d1G/07VIiE8bWHTD6GAIIfzr+hUEEnaqToi7pgbbrKMhe38hSQJOtOLYD016sRRRto0CK2o1AjdBdX9DPN+Owop8Ybf6VxNCs533N3RpTqU/h+oRyuYWv7ezjDhSFLr3dSlq6Uhnixpp98BAc4V2d9BUPV2OCchsZd3SLMb3eTaE/7FCvF58PbLlVyafNBnXpgMXy9+vIB8B4Pqvfdl7lJpWbeStCkZLzpdKVC8DIHIj4ZgHU5/ilbzaNYtfesFYfE597MSDBQU1M2YB1/BmTo1gjYk9QrsjieKALCk5qJog6y8YczOdgSahAJKaJzLd86WOe8I/Mq/UPjFfwEUQ78tPMq/Kdn+A7p7aWxfYUWEjLaZOnl5lYfR7K7bYbmBRPlH7AEyzMhaAR7qBPoaz0WCCkEh7HyLG/hH1R51G6Nzclerpblx5zd4zGNP/zs6WPwQHCPnJsvLYQS4dx0vfsw0BOwAtQNaihY9YCE+sxW10KYUpIV58YYn0PREo1VemixqOKl5Mz0twZfLGFk9mUiBubtsV1Mopp4Qx1kizcSEwWqueDStnmXMEqgG3kne+3hQqbRV9t1nq/FqcRZ+T5O2TqaKn5wV1LjrartZoeAe52KvlnyOjZhbqtoFm9JTTeMYbV//SQ1PriFDJ/ABWEi3RGGu17LbMO5jGk31Gp06mxOn7Z3ZHyHa/cXU4/AfN4IY4wE3E2dgcL8hPKdCC/XePj6RvyYlGLnXY710rHMFPTNAnzOq5FEnueTMIYOc2tP0lgOosFZzAxW7xwKym4i79I2MKrqAf1VavvnOePHxbUyGV6e+Dhjw4Vd8nkdjtU13w8lvk+K/bDJoy+L2Ms9MpByaeWgYcAVQlfHHzPBMq7hPN1Gvat315ZXqd8YmxiBLYMtvmul1+t+QGs5eLDWUbARz3MHzyyAY/oEuSlb0m+/aLA3TddnuvxXmQuERfmHmzQ4JB6ZqKCl801kkWw/AuHZyMpexTYjI1OlCgCK5Fx8QWt8iD6h0U7EIVVWobAIjPkaCcTgTvskXRNv6cE9VPhbiIqcX26R6LsiQY9nQ/6wYP0ui+1PABUNY40tCJdicLoImeAhMH9tNnF1qrpOlNfSK2j8TPcx5zWTBcx3T4qpMNAg2i1OwOeHPkz72tsrWbbH9BC3pwuoKR5+VBiFDD0Iuc4pS7QN4oDOxGpckizvpbofqep1Wsyept64XbZbYpf12ry05hwAAAAA5ODdS7ROkfDG+Cu1XXDeRF9uCDEeBm38EnF4no+NxunMeUoLPS51xhfXXAn8UCY81SL6uPLwnxL5IC6RfRH7OFT2ZpnsZtR+ob/x9k77f/B4agoj23Jnq9ebIx0v/91SdxFlOqZJ3/WfAGRWD2vz765Fq3arxgEeQY90HLJuuF206tslBFtTmqEpnFniB7o0MAlvjtBtlbdeqBxpbFoQaRt5jv3NX/wRjNncq/tkOkRQAjbnX2TgCfpQ8HIqeDsHylH/WURWV2KQJqtwm66YAAAAMVRNM/cgkzxnCCHKNi6MFzS1q9iifki1vW0S7raPvkqYLd39ig5uOIuLHuy3XFxSBoUGWKAqSZwSRXfXJkJ3bO4SUGnteeVy7ftVZIiKkeJUJJVdIf4Iktm/FvXv7Ma0X6M4Y11AAAAKH5IGzKvFtWHQHFlOKfOWtBlZQ1835GOkC+smkXZUEQj1CknLEpBBO1YvtVKckBYLdWrRpy97CE3YEWP4H9ortWs75cOUb/qq+rfdRwAGcZGQB2aUQPGmrUrcGjhJVUddvWqttxvhMBl8xkjRL8n41ecRFv0zUQ+skm9HMwAAAAwGsoSn7Rf//Ru22m6bwLguJ27h/n4NUdoj8qTf6vyPv942K6RQtgT5oZI1nOYS+TGFlfWufZkm/NaiCxGho4AAIkh8/arG07rRdDWYJyRI1PBGOMgu0ClvQ0WDG3JcpDqALBsi/8jYro7BngWDC0J0oBmbBt8ewk8aAH+g5kvTkgNnWMAAAAAI0u7pOW2o/RWYm8Di/V+OLzUQOXQ8bjgmXzuvScGdAH9lwlwelxK1xQMYizD1iW7HvCKOhHQT0W6fEPbDz5T/Je+q3PkF556WDFre5fE0eGc1CxQT28YtJvoP5qOMyp2A8vUzbG4wfvOaCri4ZiQveFlDXAEHM6/1EBs/pS6vrwwpXsPGkY2VaMZSKYOOyqJzbyYNPlwaw/oS3CD6kFWK+2fPzwGX8lAAxpqTt2cnzJ1+V+gYcAAAAV5iOulU9uCsB/aJbYMYiGPSdsXrM4ADqyFXEak1Corrs/jL5qIL3Yd6esGqmcXnss9k5DmCtz+5yF1G1AcZ8SxvOnuepn3x0bwCEDsS5jay4JhTlfQVkEqsjYHapHHkkmRJalZ1ZOSvbBrAAAABxVA5dBMt2873BlnEqgsysu2waJVy2oU+OM6vj04kBLfA3mJ6Vnm6vkl00ZtxyYSTDZy6Ac9jHF+QmqWDcYVgJ/9rNrUJK3D1hssyuq//93gGr6sQy34zl7gB/Lf2crsFgAg3++2YHdLeM+HzgTyeoPM/StZDH7vaOKtZs5ogrfCgmfcX1Ze1CO37RjPhBMbIYKuRuL8Klks2TlNSNPZf+zX7nN1towKcxZ1Qc1ung9rJbfluYeU8v6DDouADbaIjSHqD7bvKdVJDsCKCi5KYvD2CJxSnmz19G7vNmFJceUlXe9F9+cEToJL9RjiSCYyWy6gauQ4x1ThpRZeRYOS+ta1akjBltHKR3LGYlkrTpSlbildoiayzjxwizVHrOjZIe6s6WFTWoycwVGlrkqbAkJgYZJv17Sj+cy5aOSfw198UmlR+1b1WT+4Hxf1dFmy5Yro+SUaJqpuzzy9byuUbJwkTsq/2yo1y4WvNEgvqCf2Qgfc8sUWa9IUk5sGIcnPNBT3UR4SvkRvivrHGs7YxlrInRp3y9g/l0AWSYjEFUojsThjskQby6YwXLlhoUQbbv6f2HJ7oXU8Sc6kdPNSKHSr5qB3/Sjy50aVXO4AH4WqiVZ5tumx2RHcfd0SvSAoG3iEYGeN9Qj03HUACn8T+WiZ3kYyPU6iKzT+wyNUoTk8ZdsEvvytY19r0QKQpYGeRbSdjKRR5HgHLVlSrRZi+dTaLMxR4lb0xpMHVagG5zsLCrndc4Y76JIFQss0tjbiiaj8vnaYeRetwNnuRxnfGBQKgr85+uk5/lB0sBA9cmSm+4nHDj40KJxEH53f2u0CHmamgD12PwdDHu2ibrVbTUvf0b05iobeDUOrLKQmkh8t+yhV5rJfwEzDTQV4QRrsEf+Tm41Y4QHxJMwt2salrABOFmTzEx+9R/UHvw5ytJtXnauxblNCnfq8gR7OjztLcSXSqXnNm19oUdXxtma9+rfqaiwqgDnmT8oGoXhOJDseR/7OE2V4aDsYE5XfrrmCQMhB/6f6PUV9PTAaemMKC12Cqt9usm2ep9wF1JuWSAGzqgmzQQrZgZq83ozi93EGADo1C6ZBOugfx2XqSKtcGTMDrZWj2yQtlbadwuehgoKVVi1aDjCwyBzT83IyupRQUuGn+45vc3726X/Ns1+EObCgFEXi6CXMRDAAc2VegOU6jiMZTLAh2whg39pwIc+zbgJczDADi181zyFWr+pqS1r1Wc2phOE/EAAB6Gs/FojuQaZSkTEXgN+jUOC4NR/gsPoZJm/VFO8w5HSzdHdceh1h+xKAwnzX+CYy4r13f1QPmXSb5kxLMh5h68+TQPAmQZuHEFxb2rbQaFh7pt1KpJLMQFkAF0KvPXbGXPeLv3/Lid42d60xceI0tdn+H8HqWK4mACaPt3DtgIjPlJgAB/f78NA1wTlMOAEIbrzuyPcSfh8a4xSEARqyvnVcM8vhec82VjR9XzqBYIhRVoHDEvYl4bzHOzvY+62oYwBtC2WwQwB/yp+yhs+wh77Y+UyJzlHrbIgwnVDvt6v3YY/Xwusa1emlfv5bIE5r+20/FKXQADaOKwnEx7yJ2GclHJ95KPRf/sL5R+YKR2lDJ2sIhlGZirC8K3Bg5um/ASiACBFRYA2KyXICf42w81dyUPPJkb515ehxRhvB7Muh1cH343HLcEi65dLljPMbWUKFy8ZTAsVYXe7Vy4TNKsQaMz7bBZNFZZioWc2FI0n/9vK5oiOQtynY/cTiLESRwf3SeHNtW6aMrtvIWzE9ZjkKu5ddB3jYadqjCOlmT7BBn1cvbr6A3mcS3yh/6bIKMBABgAFBVx63IMZ/ZGYSNFQNBcbaXcIB9faJrwFwHK7tOPol97xE/k9BFGDAW32Su4lTCT2oQE1bVe2m8prK2kSsSZW1m3zNzbtugjLhMinZG+Z9TE/y0XbsJUtIdJEqjLx0G6lZo9FX9v+IQVVimiOIjNvuEnpdRJOxTkVQhZSaPgG6q7K0atg05+tyM+TqXwlNNCkC8IfWNpYqry8PXUhb8+aV8FsiES+PA4o2EBl8/h/nLc9x1vaQPYTXDhStdLvGRo+k1bp0QkVxRtte6e5gjNKg7gAGfXZwgo3Q1nzox3XYkrKkLrG35wiOvbpephV5sb6H5qDItSmq0BUrt0RUdg7QFQRlHNJ3ENI5lR3YAiL1joUJkYdZQLxJNSy89bLv5FQR7V8yGB3+LXg1YNdoWXNB3nEv3h+7koO2w2IcFLL/MP/G9Rt5hPpLe8oS81IAmdRyR6cl8+WVgUDLTvPQIiwcs9LxaJ+7UW1NrmXEq9PWj4ILgiBWoNw/0IBoXmr+uEMXpbLZCmccQD9TObdo6sb764AAPZ3HizxrI7leufw1wxGpNQ2aCe5xGRaPkXeBBeEI7mCrFwIYTUihqsPa5lQMU9BWcynk5smCSRXGyJcYds5ChmKUzebnzEeB5ubFNsvUMVmhpPJ88W5cbmJywDds+/ZKBTLYyVG9zdNxkeb6oHm383RIU84SdVv9xkF1o+RgAdLEwlGEp/y71o9QY5GC/jFDR8ZHhyTzGYcygkxFGEhCzzZYdNq0upWjhgAhP0AWTpQgh0E6OlEIe82p8W5yFdzBKM0q/yhY9AAAHRhJEbPlTadunXKBo7pXygiAVl0UXQdYxZ5gdy1LmEv/m6r+O/nf3xfufriioH1lmaw4vKpLrQw3eMqEk3z4TfZyEBothgS59EvuX0VEsvRXs/msEZhQxo6su3j/uMxznSvXF/d12aMKBb64XIEZmLC//SdXJ8x63jdgA/nV2L1H1FJRoqsivvdkryIdTmYaBqzeAuHzZe9lnbvVT9TH7lq82IZabaDbFAHeC2meHPYnQzgQU6MR1Ajhflk4leADIlXrgrMFRLJhN5O9fDcEZjMJT8top4t0utBYefHjRSrGfkA575EGCKB20nyRN8D+MA1psCmTRx/8QxSURAhYVXC6gybbrMQErj7gr4WJwuv531l4L/9sKSk9Kbt54FND+7tzNIqiEqkklcvki7flywzsMHse2UXqelFpDGXSlEp/ID6ZSHA11QLUGJ2q0L4j/A3XgxqyWCkc4oWRpwt9kuzjEPELhUefaO1S3Hg8xnv9coLn+0KQLNBzs4mpfPrUu8UZd1wPgKHoY+p/KKTPgGv39IGgb/AAkU7ukoETzlPtVJWGGB9hUmf4H7SdJMhHSXHXgkTFaVYLWbVyh/epTvuykElognTG5yF4S6/5A2RdWK2uOzOunY8rxE/3Bhi3wn0TXGmutFILuUUU+JJw82XdNnB231OvHmmZ7TOsYBiPB8EnsYZH28YOiSswwhXGvbreQGNH4mHj1ruVnAx2el92AyBcOX+dOeHFR2kftvoKKtU9oYM20/5lJGxGsD4fADOKKE4illugoueLUFM1nlOFRk45q9ko/5oAABXJ1I69XcnBXutTwLDUhmHA0d7txKH/cB5oQ4jl5JwCncxrfvNA9NbkFtUtWRRpxLg7TkozS568XBseB76P/xNS/ViqT70wTzqH+zvVcw4g1ltgqC1aAsciqdRfH1bzlzfHh12Ptc+FSVqLCm3GFRcgAKMxzJJTklV/UYPiXjW499Dpjb+WCPOewUMAAMCT1Zg68KoEJih3pzi2X1ENu1n6nqOiAT/mdGVULXAjPZbRoub674VaZ/FqPGDpp8Q3rMsieThzc3VNIcr6XtJfeWiyTZjGVip9PwxdkL07IiLDJ2mUdUq9lp3sFcB8+arrvuf+49ZhrRSyfs7qy52CpgMaAAAmEcbjjOkqJUCtUD/9r67Ag0h5bchoAz2ftQ62eobU/ADMlCp3HjJqi9c84lpcJ5DhcdLhPIcLhXcwJph2PSKzdUTVwcF0qUfaMjROJ/ZE7JBXGYbRdedrU9IdLAUR7jVIbaAUUvi3yPsXgABNK95BOxJXk1ZVXHzRkL/cO5NV0hSTbTCIkpFfZnUzXQIqaDTyHsrbmZO8AOlr+vq7T0iuvsvgIJP3NU2vW0lMOB5e164FauvQQ0qZLu7iM4iHq91dGVq+DKcZOdLP8KL7K74AOCuAAAB5HsQtZIw8yV+SMwQxx6MR38UTJv4/iRxAeX+iHyztbYj5J4VInFICtNVynnH9htpFsPWVI6vAT5q4P0Yrmui+DG3KYcVSsHaD3GpJDil1gWj6cVqC6dhHwEnECp8XK72OBTY1shb+SdLDNZ63/9JrgAAHqzPDPOe0TgVPuTBXge1Zp0s1mwYHLJj4vIi6HhCEu6cQjvvXEqJ1VZqmCWhg7ebnS2b4HEjiitZRo1cOlMcmjlMfo10tIQZzWrBLxJw0yZE73eY5qhlVDX7tdTs4Prgqd1Wc5CydaBvf1EH2KAIOTTrQAAFWEjf3UXYbULzJUk39HWmIgriXhd9bStLp71MVXiQ36gMouzaXIAAtVxFABH8tMVMUISRmjOxXaCw5NqpfA4c6VwKLDPRYmB44xjhuYy+HhlgZFMq0bJI9vkTaBCYmm3J/dSseaAs7V3FQYoQuAUz3WumULVlF/hQGvfGacpuQvB7TEu1+3JEeC0g7HSSUEUErhM9BF9gMMAAACfp882woVyg9kmVngLY/A7OgOH+k9AqL2D9oDb54kuwdAAAA==;" vertex="1" parent="1">
          <mxGeometry x="240" y="215" width="27.62" height="30" as="geometry" />
        </mxCell>
        <mxCell id="PNhUklN0JLp1l5unrN9_-3" value="Xbox Controller" style="html=1;rounded=0;shadow=0;comic=0;labelBackgroundColor=none;strokeWidth=1;fontFamily=Verdana;fontSize=12;align=center;" vertex="1" parent="1">
          <mxGeometry x="140" y="120" width="100" height="40" as="geometry" />
        </mxCell>
        <mxCell id="PNhUklN0JLp1l5unrN9_-18" style="edgeStyle=orthogonalEdgeStyle;rounded=0;orthogonalLoop=1;jettySize=auto;html=1;endArrow=none;endFill=0;" edge="1" parent="1" source="PNhUklN0JLp1l5unrN9_-4" target="PNhUklN0JLp1l5unrN9_-1">
          <mxGeometry relative="1" as="geometry" />
        </mxCell>
        <mxCell id="PNhUklN0JLp1l5unrN9_-4" value="" style="shape=image;verticalLabelPosition=bottom;labelBackgroundColor=default;verticalAlign=top;aspect=fixed;imageAspect=0;image=data:image/webp,UklGRtxSAABXRUJQVlA4WAoAAAAQAAAA8wEAHgIAQUxQSNE0AAAB/yckSPD/eGtEpO5Bjf//1Urzu/fCpbsRxQAVuxtbpzOms2vGZq2sGUu7pk43Z3dh9+zu6eypiKICgiDdF7jxe6Dc3/+c8z/3HJ5F9H8CQPGWqwJl8JEjyuL679aXwX37qmIZ3HzjZ2Vwm3FJ2ZvjKbzqXubmex9TapW5VXmLpsFlbs2zEFeUufUuQbziVtb2HSIm1yxrW4aIxoFlbHYHEBGXlLF53vrglFPZWuibD2IrlK01zfwgv33ZWh/jB/hd2dpU/OgmTZnauo/d8ixLcz7zsaRqZWmBzz5m6FKWVjf1YzihLK1ncSnrytKmYKkXXcvQNpT2KrTszOVCaTmRZWflY0uzDCs7a55VGs4uOxtmtmKntsxsIVp51b2sTH/EmlcVysoC/rcmq1lZWf00a0z9y8r6G63BaWVlc9HqVWVk+sPWHdWXjQU+te62V9lY00zr4kLLxoabrctsUja2HK0v7lkm5nKegOPlSKPoNHbOnn7BoeG1G7ds36Xn5wOGDv9y7DffTZj8ww9Tp1k7vfQZzZm0njGdPI06I5JS/S1lKaXG9Bminy7uH3+eMbadp/LSOPqUrxnZc/jEOSt3HDl348Hz+HepGdl5hUUlJgsKfKoSk+Uo/JeUvkbKLg2hpxG5bk44NrWVr1ZBad3LN+w5bsG2U/+9Ss0pQgmeqABM1wuX3oiyEKnnXQgtsjhWHLN5UBUH4KJP/fJuWptHH9R44G87rsZmFKGET1QAppoo4e76EBxPkp4GEKq+41Xx07V9KmiBkwFRGbFXd/w6sFGQ3lZxq9lv3tGnmSaU+olQYGt/RLhNGkLF16S4CoSgaC6ZX2/tW04D3AzYgx81ZTw9Oq9fTXdbw6Fq/2WX3xmRhydCgbHzWeHGAbGLgZTekOBxnUPvj3wVpgOOBuxGq43vrq4YUNXRZnBrMulovBE5eTIUWHvcECyzKeUnJBd1J+iP8abo7m8NHIGrAbuRbkw4PrWJmw3g1HDahQzk56lQYO77QLC7vgT7gzTLQAJs5cu7XX38gbP+u5FxxqXp9R3lLXTU8VTk6YVKwD4oRrANGkLwcxp+T1nCEeODX+rYA2/9d6OA749+FSpbDs2XPzchV29HgIChCUJZRgGxXT6DJZTp3Mg9PTwI+Ou/G4U1P1/SzEGO3D/bl46cfd4YhKyeLFRafco0ZLiJ8iUn3m3q5Aqi1zgHhlZt/dnAL0aNn/TzUAcm/rtR+PT9PdzkxmvQ2ULkbUo3ELRBulA3PQn2h1hEaQi9jTx4vaS+DsSscavQuP/Xy3effxKfnFNsQkRM7AYs/XejKAtOD/KSE8+hl4uRu4XjQNhWOUItB2L5lyzOOBPa5UnO8uTXaiBenV/Nz3/ceeV1pgmtT+4FLP13o1iLLw/2kAvXfueLkcMrHATqXChQSV9KFwOLB76EhukSM9+bUAHE6lTxk6m7H7wvQYbZQ4Gl/24UcdG5vq5yYN/hSCHy+Kw/CNyrRKC4MMpMZBkbTKj6TlLme98GgTj1oZ/OPvWmEBkbJmtY+EehuAuPdLDnXq11mcjluCYg9BAU+LgjwekUk4RQQrlYCZnvfRsEovRsNvnwKwOytyxzAIb+USj6zHW1+OY75RXyuWgMCD5WqBlADE9gklaf4PtAMpaH3waBCDVB3ZfdykJhj3gDQ/8olOKrKb780na6aEZOb3diYEeZIlBOa0o/I5P8jgT3q1KJmRECwmvK9V7zxIBCP6wGDP2jUJrmi520nApakI68jo4AesPBlFkC3fWl/IlMS3oRHE9II2FBOAjv1211dDEKn9ENGPpHoWTTFwRxqcN15HbRl0CvfnceZYlAK4Ho9S8bywCCdp8U0lbWAcFdIhfdK0Qxmn/VMPCPQilf68Afjxnvkd/7XGjBp3ES5W9hSvpRmmWxwWEE2CS+gv2ROhBYGzb+bDaK9Lgn0P2jUNrvZ3hwpvoBE/I7qTGQXbcgjqBsFuZ1ZcokZDyJskJspmv9nEFg107rXltQrIlNgO61HaVuOlCdJ5puj5Dns4Gs+dmEOIigiRJmv56gP8RqAWWOyKIn+IHAFcacy0PxmqYA3XWVRXKIj7ppuOE4MQ15fi+E1isL0TyAYHdIEMt4IFZ+w2o1Zaqo0v8IA2F19RZGm1HM57xojouMyMO0iY6c8FlRhDwvHgnkav8joqkvwfGEICl1KH1LWG2hjBNRyT/tdCCoc4fNySjurM5A1k4vQj4WrfDhQqWDFuT6aQ+S8w5ERGNvgssFQU47U1Yi652UYeJ5MtodBPXoczwXxb5aRxuUjby0HKzEgdqXke953YE8uviD4h4E9yuCTAei331m+3SEviaRpC+rDIL6fnHRgKKPqwXkpm+Qo5drS67FA+T8PidSjZf4oaErweO6EJnNKe3zmZ1yInQvEoX5fEcdCOk/9lYJSnAWkIMuIlcftJBY22jkfFYHoDpswY8WdCJ43hTiqjtlDjK/7kHomC+G+Kk+IKTfmNsmlOLzSiS7P5Cz0W0l1ekl8j7KgfR5/sdy2xK8bgsxE4juV9nd8yW0zBbOsKcBCOk7+l8TSvNnIPfJ5Q2+7CShDq+Q99kdgOp/Az+eE0nwuStAditKkwx2TwMIDdMFezrcGQR0H3LdhBJ9UZkUeg/5+6qDZFrHIPf3OZKmWEprRfC9L8B1T8pUZP8ymFDrvUAFG6uCgE6fnSlGyS4Aqm4Z8jgmUiKNnyL387oAteoLLDWb4vdIgDlAdDolwJsQQrV3wjwe7ADs7dodLEDpJtcjtU3nEj5tLIlq/yL//3GhaH5HK1qKJjuSUidFgPjyhEpvhchfFwYC1lmbgVLebkdxPYqc/reaBMqdQf4X9QdqvUQBHrK74kH5FgVMCCWUjxPg0QA9sK8wKx4lbegJ1AEGXuGZcqJz34YyeMObov0b2fneZ/czEB2PCZFcnRD8gplhcxiwdx/1CCV+24fidQn5vc1dZHZzTTJg+Q6oDZOtyWlF8LnLLL0JpXayEGn1CAFPWb0c5QjMde1PlKDUZwN1cDHHTHPsxDUyH2XwRWWKdiVam9eW4H2H2VkXyncoZGYTgt9DNsb9dYB9tb8zUfJZLSju55Dn+SNF1TIe5XAZUOskWVXQkeD1L7NJQHQ6IUhOJMHnLpPEiW7A3OPrGOTgFXdKt3yuYXxLEZW/hnKY3oy0GK0u7ELwvMUqqRal3ntB8tsTvG6zuNgSmGvbnjQiD+cC0W47cv5qiGgc1qAsHnakhMVaV9SN4HGd1T49ZTIKWvgJwfMmLXdpIDAPXZKOXMzvSKmZyDtc4yCWEYWyUDIEqNPQ+uKeBNeLjIxfANH5jDBF3QjuV0nPBtgBa4cBD5CT0cGUScj9whEiqfsSZfFxMMX/LsHYm+B0mlFMKKVxujDFPQhulwjG/TWBeY0tBcjLPTqCyxn+4cu6onDdj/K4CKhDSgjmfgT9MUZrNJRfUdiSXgSX89alTXcH1q5jXyA/pwCxfqoM4H5XMYwrloeslhSn40i0DCToDrDJ7wJEr5sCGT8nOJ+16n5XDbCut78E+WnoQvka5bB4nAhqxaI8nnGhtMqi4CCCJorNdS9Kp3yBTH0oZ6wwRoUBa9dv3iBP31Yh6HbKAsbWEsxhC8qj5Tug/oHkEQTYwmY6UFeguJxOl5Y23Q1Y1z9Ygly940UIeCwPuMVBqN55MvE2glLhOW0CZQ2Td3Uo5Z4K1pdyqpQHn2qAscvXccjZPVpCk0yZyOstUMB1lMnd9pSRJtqvlD+Y7NFTBpaIzPHkR8x7w4F1jahi5O1fQBxslgm8HiDMZLNMGIcB0fEY0n+nzGFR3B+I9rtRaHM/yokPcmZ7AGP9sOfI3wmU39BaU0H6u7iY+9dOHzmwd9e2zes3bNmxe//h4xf+/T82ISWryCwt82RBwp+jTL6sRGmUxmA1ZSqLewGUmkmCmSgOH8QO1AHj0LUFyF/LIMo2REthSvSlfatnf923faMaFQO83Z0d7O10GgAArc5e7+ji6RscVqfZJ4MnzF9/8HJ0coFZEvg8XADNYpTLLTrKr8hwC2U8i5lAnYLC9SU4nkC82BgYa7r+hzw2fk6w+3XbzBEdawW62oFI9W4BNdsP/WnNsYfJBrHhYg27eolyUTIAiF43WeykDGWQUp/icU18p01rg4Gx128ZyOWi7gSNXgPSdPCt2eXbv/55km4S0du6zLQrUS5fhFI65rPYryN8bqTt0VM+yRdBH4LTth+cgHGD42bkc2EXgtQd/RsMXHD0WZZZHPinllXjFNnYoqP8gSzPORO6FJKKPgeidh2Kzq6yDtjaD3+FvDZ05cpHHYKaDV9xJckogncNGWlXoVwaBwMx4BGTO96E1jmkWz6UsNciMPYmMA/8swC5XdyTPx91q9Fv8dn4YoFwlY5NvSTZeF2F0t3A5FkgoUE6aQpQv7GIoOQzUTS/hBw39+PUh85hvZdcS7UIkVSPiWYZyuZee8rfyPR1OUJYEuVNVYrbBRRhcQ8ROIxNQK5/xbEP3euP2f60gBkuYlL1tWxYxgAx8DGbtxUJwS8pq7SUDrliKOomXNBqA/J9KecAQBfUef71TEYvw1hMQ9lMrk3pZmCT1oDge4+Q1QaI2nUoxsIugjW9hLw/YMe9Dz2aTz+dYmGA0xkE3JWPM86U5cg2vyPB7TLhiBOlerwo8jsKZDf8DXL/WZAsAIBznfFH3tH+86MNKJaPn4Hoe4+RsTdBf8y6on5AnYqizG0jjM+SfOR/fke5AACH2t+fTCUU9SHp96Js5rahtMtjZBlI0Oy07qYPxee2OLKaC1LzGMriUhkBAOeG0y5kWYO77Sn1UuTjvh9lNrIeS4CVVlm+B2rfInGkNxLi0/9RHmMqyQoAuLVc9LC4tOR6lJ9QPtdoCK6XmM2jzLbqeUWKw0EU5/ta7JwmpqFczman1XuXD6vWoOPng4d/OWbs2HHjxo4ZPWpY/x6RNatWDnaz00oFAAL77Xz7MfyJ4H5FPkxDgFg/jdlayrdWzQVq8wyRJFZhFri2GGXzfSeS1qNi7R5fTl29/+Sdl0nvM/OLTRa00mw05KalvH129fjePyeO7FG7opdOAgD2NSZdyvvgqod1rbLlI7E65WtkvoMywGzF21qkP1Ck8eVZ1T2LcvqsTWlaz7COoxfuvx6XZkCRGtLj/j2y8tu+dcs5iAwA3D/ZmICY09q6OSifp50JdnvZHdMTOhdYsUpLCXslsW7PUF4Tf6nlbu9bree0XTcT81GSJekxp9d91yXcQyMmAF3EtH9L5lvlflVGZgGxwkt2d7wJjTNKS28B1Gko1jchTBy+TUXZTb5+8l5yEUq9MOnGlu87VHQUDwD49pvoZE2jdPko7ELpUcTuRTAhLLG0XXpKwD3RvAxm4bPCgLZ8/pvTC/tFuIkGQKex5nuUz5jylMXIPqEiITC6lJxOQB1pFM2zQAZhh9H2NyZfWda/mrNIrNYfkJH99gS3KwJkNCZ43ijlkBPF7TyK9oEvrcUdVIjGxLOzOgdrxVX+hYz8AMQ67wUo6k5w+Odj+T2A2r1APLe8KJp+r1FJFkRvG1nDSUSdC+Qjtw1lhEUAywACbPnYSVeKw14U70VXguPkTFSa5nenpjV1F8vPKJ9PgyjrUchvKQs+YugH1MhMER3TW+e1oggVaeaV2ZEeYtAflpHddgSfe4Iso3z7kXMeFN0GFPFujVUV9lpQseZcn9XSXbDgaBmZDMSmWYJspfQzIWLRAKA2TBHTDrC23mVUttmXp9d3FKZVjnzktaWMR0GP6wltcxHxvAdFswLFvNWajk9Q+b4/PqayVoCvUD6flyNotwpz35dQMwWxaCBQayaIal1pmmGJqIjNr9Z382a2QkYO2hP8HgrzOoRQ7iXieQ/SQhT1slL0k7JRMRf++2NtOyZOp2TkJyA2yxImtQ7B8xYa+gO16mtx/fYxt4UGVNTvdvX2YRAULR+GrpSxKKyhK0F/DE+6kWaiuL/+iP9mEyptw60fqmkpDdPlI64yQbNJIMsgAqwv+gyolWNENuSDKkdRkcetaeNkXe8S+TjrTPD+TyCcTpl1zIX0C4rbMgAA6l1HpZ59bICvNZNRPpcCsV6aUGsofboAtUqMyIy9ASIfo4Ivvj0htLS/5cM0hDLELNReLcHNgfQbirzwE+j+CpW9JXpOLc0H+mPykVafshyFvuFJoIe9FFtWyyHJqPzfrmysBfD+Tz7u+xJcLgj2Mlig2Sj2tNUZqAqmrGwJFePkY5eOUDlesJSawlR9JTqzCdXCDGiUIR/TgPipQTBDV2Hmo4oLXQ2yYfiUMh2FHyZIzXhVZwTK5ttwgi5KBLOF0K5AVWe6fFxzJ/g+FMEWIRonqzvL5WM9EOunieCUEzv7TajqanbKx3eUgWYRPA1g1y5T3XE6IRsFHSmLUISJYcycDqC6631DNuIrE/RHxJDfgdlnBSpPuaeycdmNEBQtBssgVh7nUOUNj5eN9UBsmikG/I3VqBK1p1GKbEygDLWIYiujcvdR7e2QKReFXSi/oyjPu7D5BVXfXvlykVyDoD8ijhdBTGrFqT9flMjFY39C4DNxpNZhYbca1d9vzHJxwpHQIF0cxT1ZtMtQgX60yMVqIPY2igPHMXA9iirwQpTLyZTvUaR/MRhWpAatkouS3pTVYjloRwq5h2rwVrnIaETQHxXLQz/SbFSFD8jFyxCC//9iSapKaZykDp2Si8tuhKpJYjF0ITjtRnX4klxs1xA+KRQLfkUYWKgS3ZSLmUAcgaJdbl3wHVSJ75MsVx5zyTKM8rt4DtlbNQvV4ickPFfvxxgO5bYhaKPE89jPmqbvVKMXtOIhEDb7FXfehhE8b4knOcIK14OoGr+h4XVfgOoL4zhzx5tQ4Y14irpb8VWxepTIwDgWAKDWskSuHLQntMwWD35TWng0qsfvGeDdYAAATb2VyRxZCsT+ZhGtLsV+DarI6Swskz4A0DZel8qN8ZQfUcQnHT/WM1dNymaBT0I/AmDXfEsGHwxdKZvFFBP0kaCbqCbnMcGfSwGwb70zmwfvaxOcz4opo9EHmrmoKheyeVm1NACHjvtypfckgBAUIyZT/w/apapLRWxwgTUAjl2P5EvttBOhTqqYcCYA+JxHdbmEUXxtqwCce54olNY6IPYsEVWUFuBni8pkYoQrtNYBuPU9WySlqZTxKOr/vKFVCqrMZlbvGlEAPAZdLpGMsS9lpbiSwj3PoNpsYYXr7UgA3sNvGCWS2ZRgf0hcRd2mmlWztFYMAHxH3zZJ4lUFgt9DcVmi3qJ6vkPPAiDgm/tmCVxzJ1RJFBeaUEXP7sgGIHjSY/Ht0hI6FohMXT/ozAigwvRosc0F4jBLGUZ+D2YAlX99KSrLCMp8LMs86cYOIHzuaxHltSNodpZpGAYIARCxOEE0SVUJHtfLNPCSlyCgqb00QST3fAjlX5dtlIwQBkBTa0m8KI7oCc2yyjbwlr9AAJpaC16IYAUQ+5rKOExfCwYAVaY/NAn1LWUqlnU+KCcCgHJjLxUIUtSdsqHMw/KDKAA8uu96L0BqXYLTqTIPfFZJHAD6RvMflbCKDiIERpd94G9iAYCgwQffsznnTKiZUgYSW108AA4Nf7qex2AjELsXlYHgIo2IAMCzwx8PCyk/UsZgWejbuuICgIBPl98vsMY0gLKiTARXasUGAP6d511OKyW7BUG3v2wkpYkEAMCtwTe7nuYhYlxFgs+9shHcZE+q3dlRBABgF9Ru+oEXZz0IlRLKSDJak0KvHersKIYP9SFVdYR2eWUkGOVAga8x90A3F3EwHGwpK8n5hOR7DTH/RB8PSczGMtMjLhQYYEBEw+WvgiSwveykoBfJ+SB+aHr4Y3WtyNyulJ3gGXcKtEr9ABHj17R1FlW52DKUosEk7R+lIGafHFVeRI0yylDwqi8Fwp6VhmiKXtraVSyfG7lhNqlgxnEkGFNiBSJmn/8+wl4Uk5Cbj0+rYPiwPMntmHWI+HbPsIpa4dbxY0PXPBUMfyVBq/cURNPLLYMq6YRxOM4Ny1cOJ9SwuDokzVwaIhpjd46q4ShAwFNupNaDQSUqGK6zo0DgdRaIaE46OaONv4ZR9XfcuOgKgY/UsMxOJOiSyebD3IcbRzf01jDoauDGzwCwQA3D054k7RJ2iGjJuLPh6xbBesKXyMvMZgDQPEMNM44nQbmbQnw059nx+cMahjhqSlnKjbMuAOB8Wg3D6HASdE4X6kNT1vNzqyf3bVjZXW+3hxvfwYdTVDFcaUfSzLKI4OMlWW9untwax4s34R9plK6KZXcjgc9p0XB2rfYjrpdUMbwWQIIm8XKU0x4+PlMds8zUkOArgwz941zKJ4WqGKa0pjmslp/iQVBq+ZfqGJ71IUG5a7Jzw6c0+0MqmflnGrRMkBnTGLByhkqGKW1oMKJAXu4GWtO9SCXDSwE0+8UWOTF/A9ZWS1LLcLGOBN6H5eRuoFVed1Sz7F40CP9PPkxjwWrNDtUMH1alQWS8bFz3tQ5mqWe4y5UGg7JlongIEIda1DPjFAbaacXycNKN0sWgnuH7zjRwWGqWg5wuQK2erKLhvXAaeOyUg616UvBLNQ33eNAg+BT/EhsA2fe+qmaaqaNBlWvcmw10p9OqGmYPZgC173PufggDTZS6hm9aMoDmz7lWNAxYblbZ8FZlBtDuFc8OODNZo7bhfm8G0CmOX++aAtM/VTfLCkcG0DWBW7OA7WLZMBflZ6cmxsfFJb7PzDcYFRwW/aBlAN3ecupmIKPZMmBIunts2c8jO7VoXDciPCwsok6jFm0GTl2w998EgzLDrCEs4NN4LuX2BMZzOJf7eNe0LhGeDsDS3i2887T9MQYFhkldWcAnb3i0xp7VYp69PzWjtb8OhLUP6bH8QZHiwphmLKDDC/48CQPWK7iVd2lKPScQp3+vrUlKC/+ryQJaPeKNYSgwX8WppA0d3EHEdnXmxigsvFyFBdS/xZltjuw2cSnh9zo6EHuVX2OVFZ4oxwKqneNKTASw38Wh9JW1QJLVV6QrKtzvzwLKH+CIYQSwdzzJHeOJNjqQqLbdWbOSwp2+LMB3tZEb2xwF8LnLm8SJHiBh759SlRRu9WYBzrPyORFdHQQMfsGZSy1A4h1vKynLBk8WYDfmPRcKhoKQEclcKVkfDJKvtNuknNCywZsFQLfnPFirF6SrgScFM52Bg+6LipQTWrb4MIEGl6T3rBIIOtTCkdwJdsBF/Q85ygkt2/2YQMg2o9Te9RVmLvIz/3sdcFI7Pks5Ie4JZgKuv2RLDJO7CaHbw4/in3QgrNbB1a9ClbCqVSsF+7jqtYKAdmyOgsJjFZmAtt9LieHT6gL4PuTH347AXh/cYugvG07cePjiTXzC29fP7t88sfGXgQ18NMxAO6lQQeH5akwAGlyVGK63Z1cnlRtn/YG1T5ufDz/LMSHdmH533eBKWkZgN9ukoPBWQzbwq9TSm7Prb+JFQhNg69Ri8Z0cFNAYu/4TVzbgukVJ4ZP2bDZIDZewW4KcNE0Apu79j2Wg4Hmn+7sxgeBLSgrjPmehPyq5O16s3K7w4qwXC32PUwYUpeGfDjoW0CxeSWHaeHua3yPJpdRiVfs9J/K6AcOwtXko2owl5VjA6CIlhQVzXUkVEyRX1I3VSDMnDjgy6P4IRX29DQunHYoKTRuDKJE5kjP1ZWQXhXws6A5k+69TUeSJo+xoEBGjqBBnU/qaJGfszSgsjhOX3Um6yfko+ryfHGnwtVFZ/UyZgJLPiWQ00syJyUAem4sSLJrnRPM4pagsQyirpBdbno3+APIxpTapXTJKsnimngRdcpRUXjuCbp/0DurZNErlxFlnSuA1lGjhdxqSfoeSSo4geN+RnGkEsF2InJwD1GkWqWD6ZyRoma6gngQQQl5L7k4Am/LPOFHSi1L5OUr3aU2S/TYFdc6Z0ChDaoWDge13Zk4kR1DGWySEUc4UaJOlnLZqCL1KpPannk3wfeTkkwCC8wmUctGXJMcjymkOEMegxHf5AtuJFl6cdiJUT5QUPo+gQP9ixfQlZZnYzITCP32BbYXHyMudQOxeJC1cqaP43VVKhV0Iml0iK16wPNUK053BDsBWsxC5uYkyDiX+vhkFZiul1LoE9ysi2+ykbTz/RkpBUVFu7MERAcC6TRo/1lB+lBpusac0TldIMcGE4JfiuhoCAOBeq0W3T5qG2gNzv3PIz1WUXyWXEUlxPqOQrrgRaqWIKq45iNJ+GXJ0A2Wa5HClhgA/KKQ9WsKnRWLKGwLi/LKAJ1spE6T3KpzSMF0Z/Q7EL1DE5jk6cfROQZ7uoIyUHk6kuF9VRl9T5opprweIsstb5OpeLaFnsfQuuxNgkSIq7knZKqLblUGMmn4JyNer7oSW2dLLbEbpUaSEMhoTnM6IJ6E1iNHh+wzkbEwQoUq89HAGpXKcEnoTSgh4Jpr84SDGiusNyNu3lQkeNzhwzpXgdFoJ/etFCE8Si3munQgcP7+L/M2JJGi3cuB9XQL8roQO2RM65ItltwcIrmsWlY8cNg8hwNccMA+jDDYroL+AONAikhsVQWinthvfI58XU5pmSg9XUBpnKKDJlB9RnC+bgLB24V8ezUZeH7YneF7nwGU3QlCM8jH1o6wXh3l5hJcDMzvfpt9ExZmR38+CCPArBxKrEZxOK5/sVgT9EXFYCpLv/bN0+rDI+lV8XZwdHfT29g6Ozq4hdZoPnbXnfhbyPa8dpVGq9AxdCLBB+bwNI/g9FEeppoKMuEe3Lp86fmjv3uPnrtx6nppnQhn8haLfKT0cR5mmfO77EkLjRSXXp50I0DlXessoAy2K54QjoWW2DZRci+K4S3qH7AmfFCqe9UDsa7KBcDIFmiVL7o43oUaK4vmJ8j3awpfdKZrfLFJ7FUIIeaN0LEMpf9tEeR0o4HtWaskRhICnSie/PUG3zybCdToKNH0jsewWBI/rSic5guB12zZKaUSCITnSKupG0B9VOk8CCCGvbSP8W0vSzTJJyjKYALuUznkXQsN0G+ldAxK475QUfknZrnS2aQifldhIuM2BBBVvSmo8ZZPSmQvE0Wgr5/ehQcs4KU2krFc6X1GW2kx4K5AGQ3MlNJ2yRuEYuhA0O20nXKSj6WabpPMr5W+Fk1aX4HbZhsrpSwP3XdxYpXBelCMEv7Ch8HlNGlS6KZmfKWsUzlV3Qs0UW+p1WwbQMk4qMyjrFc4eHeFTg+1kOdkQmA7NlchUykaFswSIw9BmzprrA2y1s0zSmEzZrHC+ocyxmR711AJjp2kGaXxH2apsSj6jbLGRSnaGA+sqW4tQml9RdiibzCYEp9O20bsJLsBY2+0+SnUoJUrZvAklBDy1ia62BtZeMzNQquZ+BPvDyuZfL0JYog2UvyIIWNc/ZkbJFvckuJxXNoftCR3ybZ8XQ+yBsf6LWJRwQUeC5y1lsxKIA822jvlIHWBd7u8ClHJWc4LfI2UzhTIdbdz0XzyBdbtrKO33tQnBLxWNqT9lvY1zt6sGGLtOTkaJv61EKB+vaHJaEeyP2DRFmyoB6+pRRpR6TBAhIlnRJIYRfB/YMgnjHIGx7vP/Ufp3vAmROYrmgS8hNN6GOd8MWPsuyEYOnnEidC9WNCcdCS2ybZbcxf7AuslpC/Jwt5bQ36xoNgCxj8lWedZPB4wdR8chH/8C4nhUtD9TvkPb1LgvAliHrjcgJ3+h/K5oLMMoK22T91PdgLGm823k5kjKZkWT34Gg3WuT3OwArD1+TEVuGroQ7A4qmpQaBK9/bZDC1SHAuvZBE/IzrT7B619F8zSQEPLK9ng9Sg+M7QZFI09flSeUi1U0510IDdJtDcuJhsA6cFkecvWGB6FemqLZriH0LLExsub4AOuWl5Czu3WEnsWKZh4Qv0Lb8lFPLTB2/jYReTsPiF+ioh1NWWJTlOwIA9ZhW4uRt5bhlN8VjaErQbPDlkj63hkYa3vcR/7mtiFodyuatHoEt0s2xJVIYO09KxM5/KYSwfs/RfOyHCHohc2QvyIIWNc/bkYeX3QlVHmraK65E2ok2wovBtsDY/3wWOTzaiB2LlQ0e3WErgbbwHy4DrAO+bsAOT2eMhoV7VIgDrXYBOk/ewDrdjeQ13ltKCuVzbeU2WgL/tdFA4zdpiQjt6PLEVzOK5qSXpTNNkDRporAuvpuI/L7gD2hYpyiyWxKcDwlf/HjHIGxrs//yPMZQOxcqGjiKhICnsreuWbA2m9hNvK8oBNlEira216EKokyl7vID1g3OWtBrkeXI2h3Kpsj9oT2efL2tK8OGDuOiUPO79AR/B8rm7+BOMAsZ8a9EcC64gYDct4yBoiROcrmB8o0lPH3P7gBY80nd5D77+tSJqKiNQ2grJOxm+2BtcdPacj/864E3R5lkxNJsD8sW4WrQoB17UMmlMEZQCz3XNkkhhN878vVq5F6YGw/6DnKYUYTSjeDsnnoRwiNkyfLiQbAOvCPPJTFC66UJahsTzkSmmfJUtZsb2Dd6hLK5HQget5SOBuB2MckRw97aoGx83eJKJPJdSnNsxTOr5RvUX5LtocB67BtxSiX+/WUGahsLV9Q/pKfpO+dgbG2xwOUTeMQILpdUjj5HQnaPbJzuRWw9p6difL5JITSIkvhpNQkeN6SmfzlgcC6wT9mlNH5QJ2NCvdZIKHcK3mJGWwPjB1GxKKcpjSgeN1UOhdcCPXT5MR8uDawDllVgLK6w57SOV/p7NAQehbLSPpPHsC6/Q2U1/xPgahZg0p3PhC/RPn87xMNMHabkoIye9KVUuWV4hlD+V02ijZWBNYRe4wos4Z+QP3aonQMn1J2yEX8WEdgrOv7BGX3ggfF7Twq3bT6BNeLMnG2KbD2W5SDsls8FKhd8hVPbAghKEYWchb5AeumZy0ovxe8KHY7UPFe9yBEJMvBkz46YOw4Nh5luLAPUBulKp99OkKXQv4Z91QH1hU3GFCOj7iQlqLyXQbEoRbupUxxA8aaLndQlrM7A7XqKwX0HWUW8v5GO2Dt+VMayvNGPWkWKt+S3pTNnCtcFQKsax8yoTy/qQPUsJcKKLMpwfEk316N0ANj+8HPUaYtM4D8GyrguIqEgCc8s/zTAFgHLc9Dub4ZSKoSo4TueBOqvOVY5ixvYB15GWU75zMgz0UlfFRPaJfHr4c9tMDY5bsklO+/7Ul1EhTRKiD2N/OqeHsVYB2+vRjl+3EVoOpWoyKeSpmKnE76zhkYa3s+QBkvGALkyHRFZB5IWcupy62AtffsTJTztQ4k5/2oiHNbE+wOcSn/j0Bg3eAfM8r53YpAHmxQRonhBN/7PHo+yA4YO4x8hbKe2QPIIfdQGUcHEkLe8Md0qBawLr+6AGXdMk9Hm4sK+U0FymvupP3kAazb30SZP+4D5ObJSim1DsH3AW/udNYAY7cfUlDmo+sA2f0YKuW8dgSHf/hStCEUWEfsNaLMZ/cF+gSjYjL1J8AWrsSPcQTGdn2foNybZuloDeJROU+kzOHJ2SbA2n9RDsr+Tncgux5ABb2UMowfOQv9gHWzcxaU/WuhQP++REnt0RE6F/Liyec6YOw0Nh7lP7YJ0FsmopK+7kEIS+SDcU91YF1pYxHKf3ofoPtfQEX9ugLB5y4XUqa4AmNNl//QBiz4RkPTLUJlndWMoN3NgxvtgLXnz+loAxrn2AO9X47CMg0gwC/SK/i7HLCuc9iEtuB6V6DXiUGlPYvSq0RqscP1wNh+SAzahAf9gO57EhX3XjtC9SSJPWkMrIOW56NNeKY80O2XovK+50NwuyKtvL7AOvIy2obXw4HhqAIFllqPACuk9bcdI5fvk9A2vF8HGLZPQgVuGkzpb5TS40rANnxHMdqGT5oCw+oPUJEvpYQnSKjoC2Cq/ewh2ojPWgBD/xOozC+4EByOSeiQCxOfOVloIz6PBIZOq1GhJ9UgwATppEUCy4YnLGgjvmgLDO1+NSo10xBKvVTJrNIxcBj5Cm3FmHbAckweKvZVFOeTUkmsC/TyqwvRVnwaCSx7p6Fyv+9HgPEWiSzT0DrcRJvxUTNg2TYOFXxeB0p4nDSS6gDV+Yf3aDPebQQsG/yPin4uRbtOGqu1pO9L0Ga8XgdYRtxGZX/DiwDtc6WQ2QqoES/RZjwdDiwrX0GFn9eB4vyPFI44UuxWo824vzywLH8aFf9SCvQxiM84BKjtM20F82Y/YBl8BJX/42CK+znxPQ2mOO5BG7FoqQewDDqAKmDJUAp8Xii65UDtlG0j5Ex3BJaB+1AVPOJIcT4stvxOFIc9aBumjNQBy4A9qA5mtKRA6zSR3fOlNE2zDV72AKaBe1AtXK2laH8X2XKgLkGb8HZzYFruIKqGb2tRoPwdURX3olSItgmOhgPT0H9QRVxIgu5ZYnpdkTLEaAOUrPYDplXOopoYV5OknW0W0VE9wW4nyn/Oj87ANOIyqotLNBTwPCiiX4EY9kb+4ofogGnD26gyJjUiQfgd0RR1pwwwyt7tSGDb9gmqjtscSND8pVgSwyl/osyb94cB2x5vUH3M7UGDTnEiuelB8LwlcwWLvYCpZmgyqpHXAmjQLU4c2zWEuqnyljRaD0z1E7NQlbTM0tCg4wtRzARiX6Os3WkHbF0XGlClTGnLAJreEoFlEGUmyrhpdxVgG7DRhKrllSAGUHmPSbCCTgS7vTKWM8sD2IYdRzXzD3sG4DYjVah31QgeN+Tr5QAdsG36L6qa+SNZgKbtBbMwscGEkFjZOt0AGPeORZUzoTULAN8psYLc9yXUS5Op/GX+wFb/XTqqnneqMQGIWJYowGknQscCeXozwh7Yei4xoAp6KpgNaOouiWW2W0P43ChLF5sC40r7LKgoLbzCXT5sACBswqVcNtuBOBxlOH9FEDBueQuVpcXELctmb1YA7m3m3chksIkyQYZefaEHtrrBcagwzSXcQstGH2YA4Nn42533043WraPMkB3LqYbA2PW3HFQcBn6hJSpYAADQ+tYbMGPH6f+T0vONFkRcQ/lNbnIW+gLj0O0mVJzGfI4h/hMuyEe1DoHhtTr2HzFm3DeRlJky86SvHTBueQMVaHE21/BOpGBCzpIV454IYGw/PAGVqCGdbxj3hb0tlDzZDRh7L85HRVqQzDnMXx5o+1xtC6xrHLOgMs1N4B3i5Q5a2yZvRTAw1nz2BJVqZiz/MG1esC3zdIA9MHb7ORMVa2q0DCDeGexiqxTvqg6sq+41oXJNfiQLaDjcycEmSfjGBRhruj1EJZtwVx4Qs6PaO9kcltNNgbXbj+moaGNvyQVi9pG+PrZF2kwfYF19rwmVbfRV+UA03JpRR2873OisAcba3k9Q6T66JCeI+O7AmOoONkHu8nLA2ntuNireO+dlBtH89ui0SH87uXvc1w5Y1z9hQeV77YzsfJjzePfUT6p52slW8baqwFo//BUq4fP7ZOlDQ+Lt3YvGd2tWLdDT1dFOy2Amx+LHOwPr8qsLUREfWytbHy/OSoy5c/H4nm2b169Zbf2q/7hlOd0UmHf6FxVy1EKZk+Gseb7A2uPHVFTKG36yKKtHvXTAut4REyrmPyYoqpKdVYG146hXqKBnjzMrqJTJrsC68kYDKmjLlJFG5XSrPbDW9XqAito0ukeeUiraUAFYByzORmVtGNAiVSG9+9YJWLe9gko759NaScrodntg7TnjPSrutFZh8UqoZHslYN3gmBmVd1Kt8tEKKG2qKzB2GvMGlXhsqOcV5fPwUw0wrrKlCBX5/QCHI0rHfKAaMNZ+9gAV+kV3TZTCyV/oBYx952ehUj9kDyuVTcIIe2Dc+IwFFfsGgCmK5t/WwNjhqzhU8PMAhisY0+7KwLj8WgMq+e8APitRLHmzPYBx25uo6E39ABqkK5XEEXbA1un7ZFT2eW0BKr1VKA87AOPQzcWo8FNqAPg+UCanagLjtrdQ8UcHAuiPKZGSdYHA1vGbd6j8L7kCwCYFkvOTM7Att7YYVcBdWgCYqjySvtAC26aXURWcBwAwyKw0orsAW7uhb1AdHPVB00yFcb0RsPWcn4fqYH6HDyq8URaHqwDb8P1mVAkTq37gckFJGNf6Adt2d1E1vO31AWxSEIZ5LsDUblQSqodRuo98rxxypuiBqfuCfFQRf4GPdi5QCqmjtMC0YpQZVcSS3h+rFKcQ4vsA28bXUVVMrvkx53PK4FlHYNvrBaqLNz0/BssUwb2mwFT/fTqqjGs1pfQ3KoBbdYGp++8GVBnNI6HU6km23+UIYBqyw4xqY1r90lzO23xnwoBpzfOoPt7yLA3m23pHQ4Fp6weoQv4JVnYusO0OBAPTPnGoQhb3tibwf5tufxCw1I1ORzXyZag1mg223P4gYOn4Ux6qklF21kDfEtvtQBCwdFtWjKqkaQRYXe6ZzXYgCFj6bjSjOvm6inWa1bbawSBgGbIP1crtdtbBp4W22YkQYBl2GtXK4v5A9L5pk12oBCwjrqJq+SCQAtNtsRvVgGW926hezgNyzUTb624dYNn4AaqXqY1puo0215PGwLLF/6hi7tbToF2OjfWmLbBsE40qZkEPYOh83LZ63xtYto1BNfOiBwvoY7Clcr8Elm1jUM0sGQ5M3c/bUEXTdSzaxqCqedOXDQwutplMvzsAw8jnqGqaxgBjz4s203Z3YNjsKaqbt/xZQX+DjXQhBBg2fITqZskoYO520jZ6UhcY1rqLKucVb3bwaa4t9O4TYBh+HVXOwv4goH6HDZQ3ChhWOIdq5yEXIaBJss1jnmfHwO8gqp0Z7UBQzXybZ78n0N02oer5p04YCLln49wLB7rjUrPq8SwchB5ssGmSOwJdO70Y1c6SMSC44zZbxjAeGA7PQdXzoJtwEBFjw6xyYNA1GVXP+IYgxlFFNsu1ckBvEI2qp3ECiNJxk63yrg3QQ6+i+rnXTRxQ+b5tUjIB6O67UP2MrgFi7ZZhk+xwodnNN6sfuQNAtJrpRhvkUTjQR+aj6mmeZycecN1he+T1A3rkW1Q/D3mBmEOv2xx/29Mq/Yvq573qIO7GL2yMuxWB7LID1c+EtiD2Xmk2RU4voE81qh/ZQ0D8o/NsiRV2tK5pqHoaJmsloJteZDs8qgTkyvdQ9TTO14MUHReU2AqGYUB22oyqp3mlK0jTeZnJRtjjTBtfrHpY1nmAVF3/MtkECQ2B3Cge1U7LZi+QruuyEhvAMgPInv+g2mle5wVSdl5QJH+3AmkzzGqHcaUHSNtxWp7cGQYDuUUyqpyF81xA6trRaTJ3xJXkeRJVzuxJeuDgZy9kLaMdkCebVI6EIVrgYuPrcrbajlQvHtXNe22Al6HbjbKVWA+ojrtQ1TQfqgb8dJ2WLlfLNKSBhapGzlwv4Knm03vyFF8LqMH/oZr5rL8OOFtpo0GOFgH5V1QxS/bUAP46jnwuP68jSHXiVYy4712ByxFbC+VmEVDt1qNqWXygAfDacdBdeUmqS2qXqVo8He0KHA+Z+05ONukoTvtRpUxfEQZ81zTeliMb+V2B2iNfnSg82EYH3Nd3PWGQieteFNcTqEaWXOrrDLLo2vd8sSz8AtRehSqE8eYIb5BNj4FnDfzLaEpx+QdVx5Lro/1AVt16H83m3RV3Suc8taHg/DAfkF2ntuvf8m0eEO22obr4flc3d5BlbY2p1wv4ZfiUUitJTSi+P6eRHuTbq8vfT4s5FVuRMglVQ9OrrX0DQO6DP1/3uIBHJxwJzqdVgqIXO7+orANbUBPQae65RCNvFgOxTooKYE69ubxXBTuwIZ2r9l1yNq6AI+ZhlOEWhVf87saa4fU8wQZ1rtTp2w3nX2eauZATSVmDit2S9/bWrp8+q+EBtqxL+cYDp2w8dv9terG0EioT3K8pMFNu8rOLO+eObBfuqQXbWO9TqX7P4ZP+jDp8JTo+MTXXaLZYRHbPh1ApXhlZTIactMSX9y4cXD/3m75tIgJdtWCLa/SeIWG1mncfMe77Hxeu3nvm/MWrt/57FB0bn5yenV9kNJnZnXEmROYoDIvZbCw2FORmpr6Lj41+dOfauaNR6/+YNfmrAV1b1goNcLcHzgMAVlA4IOQdAAAQnwCdASr0AR8CPpFIoEulv6MhorGpa/ASCWNu9ThREJ80b+m8Ux0Z/Q9YbuNPGP6044FYwtV/MvxI/LnyAOQA/in82/FH8ndv32c7LEP0X8Uf5XdQ0efl/7Z+63lJxv5q+8flD/e/3U6zbm37X+uv717wfJ3snz6fJ/1r/vf4L/Lfut89f9f6mv6p/tf+D7gP6m/rd/p/i9/zvUx5g/2r/dP3gf+d+3Xug/x3qB/3f/bf//12vYs/ej2A/5T/xvTl9kn+6f9P94PbJ/+3sAf/j1AP/v1e/UH/A/hV8cbmhfjcL7O/3/L+BkcllVZ+0+gB6R3d01Av5J05fQA/TkUJEmNwa8e1V480Ie1V49qrx7VXj2qvHtVgYwJ4v0tePaq8e1V49qX2ctzK3thP7IvS6lSLXxpsjXYf76Gp2qsre6LnWjJKpNYZSYnZvljd/1MeCtUrZ5I1joK4ZpPq+oZFnEXQ+GrAhDwoBVW1lDPariIuyEaUFB0yIVlO0xzEM6JWnZk9xneRCcp5LNxJPEjlPlkbhp+XqTYCLq11eZybxOSlGJwnaoMtHoda6IDWlVJp9t0TsogAs1S/n6ghZye5037FV2Z/1cMi1pV1VbpymYpF+sp2ZPboG0K5yp4VmpFCwRx8nIH0dsI8A4wP+icktqwYdn1VLIraGASgVY81mrrUBBaWYkSYOf+GoxaKMD4713ADbVnXMilrqOMvdZaSxkf39GvQFrV+owlTO+w3M+q0P+qouDlP5escCZy7L/MaRTPnY/fOx++5S95/ZXpSIXHo7om7awATjInY/fOx++dj961DhbXvrOlIbBr5GqY+vB/987H752P3zsfvu2+RSnZoFKEcZMj2EpnBkw+DJh8GTD/b5B9oZpykbfrnjmhG+Y1jOD8rpLnsrEKGJ987H752P3zsegfJY8Aj3t0Z09GCWxHE5987H752P3zsfqwb/oKttO8oeWzL3MfWSdUK+Y7U1MFV1jZ3DLJX+oe1V49qdIA4ZMzyXoyAYHQiL1MJlWfINhU6XbczgD987Hvp1XTJACpSiPUzfgiuYft2cnQJX2ntMwR7VXj2rPG+zhoXCwr868Sl0AbXFI5B2H5+nyf9n2yywjXj2rPG/pOyj0I12GmvYq3tnlDPdA2xPvn/Ze7OS+158KK/LEaMFHTk9Z2l78J7wiu7hnwZN3jf6wrLa7H722vw5bSJkfAXGbB3GGhvd4m4pnBkxbdtXxlL31UYdDgZAdIdeRG/CVXHr5Gaqdj987db68xuKEFkiXoZZhVIIupKSGngyPsdwwPE7H752630Po8ETeJAx1fUqllPrJ9IWh5jQqTODJh8Y19P+mgYrJIHTiDDgApbnG1Xz5/WHuhfx2SVLx7VXj4P8cCY4NUkzU7SajGL5MfFJeDAoD2tdiSyd4vD2qvHtViu/pSYg6Bw7Bgde+XRO2sVHTQaO1nYSMoAhI1KiBbYZ8GTD4MmLcMsKiIOXHAbC8aT63WVyrKA/T4149qrx7Y8x1I/GiYvkC5EA6ICWSYHhnwZMPgyYc0L3jfsv0xecpQP/sREryxTODJh8GGkprQzSWcH9V+jrIsGjmfBkw+DJh8GvJKJCYXvxaSsuVUusF2Paq8e1V49mij3tcQrbakeXR0b0rTln2zQPVXGJnY/fOx++diW2bp2qzBo1PhhzZCoC0kBYQjXj2qvHla1W2T36AAA/hSgAChvCSJM7ESxh7Ja54hA8eV2h1wur97rFdrEAAAAADs5IBBNtwnjpe5EbDhQM2M8AAAB9m+6EQpWXOOndJPQ2lCG42uMblIeCEw9yaSsXLpu34tIc/vII8ZGBRY88yPyuGdvf4nZyOip9/tnn8k21/MrZO45s6DCq+xEiP0yE+aH/+q5dY8+3lEuLxonfaaGX+hI2TZZvEF+JQAGkCJNtBx+qC8B1oK/jGdR66Uu3LLAVrFvCtjgbmlGQF+Wuse0KfDBHy/zVe9tjRpA5iXIRB2hukVsCQ24m4cqX//gkCwY7a5SpKyyi7LuaQXi+nFBwStV8HTQdHbz0CCD9YV6Oc1tYEs71jYIOkdQP+c9EsKHV9nKE1upL5CBwpJMHQeXk42/V2Azq3+H+jEeFcmFkaJFvqFa1ju0VeTv/wjlWwhCH8lcIfTcZerAtVltKUcRubg6uyNdEcHNtdnggR7IOS51HQj//tpgRCGDu47JvY0Y8097luyc02SIedhQm3QRhqTX5ThvW9/rclPJKmxffiPZPEJmrlROnOKCXJCV/d9oCUxmEQkcvFU/IofUhSSDKlhmkPQHEBZtALscENVRK8kO3fhTBHEcORbRA63QLmwu13mt7VnYWSJOk3lfEZR0UUESp9iTlVqhuihehltGXbm+Tz//5klxFWa0b7Y3xaFyUBzuS8pmpGqX3R4WSHVJ0NFkttbcjYPTrcXz+hJjWpSHKaQYL7z/UDzSDcvuM2Haiv2jzRVS9GiB/1bTzh1SySwt1qLdCRn0v45lE6g4q03Jc85bqy2IWhuD0Hdm6GjvvjjgucMTeQw3d0vpX4Rt5DhOpkshXIxtYUJaRrgdKdSU/AZpaxy2Gn1FVnsHeG0MXu2To5K6JxGLuup7lfjsjyv/XgoIwVuhZ0wexwP/5Q/0TVTQzderxGKyMGdtOlKFmRllLvgUjPndLP7aGvW8j1M9argaYPPvnzl+8efBCYNDh6voz2fJsopZ0Z283qVh+ZLWuf3A3TH3RtZdO58NEYrOrPKSQ4vz/t1irh4LiytvvqZ2cZ2x8JH6z/vzla1L8rzIqNJnKEUR3zG6cC3uCRdbaKiN1qdKXNt1Fr2CPOTGFPEMOb7r98qih9iSJS3pLIHivrjKXAtScDGgCRmNrI4wyfqCgfz1QPujjthloWUXGbCHZ4qAIflVpDvm1GDcbQkaW25PGUTdRNWeaQ/np2YDhvwYv7bheYhKoyMtrf6dpFUTZCxZudKfyIgepDb2LGNMkx+n/onjmJY9xNnJrhM7adlts7Eg8EnlJ/hRiEcz9F40m1UrDxijxj4IAlj0zrC8n5J45ULYpqSuB/szp4qSgkEj5HOKkn6eQd/TWmN7pTM/MXorvltffNK92koEX7iqXauL+Rvu7dC/53dISlcLKcX6Ux5heQkUk6H/f14wlzkbMBRbxPmvUX+BAcj/6uPL6d1G/07VIiE8bWHTD6GAIIfzr+hUEEnaqToi7pgbbrKMhe38hSQJOtOLYD016sRRRto0CK2o1AjdBdX9DPN+Owop8Ybf6VxNCs533N3RpTqU/h+oRyuYWv7ezjDhSFLr3dSlq6Uhnixpp98BAc4V2d9BUPV2OCchsZd3SLMb3eTaE/7FCvF58PbLlVyafNBnXpgMXy9+vIB8B4Pqvfdl7lJpWbeStCkZLzpdKVC8DIHIj4ZgHU5/ilbzaNYtfesFYfE597MSDBQU1M2YB1/BmTo1gjYk9QrsjieKALCk5qJog6y8YczOdgSahAJKaJzLd86WOe8I/Mq/UPjFfwEUQ78tPMq/Kdn+A7p7aWxfYUWEjLaZOnl5lYfR7K7bYbmBRPlH7AEyzMhaAR7qBPoaz0WCCkEh7HyLG/hH1R51G6Nzclerpblx5zd4zGNP/zs6WPwQHCPnJsvLYQS4dx0vfsw0BOwAtQNaihY9YCE+sxW10KYUpIV58YYn0PREo1VemixqOKl5Mz0twZfLGFk9mUiBubtsV1Mopp4Qx1kizcSEwWqueDStnmXMEqgG3kne+3hQqbRV9t1nq/FqcRZ+T5O2TqaKn5wV1LjrartZoeAe52KvlnyOjZhbqtoFm9JTTeMYbV//SQ1PriFDJ/ABWEi3RGGu17LbMO5jGk31Gp06mxOn7Z3ZHyHa/cXU4/AfN4IY4wE3E2dgcL8hPKdCC/XePj6RvyYlGLnXY710rHMFPTNAnzOq5FEnueTMIYOc2tP0lgOosFZzAxW7xwKym4i79I2MKrqAf1VavvnOePHxbUyGV6e+Dhjw4Vd8nkdjtU13w8lvk+K/bDJoy+L2Ms9MpByaeWgYcAVQlfHHzPBMq7hPN1Gvat315ZXqd8YmxiBLYMtvmul1+t+QGs5eLDWUbARz3MHzyyAY/oEuSlb0m+/aLA3TddnuvxXmQuERfmHmzQ4JB6ZqKCl801kkWw/AuHZyMpexTYjI1OlCgCK5Fx8QWt8iD6h0U7EIVVWobAIjPkaCcTgTvskXRNv6cE9VPhbiIqcX26R6LsiQY9nQ/6wYP0ui+1PABUNY40tCJdicLoImeAhMH9tNnF1qrpOlNfSK2j8TPcx5zWTBcx3T4qpMNAg2i1OwOeHPkz72tsrWbbH9BC3pwuoKR5+VBiFDD0Iuc4pS7QN4oDOxGpckizvpbofqep1Wsyept64XbZbYpf12ry05hwAAAAA5ODdS7ROkfDG+Cu1XXDeRF9uCDEeBm38EnF4no+NxunMeUoLPS51xhfXXAn8UCY81SL6uPLwnxL5IC6RfRH7OFT2ZpnsZtR+ob/x9k77f/B4agoj23Jnq9ebIx0v/91SdxFlOqZJ3/WfAGRWD2vz765Fq3arxgEeQY90HLJuuF206tslBFtTmqEpnFniB7o0MAlvjtBtlbdeqBxpbFoQaRt5jv3NX/wRjNncq/tkOkRQAjbnX2TgCfpQ8HIqeDsHylH/WURWV2KQJqtwm66YAAAAMVRNM/cgkzxnCCHKNi6MFzS1q9iifki1vW0S7raPvkqYLd39ig5uOIuLHuy3XFxSBoUGWKAqSZwSRXfXJkJ3bO4SUGnteeVy7ftVZIiKkeJUJJVdIf4Iktm/FvXv7Ma0X6M4Y11AAAAKH5IGzKvFtWHQHFlOKfOWtBlZQ1835GOkC+smkXZUEQj1CknLEpBBO1YvtVKckBYLdWrRpy97CE3YEWP4H9ortWs75cOUb/qq+rfdRwAGcZGQB2aUQPGmrUrcGjhJVUddvWqttxvhMBl8xkjRL8n41ecRFv0zUQ+skm9HMwAAAAwGsoSn7Rf//Ru22m6bwLguJ27h/n4NUdoj8qTf6vyPv942K6RQtgT5oZI1nOYS+TGFlfWufZkm/NaiCxGho4AAIkh8/arG07rRdDWYJyRI1PBGOMgu0ClvQ0WDG3JcpDqALBsi/8jYro7BngWDC0J0oBmbBt8ewk8aAH+g5kvTkgNnWMAAAAAI0u7pOW2o/RWYm8Di/V+OLzUQOXQ8bjgmXzuvScGdAH9lwlwelxK1xQMYizD1iW7HvCKOhHQT0W6fEPbDz5T/Je+q3PkF556WDFre5fE0eGc1CxQT28YtJvoP5qOMyp2A8vUzbG4wfvOaCri4ZiQveFlDXAEHM6/1EBs/pS6vrwwpXsPGkY2VaMZSKYOOyqJzbyYNPlwaw/oS3CD6kFWK+2fPzwGX8lAAxpqTt2cnzJ1+V+gYcAAAAV5iOulU9uCsB/aJbYMYiGPSdsXrM4ADqyFXEak1Corrs/jL5qIL3Yd6esGqmcXnss9k5DmCtz+5yF1G1AcZ8SxvOnuepn3x0bwCEDsS5jay4JhTlfQVkEqsjYHapHHkkmRJalZ1ZOSvbBrAAAABxVA5dBMt2873BlnEqgsysu2waJVy2oU+OM6vj04kBLfA3mJ6Vnm6vkl00ZtxyYSTDZy6Ac9jHF+QmqWDcYVgJ/9rNrUJK3D1hssyuq//93gGr6sQy34zl7gB/Lf2crsFgAg3++2YHdLeM+HzgTyeoPM/StZDH7vaOKtZs5ogrfCgmfcX1Ze1CO37RjPhBMbIYKuRuL8Klks2TlNSNPZf+zX7nN1towKcxZ1Qc1ung9rJbfluYeU8v6DDouADbaIjSHqD7bvKdVJDsCKCi5KYvD2CJxSnmz19G7vNmFJceUlXe9F9+cEToJL9RjiSCYyWy6gauQ4x1ThpRZeRYOS+ta1akjBltHKR3LGYlkrTpSlbildoiayzjxwizVHrOjZIe6s6WFTWoycwVGlrkqbAkJgYZJv17Sj+cy5aOSfw198UmlR+1b1WT+4Hxf1dFmy5Yro+SUaJqpuzzy9byuUbJwkTsq/2yo1y4WvNEgvqCf2Qgfc8sUWa9IUk5sGIcnPNBT3UR4SvkRvivrHGs7YxlrInRp3y9g/l0AWSYjEFUojsThjskQby6YwXLlhoUQbbv6f2HJ7oXU8Sc6kdPNSKHSr5qB3/Sjy50aVXO4AH4WqiVZ5tumx2RHcfd0SvSAoG3iEYGeN9Qj03HUACn8T+WiZ3kYyPU6iKzT+wyNUoTk8ZdsEvvytY19r0QKQpYGeRbSdjKRR5HgHLVlSrRZi+dTaLMxR4lb0xpMHVagG5zsLCrndc4Y76JIFQss0tjbiiaj8vnaYeRetwNnuRxnfGBQKgr85+uk5/lB0sBA9cmSm+4nHDj40KJxEH53f2u0CHmamgD12PwdDHu2ibrVbTUvf0b05iobeDUOrLKQmkh8t+yhV5rJfwEzDTQV4QRrsEf+Tm41Y4QHxJMwt2salrABOFmTzEx+9R/UHvw5ytJtXnauxblNCnfq8gR7OjztLcSXSqXnNm19oUdXxtma9+rfqaiwqgDnmT8oGoXhOJDseR/7OE2V4aDsYE5XfrrmCQMhB/6f6PUV9PTAaemMKC12Cqt9usm2ep9wF1JuWSAGzqgmzQQrZgZq83ozi93EGADo1C6ZBOugfx2XqSKtcGTMDrZWj2yQtlbadwuehgoKVVi1aDjCwyBzT83IyupRQUuGn+45vc3726X/Ns1+EObCgFEXi6CXMRDAAc2VegOU6jiMZTLAh2whg39pwIc+zbgJczDADi181zyFWr+pqS1r1Wc2phOE/EAAB6Gs/FojuQaZSkTEXgN+jUOC4NR/gsPoZJm/VFO8w5HSzdHdceh1h+xKAwnzX+CYy4r13f1QPmXSb5kxLMh5h68+TQPAmQZuHEFxb2rbQaFh7pt1KpJLMQFkAF0KvPXbGXPeLv3/Lid42d60xceI0tdn+H8HqWK4mACaPt3DtgIjPlJgAB/f78NA1wTlMOAEIbrzuyPcSfh8a4xSEARqyvnVcM8vhec82VjR9XzqBYIhRVoHDEvYl4bzHOzvY+62oYwBtC2WwQwB/yp+yhs+wh77Y+UyJzlHrbIgwnVDvt6v3YY/Xwusa1emlfv5bIE5r+20/FKXQADaOKwnEx7yJ2GclHJ95KPRf/sL5R+YKR2lDJ2sIhlGZirC8K3Bg5um/ASiACBFRYA2KyXICf42w81dyUPPJkb515ehxRhvB7Muh1cH343HLcEi65dLljPMbWUKFy8ZTAsVYXe7Vy4TNKsQaMz7bBZNFZZioWc2FI0n/9vK5oiOQtynY/cTiLESRwf3SeHNtW6aMrtvIWzE9ZjkKu5ddB3jYadqjCOlmT7BBn1cvbr6A3mcS3yh/6bIKMBABgAFBVx63IMZ/ZGYSNFQNBcbaXcIB9faJrwFwHK7tOPol97xE/k9BFGDAW32Su4lTCT2oQE1bVe2m8prK2kSsSZW1m3zNzbtugjLhMinZG+Z9TE/y0XbsJUtIdJEqjLx0G6lZo9FX9v+IQVVimiOIjNvuEnpdRJOxTkVQhZSaPgG6q7K0atg05+tyM+TqXwlNNCkC8IfWNpYqry8PXUhb8+aV8FsiES+PA4o2EBl8/h/nLc9x1vaQPYTXDhStdLvGRo+k1bp0QkVxRtte6e5gjNKg7gAGfXZwgo3Q1nzox3XYkrKkLrG35wiOvbpephV5sb6H5qDItSmq0BUrt0RUdg7QFQRlHNJ3ENI5lR3YAiL1joUJkYdZQLxJNSy89bLv5FQR7V8yGB3+LXg1YNdoWXNB3nEv3h+7koO2w2IcFLL/MP/G9Rt5hPpLe8oS81IAmdRyR6cl8+WVgUDLTvPQIiwcs9LxaJ+7UW1NrmXEq9PWj4ILgiBWoNw/0IBoXmr+uEMXpbLZCmccQD9TObdo6sb764AAPZ3HizxrI7leufw1wxGpNQ2aCe5xGRaPkXeBBeEI7mCrFwIYTUihqsPa5lQMU9BWcynk5smCSRXGyJcYds5ChmKUzebnzEeB5ubFNsvUMVmhpPJ88W5cbmJywDds+/ZKBTLYyVG9zdNxkeb6oHm383RIU84SdVv9xkF1o+RgAdLEwlGEp/y71o9QY5GC/jFDR8ZHhyTzGYcygkxFGEhCzzZYdNq0upWjhgAhP0AWTpQgh0E6OlEIe82p8W5yFdzBKM0q/yhY9AAAHRhJEbPlTadunXKBo7pXygiAVl0UXQdYxZ5gdy1LmEv/m6r+O/nf3xfufriioH1lmaw4vKpLrQw3eMqEk3z4TfZyEBothgS59EvuX0VEsvRXs/msEZhQxo6su3j/uMxznSvXF/d12aMKBb64XIEZmLC//SdXJ8x63jdgA/nV2L1H1FJRoqsivvdkryIdTmYaBqzeAuHzZe9lnbvVT9TH7lq82IZabaDbFAHeC2meHPYnQzgQU6MR1Ajhflk4leADIlXrgrMFRLJhN5O9fDcEZjMJT8top4t0utBYefHjRSrGfkA575EGCKB20nyRN8D+MA1psCmTRx/8QxSURAhYVXC6gybbrMQErj7gr4WJwuv531l4L/9sKSk9Kbt54FND+7tzNIqiEqkklcvki7flywzsMHse2UXqelFpDGXSlEp/ID6ZSHA11QLUGJ2q0L4j/A3XgxqyWCkc4oWRpwt9kuzjEPELhUefaO1S3Hg8xnv9coLn+0KQLNBzs4mpfPrUu8UZd1wPgKHoY+p/KKTPgGv39IGgb/AAkU7ukoETzlPtVJWGGB9hUmf4H7SdJMhHSXHXgkTFaVYLWbVyh/epTvuykElognTG5yF4S6/5A2RdWK2uOzOunY8rxE/3Bhi3wn0TXGmutFILuUUU+JJw82XdNnB231OvHmmZ7TOsYBiPB8EnsYZH28YOiSswwhXGvbreQGNH4mHj1ruVnAx2el92AyBcOX+dOeHFR2kftvoKKtU9oYM20/5lJGxGsD4fADOKKE4illugoueLUFM1nlOFRk45q9ko/5oAABXJ1I69XcnBXutTwLDUhmHA0d7txKH/cB5oQ4jl5JwCncxrfvNA9NbkFtUtWRRpxLg7TkozS568XBseB76P/xNS/ViqT70wTzqH+zvVcw4g1ltgqC1aAsciqdRfH1bzlzfHh12Ptc+FSVqLCm3GFRcgAKMxzJJTklV/UYPiXjW499Dpjb+WCPOewUMAAMCT1Zg68KoEJih3pzi2X1ENu1n6nqOiAT/mdGVULXAjPZbRoub674VaZ/FqPGDpp8Q3rMsieThzc3VNIcr6XtJfeWiyTZjGVip9PwxdkL07IiLDJ2mUdUq9lp3sFcB8+arrvuf+49ZhrRSyfs7qy52CpgMaAAAmEcbjjOkqJUCtUD/9r67Ag0h5bchoAz2ftQ62eobU/ADMlCp3HjJqi9c84lpcJ5DhcdLhPIcLhXcwJph2PSKzdUTVwcF0qUfaMjROJ/ZE7JBXGYbRdedrU9IdLAUR7jVIbaAUUvi3yPsXgABNK95BOxJXk1ZVXHzRkL/cO5NV0hSTbTCIkpFfZnUzXQIqaDTyHsrbmZO8AOlr+vq7T0iuvsvgIJP3NU2vW0lMOB5e164FauvQQ0qZLu7iM4iHq91dGVq+DKcZOdLP8KL7K74AOCuAAAB5HsQtZIw8yV+SMwQxx6MR38UTJv4/iRxAeX+iHyztbYj5J4VInFICtNVynnH9htpFsPWVI6vAT5q4P0Yrmui+DG3KYcVSsHaD3GpJDil1gWj6cVqC6dhHwEnECp8XK72OBTY1shb+SdLDNZ63/9JrgAAHqzPDPOe0TgVPuTBXge1Zp0s1mwYHLJj4vIi6HhCEu6cQjvvXEqJ1VZqmCWhg7ebnS2b4HEjiitZRo1cOlMcmjlMfo10tIQZzWrBLxJw0yZE73eY5qhlVDX7tdTs4Prgqd1Wc5CydaBvf1EH2KAIOTTrQAAFWEjf3UXYbULzJUk39HWmIgriXhd9bStLp71MVXiQ36gMouzaXIAAtVxFABH8tMVMUISRmjOxXaCw5NqpfA4c6VwKLDPRYmB44xjhuYy+HhlgZFMq0bJI9vkTaBCYmm3J/dSseaAs7V3FQYoQuAUz3WumULVlF/hQGvfGacpuQvB7TEu1+3JEeC0g7HSSUEUErhM9BF9gMMAAACfp882woVyg9kmVngLY/A7OgOH+k9AqL2D9oDb54kuwdAAAA==;" vertex="1" parent="1">
          <mxGeometry x="240" y="125" width="27.62" height="30" as="geometry" />
        </mxCell>
        <mxCell id="PNhUklN0JLp1l5unrN9_-7" value="Sub" style="text;html=1;align=center;verticalAlign=middle;whiteSpace=wrap;rounded=0;fontSize=9;" vertex="1" parent="1">
          <mxGeometry x="258.81" y="215" width="37.62" height="30" as="geometry" />
        </mxCell>
        <mxCell id="PNhUklN0JLp1l5unrN9_-8" value="Pub" style="text;html=1;align=center;verticalAlign=middle;whiteSpace=wrap;rounded=0;fontSize=9;" vertex="1" parent="1">
          <mxGeometry x="263.81" y="125" width="27.62" height="30" as="geometry" />
        </mxCell>
        <mxCell id="PNhUklN0JLp1l5unrN9_-9" value="Middleware" style="html=1;rounded=0;shadow=0;comic=0;labelBackgroundColor=none;strokeWidth=1;fontFamily=Verdana;fontSize=12;align=center;" vertex="1" parent="1">
          <mxGeometry x="540" y="140" width="100" height="50" as="geometry" />
        </mxCell>
        <mxCell id="PNhUklN0JLp1l5unrN9_-11" value="" style="shape=image;verticalLabelPosition=bottom;labelBackgroundColor=default;verticalAlign=top;aspect=fixed;imageAspect=0;image=data:image/webp,UklGRtxSAABXRUJQVlA4WAoAAAAQAAAA8wEAHgIAQUxQSNE0AAAB/yckSPD/eGtEpO5Bjf//1Urzu/fCpbsRxQAVuxtbpzOms2vGZq2sGUu7pk43Z3dh9+zu6eypiKICgiDdF7jxe6Dc3/+c8z/3HJ5F9H8CQPGWqwJl8JEjyuL679aXwX37qmIZ3HzjZ2Vwm3FJ2ZvjKbzqXubmex9TapW5VXmLpsFlbs2zEFeUufUuQbziVtb2HSIm1yxrW4aIxoFlbHYHEBGXlLF53vrglFPZWuibD2IrlK01zfwgv33ZWh/jB/hd2dpU/OgmTZnauo/d8ixLcz7zsaRqZWmBzz5m6FKWVjf1YzihLK1ncSnrytKmYKkXXcvQNpT2KrTszOVCaTmRZWflY0uzDCs7a55VGs4uOxtmtmKntsxsIVp51b2sTH/EmlcVysoC/rcmq1lZWf00a0z9y8r6G63BaWVlc9HqVWVk+sPWHdWXjQU+te62V9lY00zr4kLLxoabrctsUja2HK0v7lkm5nKegOPlSKPoNHbOnn7BoeG1G7ds36Xn5wOGDv9y7DffTZj8ww9Tp1k7vfQZzZm0njGdPI06I5JS/S1lKaXG9Bminy7uH3+eMbadp/LSOPqUrxnZc/jEOSt3HDl348Hz+HepGdl5hUUlJgsKfKoSk+Uo/JeUvkbKLg2hpxG5bk44NrWVr1ZBad3LN+w5bsG2U/+9Ss0pQgmeqABM1wuX3oiyEKnnXQgtsjhWHLN5UBUH4KJP/fJuWptHH9R44G87rsZmFKGET1QAppoo4e76EBxPkp4GEKq+41Xx07V9KmiBkwFRGbFXd/w6sFGQ3lZxq9lv3tGnmSaU+olQYGt/RLhNGkLF16S4CoSgaC6ZX2/tW04D3AzYgx81ZTw9Oq9fTXdbw6Fq/2WX3xmRhydCgbHzWeHGAbGLgZTekOBxnUPvj3wVpgOOBuxGq43vrq4YUNXRZnBrMulovBE5eTIUWHvcECyzKeUnJBd1J+iP8abo7m8NHIGrAbuRbkw4PrWJmw3g1HDahQzk56lQYO77QLC7vgT7gzTLQAJs5cu7XX38gbP+u5FxxqXp9R3lLXTU8VTk6YVKwD4oRrANGkLwcxp+T1nCEeODX+rYA2/9d6OA749+FSpbDs2XPzchV29HgIChCUJZRgGxXT6DJZTp3Mg9PTwI+Ou/G4U1P1/SzEGO3D/bl46cfd4YhKyeLFRafco0ZLiJ8iUn3m3q5Aqi1zgHhlZt/dnAL0aNn/TzUAcm/rtR+PT9PdzkxmvQ2ULkbUo3ELRBulA3PQn2h1hEaQi9jTx4vaS+DsSscavQuP/Xy3effxKfnFNsQkRM7AYs/XejKAtOD/KSE8+hl4uRu4XjQNhWOUItB2L5lyzOOBPa5UnO8uTXaiBenV/Nz3/ceeV1pgmtT+4FLP13o1iLLw/2kAvXfueLkcMrHATqXChQSV9KFwOLB76EhukSM9+bUAHE6lTxk6m7H7wvQYbZQ4Gl/24UcdG5vq5yYN/hSCHy+Kw/CNyrRKC4MMpMZBkbTKj6TlLme98GgTj1oZ/OPvWmEBkbJmtY+EehuAuPdLDnXq11mcjluCYg9BAU+LgjwekUk4RQQrlYCZnvfRsEovRsNvnwKwOytyxzAIb+USj6zHW1+OY75RXyuWgMCD5WqBlADE9gklaf4PtAMpaH3waBCDVB3ZfdykJhj3gDQ/8olOKrKb780na6aEZOb3diYEeZIlBOa0o/I5P8jgT3q1KJmRECwmvK9V7zxIBCP6wGDP2jUJrmi520nApakI68jo4AesPBlFkC3fWl/IlMS3oRHE9II2FBOAjv1211dDEKn9ENGPpHoWTTFwRxqcN15HbRl0CvfnceZYlAK4Ho9S8bywCCdp8U0lbWAcFdIhfdK0Qxmn/VMPCPQilf68Afjxnvkd/7XGjBp3ES5W9hSvpRmmWxwWEE2CS+gv2ROhBYGzb+bDaK9Lgn0P2jUNrvZ3hwpvoBE/I7qTGQXbcgjqBsFuZ1ZcokZDyJskJspmv9nEFg107rXltQrIlNgO61HaVuOlCdJ5puj5Dns4Gs+dmEOIigiRJmv56gP8RqAWWOyKIn+IHAFcacy0PxmqYA3XWVRXKIj7ppuOE4MQ15fi+E1isL0TyAYHdIEMt4IFZ+w2o1Zaqo0v8IA2F19RZGm1HM57xojouMyMO0iY6c8FlRhDwvHgnkav8joqkvwfGEICl1KH1LWG2hjBNRyT/tdCCoc4fNySjurM5A1k4vQj4WrfDhQqWDFuT6aQ+S8w5ERGNvgssFQU47U1Yi652UYeJ5MtodBPXoczwXxb5aRxuUjby0HKzEgdqXke953YE8uviD4h4E9yuCTAei331m+3SEviaRpC+rDIL6fnHRgKKPqwXkpm+Qo5drS67FA+T8PidSjZf4oaErweO6EJnNKe3zmZ1yInQvEoX5fEcdCOk/9lYJSnAWkIMuIlcftJBY22jkfFYHoDpswY8WdCJ43hTiqjtlDjK/7kHomC+G+Kk+IKTfmNsmlOLzSiS7P5Cz0W0l1ekl8j7KgfR5/sdy2xK8bgsxE4juV9nd8yW0zBbOsKcBCOk7+l8TSvNnIPfJ5Q2+7CShDq+Q99kdgOp/Az+eE0nwuStAditKkwx2TwMIDdMFezrcGQR0H3LdhBJ9UZkUeg/5+6qDZFrHIPf3OZKmWEprRfC9L8B1T8pUZP8ymFDrvUAFG6uCgE6fnSlGyS4Aqm4Z8jgmUiKNnyL387oAteoLLDWb4vdIgDlAdDolwJsQQrV3wjwe7ADs7dodLEDpJtcjtU3nEj5tLIlq/yL//3GhaH5HK1qKJjuSUidFgPjyhEpvhchfFwYC1lmbgVLebkdxPYqc/reaBMqdQf4X9QdqvUQBHrK74kH5FgVMCCWUjxPg0QA9sK8wKx4lbegJ1AEGXuGZcqJz34YyeMObov0b2fneZ/czEB2PCZFcnRD8gplhcxiwdx/1CCV+24fidQn5vc1dZHZzTTJg+Q6oDZOtyWlF8LnLLL0JpXayEGn1CAFPWb0c5QjMde1PlKDUZwN1cDHHTHPsxDUyH2XwRWWKdiVam9eW4H2H2VkXyncoZGYTgt9DNsb9dYB9tb8zUfJZLSju55Dn+SNF1TIe5XAZUOskWVXQkeD1L7NJQHQ6IUhOJMHnLpPEiW7A3OPrGOTgFXdKt3yuYXxLEZW/hnKY3oy0GK0u7ELwvMUqqRal3ntB8tsTvG6zuNgSmGvbnjQiD+cC0W47cv5qiGgc1qAsHnakhMVaV9SN4HGd1T49ZTIKWvgJwfMmLXdpIDAPXZKOXMzvSKmZyDtc4yCWEYWyUDIEqNPQ+uKeBNeLjIxfANH5jDBF3QjuV0nPBtgBa4cBD5CT0cGUScj9whEiqfsSZfFxMMX/LsHYm+B0mlFMKKVxujDFPQhulwjG/TWBeY0tBcjLPTqCyxn+4cu6onDdj/K4CKhDSgjmfgT9MUZrNJRfUdiSXgSX89alTXcH1q5jXyA/pwCxfqoM4H5XMYwrloeslhSn40i0DCToDrDJ7wJEr5sCGT8nOJ+16n5XDbCut78E+WnoQvka5bB4nAhqxaI8nnGhtMqi4CCCJorNdS9Kp3yBTH0oZ6wwRoUBa9dv3iBP31Yh6HbKAsbWEsxhC8qj5Tug/oHkEQTYwmY6UFeguJxOl5Y23Q1Y1z9Ygly940UIeCwPuMVBqN55MvE2glLhOW0CZQ2Td3Uo5Z4K1pdyqpQHn2qAscvXccjZPVpCk0yZyOstUMB1lMnd9pSRJtqvlD+Y7NFTBpaIzPHkR8x7w4F1jahi5O1fQBxslgm8HiDMZLNMGIcB0fEY0n+nzGFR3B+I9rtRaHM/yokPcmZ7AGP9sOfI3wmU39BaU0H6u7iY+9dOHzmwd9e2zes3bNmxe//h4xf+/T82ISWryCwt82RBwp+jTL6sRGmUxmA1ZSqLewGUmkmCmSgOH8QO1AHj0LUFyF/LIMo2REthSvSlfatnf923faMaFQO83Z0d7O10GgAArc5e7+ji6RscVqfZJ4MnzF9/8HJ0coFZEvg8XADNYpTLLTrKr8hwC2U8i5lAnYLC9SU4nkC82BgYa7r+hzw2fk6w+3XbzBEdawW62oFI9W4BNdsP/WnNsYfJBrHhYg27eolyUTIAiF43WeykDGWQUp/icU18p01rg4Gx128ZyOWi7gSNXgPSdPCt2eXbv/55km4S0du6zLQrUS5fhFI65rPYryN8bqTt0VM+yRdBH4LTth+cgHGD42bkc2EXgtQd/RsMXHD0WZZZHPinllXjFNnYoqP8gSzPORO6FJKKPgeidh2Kzq6yDtjaD3+FvDZ05cpHHYKaDV9xJckogncNGWlXoVwaBwMx4BGTO96E1jmkWz6UsNciMPYmMA/8swC5XdyTPx91q9Fv8dn4YoFwlY5NvSTZeF2F0t3A5FkgoUE6aQpQv7GIoOQzUTS/hBw39+PUh85hvZdcS7UIkVSPiWYZyuZee8rfyPR1OUJYEuVNVYrbBRRhcQ8ROIxNQK5/xbEP3euP2f60gBkuYlL1tWxYxgAx8DGbtxUJwS8pq7SUDrliKOomXNBqA/J9KecAQBfUef71TEYvw1hMQ9lMrk3pZmCT1oDge4+Q1QaI2nUoxsIugjW9hLw/YMe9Dz2aTz+dYmGA0xkE3JWPM86U5cg2vyPB7TLhiBOlerwo8jsKZDf8DXL/WZAsAIBznfFH3tH+86MNKJaPn4Hoe4+RsTdBf8y6on5AnYqizG0jjM+SfOR/fke5AACH2t+fTCUU9SHp96Js5rahtMtjZBlI0Oy07qYPxee2OLKaC1LzGMriUhkBAOeG0y5kWYO77Sn1UuTjvh9lNrIeS4CVVlm+B2rfInGkNxLi0/9RHmMqyQoAuLVc9LC4tOR6lJ9QPtdoCK6XmM2jzLbqeUWKw0EU5/ta7JwmpqFczman1XuXD6vWoOPng4d/OWbs2HHjxo4ZPWpY/x6RNatWDnaz00oFAAL77Xz7MfyJ4H5FPkxDgFg/jdlayrdWzQVq8wyRJFZhFri2GGXzfSeS1qNi7R5fTl29/+Sdl0nvM/OLTRa00mw05KalvH129fjePyeO7FG7opdOAgD2NSZdyvvgqod1rbLlI7E65WtkvoMywGzF21qkP1Ck8eVZ1T2LcvqsTWlaz7COoxfuvx6XZkCRGtLj/j2y8tu+dcs5iAwA3D/ZmICY09q6OSifp50JdnvZHdMTOhdYsUpLCXslsW7PUF4Tf6nlbu9bree0XTcT81GSJekxp9d91yXcQyMmAF3EtH9L5lvlflVGZgGxwkt2d7wJjTNKS28B1Gko1jchTBy+TUXZTb5+8l5yEUq9MOnGlu87VHQUDwD49pvoZE2jdPko7ELpUcTuRTAhLLG0XXpKwD3RvAxm4bPCgLZ8/pvTC/tFuIkGQKex5nuUz5jylMXIPqEiITC6lJxOQB1pFM2zQAZhh9H2NyZfWda/mrNIrNYfkJH99gS3KwJkNCZ43ijlkBPF7TyK9oEvrcUdVIjGxLOzOgdrxVX+hYz8AMQ67wUo6k5w+Odj+T2A2r1APLe8KJp+r1FJFkRvG1nDSUSdC+Qjtw1lhEUAywACbPnYSVeKw14U70VXguPkTFSa5nenpjV1F8vPKJ9PgyjrUchvKQs+YugH1MhMER3TW+e1oggVaeaV2ZEeYtAflpHddgSfe4Iso3z7kXMeFN0GFPFujVUV9lpQseZcn9XSXbDgaBmZDMSmWYJspfQzIWLRAKA2TBHTDrC23mVUttmXp9d3FKZVjnzktaWMR0GP6wltcxHxvAdFswLFvNWajk9Q+b4/PqayVoCvUD6flyNotwpz35dQMwWxaCBQayaIal1pmmGJqIjNr9Z382a2QkYO2hP8HgrzOoRQ7iXieQ/SQhT1slL0k7JRMRf++2NtOyZOp2TkJyA2yxImtQ7B8xYa+gO16mtx/fYxt4UGVNTvdvX2YRAULR+GrpSxKKyhK0F/DE+6kWaiuL/+iP9mEyptw60fqmkpDdPlI64yQbNJIMsgAqwv+gyolWNENuSDKkdRkcetaeNkXe8S+TjrTPD+TyCcTpl1zIX0C4rbMgAA6l1HpZ59bICvNZNRPpcCsV6aUGsofboAtUqMyIy9ASIfo4Ivvj0htLS/5cM0hDLELNReLcHNgfQbirzwE+j+CpW9JXpOLc0H+mPykVafshyFvuFJoIe9FFtWyyHJqPzfrmysBfD+Tz7u+xJcLgj2Mlig2Sj2tNUZqAqmrGwJFePkY5eOUDlesJSawlR9JTqzCdXCDGiUIR/TgPipQTBDV2Hmo4oLXQ2yYfiUMh2FHyZIzXhVZwTK5ttwgi5KBLOF0K5AVWe6fFxzJ/g+FMEWIRonqzvL5WM9EOunieCUEzv7TajqanbKx3eUgWYRPA1g1y5T3XE6IRsFHSmLUISJYcycDqC6631DNuIrE/RHxJDfgdlnBSpPuaeycdmNEBQtBssgVh7nUOUNj5eN9UBsmikG/I3VqBK1p1GKbEygDLWIYiujcvdR7e2QKReFXSi/oyjPu7D5BVXfXvlykVyDoD8ijhdBTGrFqT9flMjFY39C4DNxpNZhYbca1d9vzHJxwpHQIF0cxT1ZtMtQgX60yMVqIPY2igPHMXA9iirwQpTLyZTvUaR/MRhWpAatkouS3pTVYjloRwq5h2rwVrnIaETQHxXLQz/SbFSFD8jFyxCC//9iSapKaZykDp2Si8tuhKpJYjF0ITjtRnX4klxs1xA+KRQLfkUYWKgS3ZSLmUAcgaJdbl3wHVSJ75MsVx5zyTKM8rt4DtlbNQvV4ickPFfvxxgO5bYhaKPE89jPmqbvVKMXtOIhEDb7FXfehhE8b4knOcIK14OoGr+h4XVfgOoL4zhzx5tQ4Y14irpb8VWxepTIwDgWAKDWskSuHLQntMwWD35TWng0qsfvGeDdYAAATb2VyRxZCsT+ZhGtLsV+DarI6Swskz4A0DZel8qN8ZQfUcQnHT/WM1dNymaBT0I/AmDXfEsGHwxdKZvFFBP0kaCbqCbnMcGfSwGwb70zmwfvaxOcz4opo9EHmrmoKheyeVm1NACHjvtypfckgBAUIyZT/w/apapLRWxwgTUAjl2P5EvttBOhTqqYcCYA+JxHdbmEUXxtqwCce54olNY6IPYsEVWUFuBni8pkYoQrtNYBuPU9WySlqZTxKOr/vKFVCqrMZlbvGlEAPAZdLpGMsS9lpbiSwj3PoNpsYYXr7UgA3sNvGCWS2ZRgf0hcRd2mmlWztFYMAHxH3zZJ4lUFgt9DcVmi3qJ6vkPPAiDgm/tmCVxzJ1RJFBeaUEXP7sgGIHjSY/Ht0hI6FohMXT/ozAigwvRosc0F4jBLGUZ+D2YAlX99KSrLCMp8LMs86cYOIHzuaxHltSNodpZpGAYIARCxOEE0SVUJHtfLNPCSlyCgqb00QST3fAjlX5dtlIwQBkBTa0m8KI7oCc2yyjbwlr9AAJpaC16IYAUQ+5rKOExfCwYAVaY/NAn1LWUqlnU+KCcCgHJjLxUIUtSdsqHMw/KDKAA8uu96L0BqXYLTqTIPfFZJHAD6RvMflbCKDiIERpd94G9iAYCgwQffsznnTKiZUgYSW108AA4Nf7qex2AjELsXlYHgIo2IAMCzwx8PCyk/UsZgWejbuuICgIBPl98vsMY0gLKiTARXasUGAP6d511OKyW7BUG3v2wkpYkEAMCtwTe7nuYhYlxFgs+9shHcZE+q3dlRBABgF9Ru+oEXZz0IlRLKSDJak0KvHersKIYP9SFVdYR2eWUkGOVAga8x90A3F3EwHGwpK8n5hOR7DTH/RB8PSczGMtMjLhQYYEBEw+WvgiSwveykoBfJ+SB+aHr4Y3WtyNyulJ3gGXcKtEr9ABHj17R1FlW52DKUosEk7R+lIGafHFVeRI0yylDwqi8Fwp6VhmiKXtraVSyfG7lhNqlgxnEkGFNiBSJmn/8+wl4Uk5Cbj0+rYPiwPMntmHWI+HbPsIpa4dbxY0PXPBUMfyVBq/cURNPLLYMq6YRxOM4Ny1cOJ9SwuDokzVwaIhpjd46q4ShAwFNupNaDQSUqGK6zo0DgdRaIaE46OaONv4ZR9XfcuOgKgY/UsMxOJOiSyebD3IcbRzf01jDoauDGzwCwQA3D054k7RJ2iGjJuLPh6xbBesKXyMvMZgDQPEMNM44nQbmbQnw059nx+cMahjhqSlnKjbMuAOB8Wg3D6HASdE4X6kNT1vNzqyf3bVjZXW+3hxvfwYdTVDFcaUfSzLKI4OMlWW9untwax4s34R9plK6KZXcjgc9p0XB2rfYjrpdUMbwWQIIm8XKU0x4+PlMds8zUkOArgwz941zKJ4WqGKa0pjmslp/iQVBq+ZfqGJ71IUG5a7Jzw6c0+0MqmflnGrRMkBnTGLByhkqGKW1oMKJAXu4GWtO9SCXDSwE0+8UWOTF/A9ZWS1LLcLGOBN6H5eRuoFVed1Sz7F40CP9PPkxjwWrNDtUMH1alQWS8bFz3tQ5mqWe4y5UGg7JlongIEIda1DPjFAbaacXycNKN0sWgnuH7zjRwWGqWg5wuQK2erKLhvXAaeOyUg616UvBLNQ33eNAg+BT/EhsA2fe+qmaaqaNBlWvcmw10p9OqGmYPZgC173PufggDTZS6hm9aMoDmz7lWNAxYblbZ8FZlBtDuFc8OODNZo7bhfm8G0CmOX++aAtM/VTfLCkcG0DWBW7OA7WLZMBflZ6cmxsfFJb7PzDcYFRwW/aBlAN3ecupmIKPZMmBIunts2c8jO7VoXDciPCwsok6jFm0GTl2w998EgzLDrCEs4NN4LuX2BMZzOJf7eNe0LhGeDsDS3i2887T9MQYFhkldWcAnb3i0xp7VYp69PzWjtb8OhLUP6bH8QZHiwphmLKDDC/48CQPWK7iVd2lKPScQp3+vrUlKC/+ryQJaPeKNYSgwX8WppA0d3EHEdnXmxigsvFyFBdS/xZltjuw2cSnh9zo6EHuVX2OVFZ4oxwKqneNKTASw38Wh9JW1QJLVV6QrKtzvzwLKH+CIYQSwdzzJHeOJNjqQqLbdWbOSwp2+LMB3tZEb2xwF8LnLm8SJHiBh759SlRRu9WYBzrPyORFdHQQMfsGZSy1A4h1vKynLBk8WYDfmPRcKhoKQEclcKVkfDJKvtNuknNCywZsFQLfnPFirF6SrgScFM52Bg+6LipQTWrb4MIEGl6T3rBIIOtTCkdwJdsBF/Q85ygkt2/2YQMg2o9Te9RVmLvIz/3sdcFI7Pks5Ie4JZgKuv2RLDJO7CaHbw4/in3QgrNbB1a9ClbCqVSsF+7jqtYKAdmyOgsJjFZmAtt9LieHT6gL4PuTH347AXh/cYugvG07cePjiTXzC29fP7t88sfGXgQ18NMxAO6lQQeH5akwAGlyVGK63Z1cnlRtn/YG1T5ufDz/LMSHdmH533eBKWkZgN9ukoPBWQzbwq9TSm7Prb+JFQhNg69Ri8Z0cFNAYu/4TVzbgukVJ4ZP2bDZIDZewW4KcNE0Apu79j2Wg4Hmn+7sxgeBLSgrjPmehPyq5O16s3K7w4qwXC32PUwYUpeGfDjoW0CxeSWHaeHua3yPJpdRiVfs9J/K6AcOwtXko2owl5VjA6CIlhQVzXUkVEyRX1I3VSDMnDjgy6P4IRX29DQunHYoKTRuDKJE5kjP1ZWQXhXws6A5k+69TUeSJo+xoEBGjqBBnU/qaJGfszSgsjhOX3Um6yfko+ryfHGnwtVFZ/UyZgJLPiWQ00syJyUAem4sSLJrnRPM4pagsQyirpBdbno3+APIxpTapXTJKsnimngRdcpRUXjuCbp/0DurZNErlxFlnSuA1lGjhdxqSfoeSSo4geN+RnGkEsF2InJwD1GkWqWD6ZyRoma6gngQQQl5L7k4Am/LPOFHSi1L5OUr3aU2S/TYFdc6Z0ChDaoWDge13Zk4kR1DGWySEUc4UaJOlnLZqCL1KpPannk3wfeTkkwCC8wmUctGXJMcjymkOEMegxHf5AtuJFl6cdiJUT5QUPo+gQP9ixfQlZZnYzITCP32BbYXHyMudQOxeJC1cqaP43VVKhV0Iml0iK16wPNUK053BDsBWsxC5uYkyDiX+vhkFZiul1LoE9ysi2+ykbTz/RkpBUVFu7MERAcC6TRo/1lB+lBpusac0TldIMcGE4JfiuhoCAOBeq0W3T5qG2gNzv3PIz1WUXyWXEUlxPqOQrrgRaqWIKq45iNJ+GXJ0A2Wa5HClhgA/KKQ9WsKnRWLKGwLi/LKAJ1spE6T3KpzSMF0Z/Q7EL1DE5jk6cfROQZ7uoIyUHk6kuF9VRl9T5opprweIsstb5OpeLaFnsfQuuxNgkSIq7knZKqLblUGMmn4JyNer7oSW2dLLbEbpUaSEMhoTnM6IJ6E1iNHh+wzkbEwQoUq89HAGpXKcEnoTSgh4Jpr84SDGiusNyNu3lQkeNzhwzpXgdFoJ/etFCE8Si3munQgcP7+L/M2JJGi3cuB9XQL8roQO2RM65ItltwcIrmsWlY8cNg8hwNccMA+jDDYroL+AONAikhsVQWinthvfI58XU5pmSg9XUBpnKKDJlB9RnC+bgLB24V8ezUZeH7YneF7nwGU3QlCM8jH1o6wXh3l5hJcDMzvfpt9ExZmR38+CCPArBxKrEZxOK5/sVgT9EXFYCpLv/bN0+rDI+lV8XZwdHfT29g6Ozq4hdZoPnbXnfhbyPa8dpVGq9AxdCLBB+bwNI/g9FEeppoKMuEe3Lp86fmjv3uPnrtx6nppnQhn8haLfKT0cR5mmfO77EkLjRSXXp50I0DlXessoAy2K54QjoWW2DZRci+K4S3qH7AmfFCqe9UDsa7KBcDIFmiVL7o43oUaK4vmJ8j3awpfdKZrfLFJ7FUIIeaN0LEMpf9tEeR0o4HtWaskRhICnSie/PUG3zybCdToKNH0jsewWBI/rSic5guB12zZKaUSCITnSKupG0B9VOk8CCCGvbSP8W0vSzTJJyjKYALuUznkXQsN0G+ldAxK475QUfknZrnS2aQifldhIuM2BBBVvSmo8ZZPSmQvE0Wgr5/ehQcs4KU2krFc6X1GW2kx4K5AGQ3MlNJ2yRuEYuhA0O20nXKSj6WabpPMr5W+Fk1aX4HbZhsrpSwP3XdxYpXBelCMEv7Ch8HlNGlS6KZmfKWsUzlV3Qs0UW+p1WwbQMk4qMyjrFc4eHeFTg+1kOdkQmA7NlchUykaFswSIw9BmzprrA2y1s0zSmEzZrHC+ocyxmR711AJjp2kGaXxH2apsSj6jbLGRSnaGA+sqW4tQml9RdiibzCYEp9O20bsJLsBY2+0+SnUoJUrZvAklBDy1ia62BtZeMzNQquZ+BPvDyuZfL0JYog2UvyIIWNc/ZkbJFvckuJxXNoftCR3ybZ8XQ+yBsf6LWJRwQUeC5y1lsxKIA822jvlIHWBd7u8ClHJWc4LfI2UzhTIdbdz0XzyBdbtrKO33tQnBLxWNqT9lvY1zt6sGGLtOTkaJv61EKB+vaHJaEeyP2DRFmyoB6+pRRpR6TBAhIlnRJIYRfB/YMgnjHIGx7vP/Ufp3vAmROYrmgS8hNN6GOd8MWPsuyEYOnnEidC9WNCcdCS2ybZbcxf7AuslpC/Jwt5bQ36xoNgCxj8lWedZPB4wdR8chH/8C4nhUtD9TvkPb1LgvAliHrjcgJ3+h/K5oLMMoK22T91PdgLGm823k5kjKZkWT34Gg3WuT3OwArD1+TEVuGroQ7A4qmpQaBK9/bZDC1SHAuvZBE/IzrT7B619F8zSQEPLK9ng9Sg+M7QZFI09flSeUi1U0510IDdJtDcuJhsA6cFkecvWGB6FemqLZriH0LLExsub4AOuWl5Czu3WEnsWKZh4Qv0Lb8lFPLTB2/jYReTsPiF+ioh1NWWJTlOwIA9ZhW4uRt5bhlN8VjaErQbPDlkj63hkYa3vcR/7mtiFodyuatHoEt0s2xJVIYO09KxM5/KYSwfs/RfOyHCHohc2QvyIIWNc/bkYeX3QlVHmraK65E2ok2wovBtsDY/3wWOTzaiB2LlQ0e3WErgbbwHy4DrAO+bsAOT2eMhoV7VIgDrXYBOk/ewDrdjeQ13ltKCuVzbeU2WgL/tdFA4zdpiQjt6PLEVzOK5qSXpTNNkDRporAuvpuI/L7gD2hYpyiyWxKcDwlf/HjHIGxrs//yPMZQOxcqGjiKhICnsreuWbA2m9hNvK8oBNlEira216EKokyl7vID1g3OWtBrkeXI2h3Kpsj9oT2efL2tK8OGDuOiUPO79AR/B8rm7+BOMAsZ8a9EcC64gYDct4yBoiROcrmB8o0lPH3P7gBY80nd5D77+tSJqKiNQ2grJOxm+2BtcdPacj/864E3R5lkxNJsD8sW4WrQoB17UMmlMEZQCz3XNkkhhN878vVq5F6YGw/6DnKYUYTSjeDsnnoRwiNkyfLiQbAOvCPPJTFC66UJahsTzkSmmfJUtZsb2Dd6hLK5HQget5SOBuB2MckRw97aoGx83eJKJPJdSnNsxTOr5RvUX5LtocB67BtxSiX+/WUGahsLV9Q/pKfpO+dgbG2xwOUTeMQILpdUjj5HQnaPbJzuRWw9p6difL5JITSIkvhpNQkeN6SmfzlgcC6wT9mlNH5QJ2NCvdZIKHcK3mJGWwPjB1GxKKcpjSgeN1UOhdcCPXT5MR8uDawDllVgLK6w57SOV/p7NAQehbLSPpPHsC6/Q2U1/xPgahZg0p3PhC/RPn87xMNMHabkoIye9KVUuWV4hlD+V02ijZWBNYRe4wos4Z+QP3aonQMn1J2yEX8WEdgrOv7BGX3ggfF7Twq3bT6BNeLMnG2KbD2W5SDsls8FKhd8hVPbAghKEYWchb5AeumZy0ovxe8KHY7UPFe9yBEJMvBkz46YOw4Nh5luLAPUBulKp99OkKXQv4Z91QH1hU3GFCOj7iQlqLyXQbEoRbupUxxA8aaLndQlrM7A7XqKwX0HWUW8v5GO2Dt+VMayvNGPWkWKt+S3pTNnCtcFQKsax8yoTy/qQPUsJcKKLMpwfEk316N0ANj+8HPUaYtM4D8GyrguIqEgCc8s/zTAFgHLc9Dub4ZSKoSo4TueBOqvOVY5ixvYB15GWU75zMgz0UlfFRPaJfHr4c9tMDY5bsklO+/7Ul1EhTRKiD2N/OqeHsVYB2+vRjl+3EVoOpWoyKeSpmKnE76zhkYa3s+QBkvGALkyHRFZB5IWcupy62AtffsTJTztQ4k5/2oiHNbE+wOcSn/j0Bg3eAfM8r53YpAHmxQRonhBN/7PHo+yA4YO4x8hbKe2QPIIfdQGUcHEkLe8Md0qBawLr+6AGXdMk9Hm4sK+U0FymvupP3kAazb30SZP+4D5ObJSim1DsH3AW/udNYAY7cfUlDmo+sA2f0YKuW8dgSHf/hStCEUWEfsNaLMZ/cF+gSjYjL1J8AWrsSPcQTGdn2foNybZuloDeJROU+kzOHJ2SbA2n9RDsr+Tncgux5ABb2UMowfOQv9gHWzcxaU/WuhQP++REnt0RE6F/Liyec6YOw0Nh7lP7YJ0FsmopK+7kEIS+SDcU91YF1pYxHKf3ofoPtfQEX9ugLB5y4XUqa4AmNNl//QBiz4RkPTLUJlndWMoN3NgxvtgLXnz+loAxrn2AO9X47CMg0gwC/SK/i7HLCuc9iEtuB6V6DXiUGlPYvSq0RqscP1wNh+SAzahAf9gO57EhX3XjtC9SSJPWkMrIOW56NNeKY80O2XovK+50NwuyKtvL7AOvIy2obXw4HhqAIFllqPACuk9bcdI5fvk9A2vF8HGLZPQgVuGkzpb5TS40rANnxHMdqGT5oCw+oPUJEvpYQnSKjoC2Cq/ewh2ojPWgBD/xOozC+4EByOSeiQCxOfOVloIz6PBIZOq1GhJ9UgwATppEUCy4YnLGgjvmgLDO1+NSo10xBKvVTJrNIxcBj5Cm3FmHbAckweKvZVFOeTUkmsC/TyqwvRVnwaCSx7p6Fyv+9HgPEWiSzT0DrcRJvxUTNg2TYOFXxeB0p4nDSS6gDV+Yf3aDPebQQsG/yPin4uRbtOGqu1pO9L0Ga8XgdYRtxGZX/DiwDtc6WQ2QqoES/RZjwdDiwrX0GFn9eB4vyPFI44UuxWo824vzywLH8aFf9SCvQxiM84BKjtM20F82Y/YBl8BJX/42CK+znxPQ2mOO5BG7FoqQewDDqAKmDJUAp8Xii65UDtlG0j5Ex3BJaB+1AVPOJIcT4stvxOFIc9aBumjNQBy4A9qA5mtKRA6zSR3fOlNE2zDV72AKaBe1AtXK2laH8X2XKgLkGb8HZzYFruIKqGb2tRoPwdURX3olSItgmOhgPT0H9QRVxIgu5ZYnpdkTLEaAOUrPYDplXOopoYV5OknW0W0VE9wW4nyn/Oj87ANOIyqotLNBTwPCiiX4EY9kb+4ofogGnD26gyJjUiQfgd0RR1pwwwyt7tSGDb9gmqjtscSND8pVgSwyl/osyb94cB2x5vUH3M7UGDTnEiuelB8LwlcwWLvYCpZmgyqpHXAmjQLU4c2zWEuqnyljRaD0z1E7NQlbTM0tCg4wtRzARiX6Os3WkHbF0XGlClTGnLAJreEoFlEGUmyrhpdxVgG7DRhKrllSAGUHmPSbCCTgS7vTKWM8sD2IYdRzXzD3sG4DYjVah31QgeN+Tr5QAdsG36L6qa+SNZgKbtBbMwscGEkFjZOt0AGPeORZUzoTULAN8psYLc9yXUS5Op/GX+wFb/XTqqnneqMQGIWJYowGknQscCeXozwh7Yei4xoAp6KpgNaOouiWW2W0P43ChLF5sC40r7LKgoLbzCXT5sACBswqVcNtuBOBxlOH9FEDBueQuVpcXELctmb1YA7m3m3chksIkyQYZefaEHtrrBcagwzSXcQstGH2YA4Nn42533043WraPMkB3LqYbA2PW3HFQcBn6hJSpYAADQ+tYbMGPH6f+T0vONFkRcQ/lNbnIW+gLj0O0mVJzGfI4h/hMuyEe1DoHhtTr2HzFm3DeRlJky86SvHTBueQMVaHE21/BOpGBCzpIV454IYGw/PAGVqCGdbxj3hb0tlDzZDRh7L85HRVqQzDnMXx5o+1xtC6xrHLOgMs1N4B3i5Q5a2yZvRTAw1nz2BJVqZiz/MG1esC3zdIA9MHb7ORMVa2q0DCDeGexiqxTvqg6sq+41oXJNfiQLaDjcycEmSfjGBRhruj1EJZtwVx4Qs6PaO9kcltNNgbXbj+moaGNvyQVi9pG+PrZF2kwfYF19rwmVbfRV+UA03JpRR2873OisAcba3k9Q6T66JCeI+O7AmOoONkHu8nLA2ntuNireO+dlBtH89ui0SH87uXvc1w5Y1z9hQeV77YzsfJjzePfUT6p52slW8baqwFo//BUq4fP7ZOlDQ+Lt3YvGd2tWLdDT1dFOy2Amx+LHOwPr8qsLUREfWytbHy/OSoy5c/H4nm2b169Zbf2q/7hlOd0UmHf6FxVy1EKZk+Gseb7A2uPHVFTKG36yKKtHvXTAut4REyrmPyYoqpKdVYG146hXqKBnjzMrqJTJrsC68kYDKmjLlJFG5XSrPbDW9XqAito0ukeeUiraUAFYByzORmVtGNAiVSG9+9YJWLe9gko759NaScrodntg7TnjPSrutFZh8UqoZHslYN3gmBmVd1Kt8tEKKG2qKzB2GvMGlXhsqOcV5fPwUw0wrrKlCBX5/QCHI0rHfKAaMNZ+9gAV+kV3TZTCyV/oBYx952ehUj9kDyuVTcIIe2Dc+IwFFfsGgCmK5t/WwNjhqzhU8PMAhisY0+7KwLj8WgMq+e8APitRLHmzPYBx25uo6E39ABqkK5XEEXbA1un7ZFT2eW0BKr1VKA87AOPQzcWo8FNqAPg+UCanagLjtrdQ8UcHAuiPKZGSdYHA1vGbd6j8L7kCwCYFkvOTM7Att7YYVcBdWgCYqjySvtAC26aXURWcBwAwyKw0orsAW7uhb1AdHPVB00yFcb0RsPWcn4fqYH6HDyq8URaHqwDb8P1mVAkTq37gckFJGNf6Adt2d1E1vO31AWxSEIZ5LsDUblQSqodRuo98rxxypuiBqfuCfFQRf4GPdi5QCqmjtMC0YpQZVcSS3h+rFKcQ4vsA28bXUVVMrvkx53PK4FlHYNvrBaqLNz0/BssUwb2mwFT/fTqqjGs1pfQ3KoBbdYGp++8GVBnNI6HU6km23+UIYBqyw4xqY1r90lzO23xnwoBpzfOoPt7yLA3m23pHQ4Fp6weoQv4JVnYusO0OBAPTPnGoQhb3tibwf5tufxCw1I1ORzXyZag1mg223P4gYOn4Ux6qklF21kDfEtvtQBCwdFtWjKqkaQRYXe6ZzXYgCFj6bjSjOvm6inWa1bbawSBgGbIP1crtdtbBp4W22YkQYBl2GtXK4v5A9L5pk12oBCwjrqJq+SCQAtNtsRvVgGW926hezgNyzUTb624dYNn4AaqXqY1puo0215PGwLLF/6hi7tbToF2OjfWmLbBsE40qZkEPYOh83LZ63xtYto1BNfOiBwvoY7Clcr8Elm1jUM0sGQ5M3c/bUEXTdSzaxqCqedOXDQwutplMvzsAw8jnqGqaxgBjz4s203Z3YNjsKaqbt/xZQX+DjXQhBBg2fITqZskoYO520jZ6UhcY1rqLKucVb3bwaa4t9O4TYBh+HVXOwv4goH6HDZQ3ChhWOIdq5yEXIaBJss1jnmfHwO8gqp0Z7UBQzXybZ78n0N02oer5p04YCLln49wLB7rjUrPq8SwchB5ssGmSOwJdO70Y1c6SMSC44zZbxjAeGA7PQdXzoJtwEBFjw6xyYNA1GVXP+IYgxlFFNsu1ckBvEI2qp3ECiNJxk63yrg3QQ6+i+rnXTRxQ+b5tUjIB6O67UP2MrgFi7ZZhk+xwodnNN6sfuQNAtJrpRhvkUTjQR+aj6mmeZycecN1he+T1A3rkW1Q/D3mBmEOv2xx/29Mq/Yvq573qIO7GL2yMuxWB7LID1c+EtiD2Xmk2RU4voE81qh/ZQ0D8o/NsiRV2tK5pqHoaJmsloJteZDs8qgTkyvdQ9TTO14MUHReU2AqGYUB22oyqp3mlK0jTeZnJRtjjTBtfrHpY1nmAVF3/MtkECQ2B3Cge1U7LZi+QruuyEhvAMgPInv+g2mle5wVSdl5QJH+3AmkzzGqHcaUHSNtxWp7cGQYDuUUyqpyF81xA6trRaTJ3xJXkeRJVzuxJeuDgZy9kLaMdkCebVI6EIVrgYuPrcrbajlQvHtXNe22Al6HbjbKVWA+ojrtQ1TQfqgb8dJ2WLlfLNKSBhapGzlwv4Knm03vyFF8LqMH/oZr5rL8OOFtpo0GOFgH5V1QxS/bUAP46jnwuP68jSHXiVYy4712ByxFbC+VmEVDt1qNqWXygAfDacdBdeUmqS2qXqVo8He0KHA+Z+05ONukoTvtRpUxfEQZ81zTeliMb+V2B2iNfnSg82EYH3Nd3PWGQieteFNcTqEaWXOrrDLLo2vd8sSz8AtRehSqE8eYIb5BNj4FnDfzLaEpx+QdVx5Lro/1AVt16H83m3RV3Suc8taHg/DAfkF2ntuvf8m0eEO22obr4flc3d5BlbY2p1wv4ZfiUUitJTSi+P6eRHuTbq8vfT4s5FVuRMglVQ9OrrX0DQO6DP1/3uIBHJxwJzqdVgqIXO7+orANbUBPQae65RCNvFgOxTooKYE69ubxXBTuwIZ2r9l1yNq6AI+ZhlOEWhVf87saa4fU8wQZ1rtTp2w3nX2eauZATSVmDit2S9/bWrp8+q+EBtqxL+cYDp2w8dv9terG0EioT3K8pMFNu8rOLO+eObBfuqQXbWO9TqX7P4ZP+jDp8JTo+MTXXaLZYRHbPh1ApXhlZTIactMSX9y4cXD/3m75tIgJdtWCLa/SeIWG1mncfMe77Hxeu3nvm/MWrt/57FB0bn5yenV9kNJnZnXEmROYoDIvZbCw2FORmpr6Lj41+dOfauaNR6/+YNfmrAV1b1goNcLcHzgMAVlA4IOQdAAAQnwCdASr0AR8CPpFIoEulv6MhorGpa/ASCWNu9ThREJ80b+m8Ux0Z/Q9YbuNPGP6044FYwtV/MvxI/LnyAOQA/in82/FH8ndv32c7LEP0X8Uf5XdQ0efl/7Z+63lJxv5q+8flD/e/3U6zbm37X+uv717wfJ3snz6fJ/1r/vf4L/Lfut89f9f6mv6p/tf+D7gP6m/rd/p/i9/zvUx5g/2r/dP3gf+d+3Xug/x3qB/3f/bf//12vYs/ej2A/5T/xvTl9kn+6f9P94PbJ/+3sAf/j1AP/v1e/UH/A/hV8cbmhfjcL7O/3/L+BkcllVZ+0+gB6R3d01Av5J05fQA/TkUJEmNwa8e1V480Ie1V49qrx7VXj2qvHtVgYwJ4v0tePaq8e1V49qX2ctzK3thP7IvS6lSLXxpsjXYf76Gp2qsre6LnWjJKpNYZSYnZvljd/1MeCtUrZ5I1joK4ZpPq+oZFnEXQ+GrAhDwoBVW1lDPariIuyEaUFB0yIVlO0xzEM6JWnZk9xneRCcp5LNxJPEjlPlkbhp+XqTYCLq11eZybxOSlGJwnaoMtHoda6IDWlVJp9t0TsogAs1S/n6ghZye5037FV2Z/1cMi1pV1VbpymYpF+sp2ZPboG0K5yp4VmpFCwRx8nIH0dsI8A4wP+icktqwYdn1VLIraGASgVY81mrrUBBaWYkSYOf+GoxaKMD4713ADbVnXMilrqOMvdZaSxkf39GvQFrV+owlTO+w3M+q0P+qouDlP5escCZy7L/MaRTPnY/fOx++5S95/ZXpSIXHo7om7awATjInY/fOx++dj961DhbXvrOlIbBr5GqY+vB/987H752P3zsfvu2+RSnZoFKEcZMj2EpnBkw+DJh8GTD/b5B9oZpykbfrnjmhG+Y1jOD8rpLnsrEKGJ987H752P3zsegfJY8Aj3t0Z09GCWxHE5987H752P3zsfqwb/oKttO8oeWzL3MfWSdUK+Y7U1MFV1jZ3DLJX+oe1V49qdIA4ZMzyXoyAYHQiL1MJlWfINhU6XbczgD987Hvp1XTJACpSiPUzfgiuYft2cnQJX2ntMwR7VXj2rPG+zhoXCwr868Sl0AbXFI5B2H5+nyf9n2yywjXj2rPG/pOyj0I12GmvYq3tnlDPdA2xPvn/Ze7OS+158KK/LEaMFHTk9Z2l78J7wiu7hnwZN3jf6wrLa7H722vw5bSJkfAXGbB3GGhvd4m4pnBkxbdtXxlL31UYdDgZAdIdeRG/CVXHr5Gaqdj987db68xuKEFkiXoZZhVIIupKSGngyPsdwwPE7H752630Po8ETeJAx1fUqllPrJ9IWh5jQqTODJh8Y19P+mgYrJIHTiDDgApbnG1Xz5/WHuhfx2SVLx7VXj4P8cCY4NUkzU7SajGL5MfFJeDAoD2tdiSyd4vD2qvHtViu/pSYg6Bw7Bgde+XRO2sVHTQaO1nYSMoAhI1KiBbYZ8GTD4MmLcMsKiIOXHAbC8aT63WVyrKA/T4149qrx7Y8x1I/GiYvkC5EA6ICWSYHhnwZMPgyYc0L3jfsv0xecpQP/sREryxTODJh8GGkprQzSWcH9V+jrIsGjmfBkw+DJh8GvJKJCYXvxaSsuVUusF2Paq8e1V49mij3tcQrbakeXR0b0rTln2zQPVXGJnY/fOx++diW2bp2qzBo1PhhzZCoC0kBYQjXj2qvHla1W2T36AAA/hSgAChvCSJM7ESxh7Ja54hA8eV2h1wur97rFdrEAAAAADs5IBBNtwnjpe5EbDhQM2M8AAAB9m+6EQpWXOOndJPQ2lCG42uMblIeCEw9yaSsXLpu34tIc/vII8ZGBRY88yPyuGdvf4nZyOip9/tnn8k21/MrZO45s6DCq+xEiP0yE+aH/+q5dY8+3lEuLxonfaaGX+hI2TZZvEF+JQAGkCJNtBx+qC8B1oK/jGdR66Uu3LLAVrFvCtjgbmlGQF+Wuse0KfDBHy/zVe9tjRpA5iXIRB2hukVsCQ24m4cqX//gkCwY7a5SpKyyi7LuaQXi+nFBwStV8HTQdHbz0CCD9YV6Oc1tYEs71jYIOkdQP+c9EsKHV9nKE1upL5CBwpJMHQeXk42/V2Azq3+H+jEeFcmFkaJFvqFa1ju0VeTv/wjlWwhCH8lcIfTcZerAtVltKUcRubg6uyNdEcHNtdnggR7IOS51HQj//tpgRCGDu47JvY0Y8097luyc02SIedhQm3QRhqTX5ThvW9/rclPJKmxffiPZPEJmrlROnOKCXJCV/d9oCUxmEQkcvFU/IofUhSSDKlhmkPQHEBZtALscENVRK8kO3fhTBHEcORbRA63QLmwu13mt7VnYWSJOk3lfEZR0UUESp9iTlVqhuihehltGXbm+Tz//5klxFWa0b7Y3xaFyUBzuS8pmpGqX3R4WSHVJ0NFkttbcjYPTrcXz+hJjWpSHKaQYL7z/UDzSDcvuM2Haiv2jzRVS9GiB/1bTzh1SySwt1qLdCRn0v45lE6g4q03Jc85bqy2IWhuD0Hdm6GjvvjjgucMTeQw3d0vpX4Rt5DhOpkshXIxtYUJaRrgdKdSU/AZpaxy2Gn1FVnsHeG0MXu2To5K6JxGLuup7lfjsjyv/XgoIwVuhZ0wexwP/5Q/0TVTQzderxGKyMGdtOlKFmRllLvgUjPndLP7aGvW8j1M9argaYPPvnzl+8efBCYNDh6voz2fJsopZ0Z283qVh+ZLWuf3A3TH3RtZdO58NEYrOrPKSQ4vz/t1irh4LiytvvqZ2cZ2x8JH6z/vzla1L8rzIqNJnKEUR3zG6cC3uCRdbaKiN1qdKXNt1Fr2CPOTGFPEMOb7r98qih9iSJS3pLIHivrjKXAtScDGgCRmNrI4wyfqCgfz1QPujjthloWUXGbCHZ4qAIflVpDvm1GDcbQkaW25PGUTdRNWeaQ/np2YDhvwYv7bheYhKoyMtrf6dpFUTZCxZudKfyIgepDb2LGNMkx+n/onjmJY9xNnJrhM7adlts7Eg8EnlJ/hRiEcz9F40m1UrDxijxj4IAlj0zrC8n5J45ULYpqSuB/szp4qSgkEj5HOKkn6eQd/TWmN7pTM/MXorvltffNK92koEX7iqXauL+Rvu7dC/53dISlcLKcX6Ux5heQkUk6H/f14wlzkbMBRbxPmvUX+BAcj/6uPL6d1G/07VIiE8bWHTD6GAIIfzr+hUEEnaqToi7pgbbrKMhe38hSQJOtOLYD016sRRRto0CK2o1AjdBdX9DPN+Owop8Ybf6VxNCs533N3RpTqU/h+oRyuYWv7ezjDhSFLr3dSlq6Uhnixpp98BAc4V2d9BUPV2OCchsZd3SLMb3eTaE/7FCvF58PbLlVyafNBnXpgMXy9+vIB8B4Pqvfdl7lJpWbeStCkZLzpdKVC8DIHIj4ZgHU5/ilbzaNYtfesFYfE597MSDBQU1M2YB1/BmTo1gjYk9QrsjieKALCk5qJog6y8YczOdgSahAJKaJzLd86WOe8I/Mq/UPjFfwEUQ78tPMq/Kdn+A7p7aWxfYUWEjLaZOnl5lYfR7K7bYbmBRPlH7AEyzMhaAR7qBPoaz0WCCkEh7HyLG/hH1R51G6Nzclerpblx5zd4zGNP/zs6WPwQHCPnJsvLYQS4dx0vfsw0BOwAtQNaihY9YCE+sxW10KYUpIV58YYn0PREo1VemixqOKl5Mz0twZfLGFk9mUiBubtsV1Mopp4Qx1kizcSEwWqueDStnmXMEqgG3kne+3hQqbRV9t1nq/FqcRZ+T5O2TqaKn5wV1LjrartZoeAe52KvlnyOjZhbqtoFm9JTTeMYbV//SQ1PriFDJ/ABWEi3RGGu17LbMO5jGk31Gp06mxOn7Z3ZHyHa/cXU4/AfN4IY4wE3E2dgcL8hPKdCC/XePj6RvyYlGLnXY710rHMFPTNAnzOq5FEnueTMIYOc2tP0lgOosFZzAxW7xwKym4i79I2MKrqAf1VavvnOePHxbUyGV6e+Dhjw4Vd8nkdjtU13w8lvk+K/bDJoy+L2Ms9MpByaeWgYcAVQlfHHzPBMq7hPN1Gvat315ZXqd8YmxiBLYMtvmul1+t+QGs5eLDWUbARz3MHzyyAY/oEuSlb0m+/aLA3TddnuvxXmQuERfmHmzQ4JB6ZqKCl801kkWw/AuHZyMpexTYjI1OlCgCK5Fx8QWt8iD6h0U7EIVVWobAIjPkaCcTgTvskXRNv6cE9VPhbiIqcX26R6LsiQY9nQ/6wYP0ui+1PABUNY40tCJdicLoImeAhMH9tNnF1qrpOlNfSK2j8TPcx5zWTBcx3T4qpMNAg2i1OwOeHPkz72tsrWbbH9BC3pwuoKR5+VBiFDD0Iuc4pS7QN4oDOxGpckizvpbofqep1Wsyept64XbZbYpf12ry05hwAAAAA5ODdS7ROkfDG+Cu1XXDeRF9uCDEeBm38EnF4no+NxunMeUoLPS51xhfXXAn8UCY81SL6uPLwnxL5IC6RfRH7OFT2ZpnsZtR+ob/x9k77f/B4agoj23Jnq9ebIx0v/91SdxFlOqZJ3/WfAGRWD2vz765Fq3arxgEeQY90HLJuuF206tslBFtTmqEpnFniB7o0MAlvjtBtlbdeqBxpbFoQaRt5jv3NX/wRjNncq/tkOkRQAjbnX2TgCfpQ8HIqeDsHylH/WURWV2KQJqtwm66YAAAAMVRNM/cgkzxnCCHKNi6MFzS1q9iifki1vW0S7raPvkqYLd39ig5uOIuLHuy3XFxSBoUGWKAqSZwSRXfXJkJ3bO4SUGnteeVy7ftVZIiKkeJUJJVdIf4Iktm/FvXv7Ma0X6M4Y11AAAAKH5IGzKvFtWHQHFlOKfOWtBlZQ1835GOkC+smkXZUEQj1CknLEpBBO1YvtVKckBYLdWrRpy97CE3YEWP4H9ortWs75cOUb/qq+rfdRwAGcZGQB2aUQPGmrUrcGjhJVUddvWqttxvhMBl8xkjRL8n41ecRFv0zUQ+skm9HMwAAAAwGsoSn7Rf//Ru22m6bwLguJ27h/n4NUdoj8qTf6vyPv942K6RQtgT5oZI1nOYS+TGFlfWufZkm/NaiCxGho4AAIkh8/arG07rRdDWYJyRI1PBGOMgu0ClvQ0WDG3JcpDqALBsi/8jYro7BngWDC0J0oBmbBt8ewk8aAH+g5kvTkgNnWMAAAAAI0u7pOW2o/RWYm8Di/V+OLzUQOXQ8bjgmXzuvScGdAH9lwlwelxK1xQMYizD1iW7HvCKOhHQT0W6fEPbDz5T/Je+q3PkF556WDFre5fE0eGc1CxQT28YtJvoP5qOMyp2A8vUzbG4wfvOaCri4ZiQveFlDXAEHM6/1EBs/pS6vrwwpXsPGkY2VaMZSKYOOyqJzbyYNPlwaw/oS3CD6kFWK+2fPzwGX8lAAxpqTt2cnzJ1+V+gYcAAAAV5iOulU9uCsB/aJbYMYiGPSdsXrM4ADqyFXEak1Corrs/jL5qIL3Yd6esGqmcXnss9k5DmCtz+5yF1G1AcZ8SxvOnuepn3x0bwCEDsS5jay4JhTlfQVkEqsjYHapHHkkmRJalZ1ZOSvbBrAAAABxVA5dBMt2873BlnEqgsysu2waJVy2oU+OM6vj04kBLfA3mJ6Vnm6vkl00ZtxyYSTDZy6Ac9jHF+QmqWDcYVgJ/9rNrUJK3D1hssyuq//93gGr6sQy34zl7gB/Lf2crsFgAg3++2YHdLeM+HzgTyeoPM/StZDH7vaOKtZs5ogrfCgmfcX1Ze1CO37RjPhBMbIYKuRuL8Klks2TlNSNPZf+zX7nN1towKcxZ1Qc1ung9rJbfluYeU8v6DDouADbaIjSHqD7bvKdVJDsCKCi5KYvD2CJxSnmz19G7vNmFJceUlXe9F9+cEToJL9RjiSCYyWy6gauQ4x1ThpRZeRYOS+ta1akjBltHKR3LGYlkrTpSlbildoiayzjxwizVHrOjZIe6s6WFTWoycwVGlrkqbAkJgYZJv17Sj+cy5aOSfw198UmlR+1b1WT+4Hxf1dFmy5Yro+SUaJqpuzzy9byuUbJwkTsq/2yo1y4WvNEgvqCf2Qgfc8sUWa9IUk5sGIcnPNBT3UR4SvkRvivrHGs7YxlrInRp3y9g/l0AWSYjEFUojsThjskQby6YwXLlhoUQbbv6f2HJ7oXU8Sc6kdPNSKHSr5qB3/Sjy50aVXO4AH4WqiVZ5tumx2RHcfd0SvSAoG3iEYGeN9Qj03HUACn8T+WiZ3kYyPU6iKzT+wyNUoTk8ZdsEvvytY19r0QKQpYGeRbSdjKRR5HgHLVlSrRZi+dTaLMxR4lb0xpMHVagG5zsLCrndc4Y76JIFQss0tjbiiaj8vnaYeRetwNnuRxnfGBQKgr85+uk5/lB0sBA9cmSm+4nHDj40KJxEH53f2u0CHmamgD12PwdDHu2ibrVbTUvf0b05iobeDUOrLKQmkh8t+yhV5rJfwEzDTQV4QRrsEf+Tm41Y4QHxJMwt2salrABOFmTzEx+9R/UHvw5ytJtXnauxblNCnfq8gR7OjztLcSXSqXnNm19oUdXxtma9+rfqaiwqgDnmT8oGoXhOJDseR/7OE2V4aDsYE5XfrrmCQMhB/6f6PUV9PTAaemMKC12Cqt9usm2ep9wF1JuWSAGzqgmzQQrZgZq83ozi93EGADo1C6ZBOugfx2XqSKtcGTMDrZWj2yQtlbadwuehgoKVVi1aDjCwyBzT83IyupRQUuGn+45vc3726X/Ns1+EObCgFEXi6CXMRDAAc2VegOU6jiMZTLAh2whg39pwIc+zbgJczDADi181zyFWr+pqS1r1Wc2phOE/EAAB6Gs/FojuQaZSkTEXgN+jUOC4NR/gsPoZJm/VFO8w5HSzdHdceh1h+xKAwnzX+CYy4r13f1QPmXSb5kxLMh5h68+TQPAmQZuHEFxb2rbQaFh7pt1KpJLMQFkAF0KvPXbGXPeLv3/Lid42d60xceI0tdn+H8HqWK4mACaPt3DtgIjPlJgAB/f78NA1wTlMOAEIbrzuyPcSfh8a4xSEARqyvnVcM8vhec82VjR9XzqBYIhRVoHDEvYl4bzHOzvY+62oYwBtC2WwQwB/yp+yhs+wh77Y+UyJzlHrbIgwnVDvt6v3YY/Xwusa1emlfv5bIE5r+20/FKXQADaOKwnEx7yJ2GclHJ95KPRf/sL5R+YKR2lDJ2sIhlGZirC8K3Bg5um/ASiACBFRYA2KyXICf42w81dyUPPJkb515ehxRhvB7Muh1cH343HLcEi65dLljPMbWUKFy8ZTAsVYXe7Vy4TNKsQaMz7bBZNFZZioWc2FI0n/9vK5oiOQtynY/cTiLESRwf3SeHNtW6aMrtvIWzE9ZjkKu5ddB3jYadqjCOlmT7BBn1cvbr6A3mcS3yh/6bIKMBABgAFBVx63IMZ/ZGYSNFQNBcbaXcIB9faJrwFwHK7tOPol97xE/k9BFGDAW32Su4lTCT2oQE1bVe2m8prK2kSsSZW1m3zNzbtugjLhMinZG+Z9TE/y0XbsJUtIdJEqjLx0G6lZo9FX9v+IQVVimiOIjNvuEnpdRJOxTkVQhZSaPgG6q7K0atg05+tyM+TqXwlNNCkC8IfWNpYqry8PXUhb8+aV8FsiES+PA4o2EBl8/h/nLc9x1vaQPYTXDhStdLvGRo+k1bp0QkVxRtte6e5gjNKg7gAGfXZwgo3Q1nzox3XYkrKkLrG35wiOvbpephV5sb6H5qDItSmq0BUrt0RUdg7QFQRlHNJ3ENI5lR3YAiL1joUJkYdZQLxJNSy89bLv5FQR7V8yGB3+LXg1YNdoWXNB3nEv3h+7koO2w2IcFLL/MP/G9Rt5hPpLe8oS81IAmdRyR6cl8+WVgUDLTvPQIiwcs9LxaJ+7UW1NrmXEq9PWj4ILgiBWoNw/0IBoXmr+uEMXpbLZCmccQD9TObdo6sb764AAPZ3HizxrI7leufw1wxGpNQ2aCe5xGRaPkXeBBeEI7mCrFwIYTUihqsPa5lQMU9BWcynk5smCSRXGyJcYds5ChmKUzebnzEeB5ubFNsvUMVmhpPJ88W5cbmJywDds+/ZKBTLYyVG9zdNxkeb6oHm383RIU84SdVv9xkF1o+RgAdLEwlGEp/y71o9QY5GC/jFDR8ZHhyTzGYcygkxFGEhCzzZYdNq0upWjhgAhP0AWTpQgh0E6OlEIe82p8W5yFdzBKM0q/yhY9AAAHRhJEbPlTadunXKBo7pXygiAVl0UXQdYxZ5gdy1LmEv/m6r+O/nf3xfufriioH1lmaw4vKpLrQw3eMqEk3z4TfZyEBothgS59EvuX0VEsvRXs/msEZhQxo6su3j/uMxznSvXF/d12aMKBb64XIEZmLC//SdXJ8x63jdgA/nV2L1H1FJRoqsivvdkryIdTmYaBqzeAuHzZe9lnbvVT9TH7lq82IZabaDbFAHeC2meHPYnQzgQU6MR1Ajhflk4leADIlXrgrMFRLJhN5O9fDcEZjMJT8top4t0utBYefHjRSrGfkA575EGCKB20nyRN8D+MA1psCmTRx/8QxSURAhYVXC6gybbrMQErj7gr4WJwuv531l4L/9sKSk9Kbt54FND+7tzNIqiEqkklcvki7flywzsMHse2UXqelFpDGXSlEp/ID6ZSHA11QLUGJ2q0L4j/A3XgxqyWCkc4oWRpwt9kuzjEPELhUefaO1S3Hg8xnv9coLn+0KQLNBzs4mpfPrUu8UZd1wPgKHoY+p/KKTPgGv39IGgb/AAkU7ukoETzlPtVJWGGB9hUmf4H7SdJMhHSXHXgkTFaVYLWbVyh/epTvuykElognTG5yF4S6/5A2RdWK2uOzOunY8rxE/3Bhi3wn0TXGmutFILuUUU+JJw82XdNnB231OvHmmZ7TOsYBiPB8EnsYZH28YOiSswwhXGvbreQGNH4mHj1ruVnAx2el92AyBcOX+dOeHFR2kftvoKKtU9oYM20/5lJGxGsD4fADOKKE4illugoueLUFM1nlOFRk45q9ko/5oAABXJ1I69XcnBXutTwLDUhmHA0d7txKH/cB5oQ4jl5JwCncxrfvNA9NbkFtUtWRRpxLg7TkozS568XBseB76P/xNS/ViqT70wTzqH+zvVcw4g1ltgqC1aAsciqdRfH1bzlzfHh12Ptc+FSVqLCm3GFRcgAKMxzJJTklV/UYPiXjW499Dpjb+WCPOewUMAAMCT1Zg68KoEJih3pzi2X1ENu1n6nqOiAT/mdGVULXAjPZbRoub674VaZ/FqPGDpp8Q3rMsieThzc3VNIcr6XtJfeWiyTZjGVip9PwxdkL07IiLDJ2mUdUq9lp3sFcB8+arrvuf+49ZhrRSyfs7qy52CpgMaAAAmEcbjjOkqJUCtUD/9r67Ag0h5bchoAz2ftQ62eobU/ADMlCp3HjJqi9c84lpcJ5DhcdLhPIcLhXcwJph2PSKzdUTVwcF0qUfaMjROJ/ZE7JBXGYbRdedrU9IdLAUR7jVIbaAUUvi3yPsXgABNK95BOxJXk1ZVXHzRkL/cO5NV0hSTbTCIkpFfZnUzXQIqaDTyHsrbmZO8AOlr+vq7T0iuvsvgIJP3NU2vW0lMOB5e164FauvQQ0qZLu7iM4iHq91dGVq+DKcZOdLP8KL7K74AOCuAAAB5HsQtZIw8yV+SMwQxx6MR38UTJv4/iRxAeX+iHyztbYj5J4VInFICtNVynnH9htpFsPWVI6vAT5q4P0Yrmui+DG3KYcVSsHaD3GpJDil1gWj6cVqC6dhHwEnECp8XK72OBTY1shb+SdLDNZ63/9JrgAAHqzPDPOe0TgVPuTBXge1Zp0s1mwYHLJj4vIi6HhCEu6cQjvvXEqJ1VZqmCWhg7ebnS2b4HEjiitZRo1cOlMcmjlMfo10tIQZzWrBLxJw0yZE73eY5qhlVDX7tdTs4Prgqd1Wc5CydaBvf1EH2KAIOTTrQAAFWEjf3UXYbULzJUk39HWmIgriXhd9bStLp71MVXiQ36gMouzaXIAAtVxFABH8tMVMUISRmjOxXaCw5NqpfA4c6VwKLDPRYmB44xjhuYy+HhlgZFMq0bJI9vkTaBCYmm3J/dSseaAs7V3FQYoQuAUz3WumULVlF/hQGvfGacpuQvB7TEu1+3JEeC0g7HSSUEUErhM9BF9gMMAAACfp882woVyg9kmVngLY/A7OgOH+k9AqL2D9oDb54kuwdAAAA==;" vertex="1" parent="1">
          <mxGeometry x="704" y="190" width="27.62" height="30" as="geometry" />
        </mxCell>
        <mxCell id="PNhUklN0JLp1l5unrN9_-15" style="edgeStyle=orthogonalEdgeStyle;rounded=0;orthogonalLoop=1;jettySize=auto;html=1;entryX=0;entryY=0.5;entryDx=0;entryDy=0;endArrow=none;endFill=0;" edge="1" parent="1" source="PNhUklN0JLp1l5unrN9_-12" target="PNhUklN0JLp1l5unrN9_-11">
          <mxGeometry relative="1" as="geometry" />
        </mxCell>
        <mxCell id="PNhUklN0JLp1l5unrN9_-12" value="" style="shape=image;verticalLabelPosition=bottom;labelBackgroundColor=default;verticalAlign=top;aspect=fixed;imageAspect=0;image=data:image/webp,UklGRtxSAABXRUJQVlA4WAoAAAAQAAAA8wEAHgIAQUxQSNE0AAAB/yckSPD/eGtEpO5Bjf//1Urzu/fCpbsRxQAVuxtbpzOms2vGZq2sGUu7pk43Z3dh9+zu6eypiKICgiDdF7jxe6Dc3/+c8z/3HJ5F9H8CQPGWqwJl8JEjyuL679aXwX37qmIZ3HzjZ2Vwm3FJ2ZvjKbzqXubmex9TapW5VXmLpsFlbs2zEFeUufUuQbziVtb2HSIm1yxrW4aIxoFlbHYHEBGXlLF53vrglFPZWuibD2IrlK01zfwgv33ZWh/jB/hd2dpU/OgmTZnauo/d8ixLcz7zsaRqZWmBzz5m6FKWVjf1YzihLK1ncSnrytKmYKkXXcvQNpT2KrTszOVCaTmRZWflY0uzDCs7a55VGs4uOxtmtmKntsxsIVp51b2sTH/EmlcVysoC/rcmq1lZWf00a0z9y8r6G63BaWVlc9HqVWVk+sPWHdWXjQU+te62V9lY00zr4kLLxoabrctsUja2HK0v7lkm5nKegOPlSKPoNHbOnn7BoeG1G7ds36Xn5wOGDv9y7DffTZj8ww9Tp1k7vfQZzZm0njGdPI06I5JS/S1lKaXG9Bminy7uH3+eMbadp/LSOPqUrxnZc/jEOSt3HDl348Hz+HepGdl5hUUlJgsKfKoSk+Uo/JeUvkbKLg2hpxG5bk44NrWVr1ZBad3LN+w5bsG2U/+9Ss0pQgmeqABM1wuX3oiyEKnnXQgtsjhWHLN5UBUH4KJP/fJuWptHH9R44G87rsZmFKGET1QAppoo4e76EBxPkp4GEKq+41Xx07V9KmiBkwFRGbFXd/w6sFGQ3lZxq9lv3tGnmSaU+olQYGt/RLhNGkLF16S4CoSgaC6ZX2/tW04D3AzYgx81ZTw9Oq9fTXdbw6Fq/2WX3xmRhydCgbHzWeHGAbGLgZTekOBxnUPvj3wVpgOOBuxGq43vrq4YUNXRZnBrMulovBE5eTIUWHvcECyzKeUnJBd1J+iP8abo7m8NHIGrAbuRbkw4PrWJmw3g1HDahQzk56lQYO77QLC7vgT7gzTLQAJs5cu7XX38gbP+u5FxxqXp9R3lLXTU8VTk6YVKwD4oRrANGkLwcxp+T1nCEeODX+rYA2/9d6OA749+FSpbDs2XPzchV29HgIChCUJZRgGxXT6DJZTp3Mg9PTwI+Ou/G4U1P1/SzEGO3D/bl46cfd4YhKyeLFRafco0ZLiJ8iUn3m3q5Aqi1zgHhlZt/dnAL0aNn/TzUAcm/rtR+PT9PdzkxmvQ2ULkbUo3ELRBulA3PQn2h1hEaQi9jTx4vaS+DsSscavQuP/Xy3effxKfnFNsQkRM7AYs/XejKAtOD/KSE8+hl4uRu4XjQNhWOUItB2L5lyzOOBPa5UnO8uTXaiBenV/Nz3/ceeV1pgmtT+4FLP13o1iLLw/2kAvXfueLkcMrHATqXChQSV9KFwOLB76EhukSM9+bUAHE6lTxk6m7H7wvQYbZQ4Gl/24UcdG5vq5yYN/hSCHy+Kw/CNyrRKC4MMpMZBkbTKj6TlLme98GgTj1oZ/OPvWmEBkbJmtY+EehuAuPdLDnXq11mcjluCYg9BAU+LgjwekUk4RQQrlYCZnvfRsEovRsNvnwKwOytyxzAIb+USj6zHW1+OY75RXyuWgMCD5WqBlADE9gklaf4PtAMpaH3waBCDVB3ZfdykJhj3gDQ/8olOKrKb780na6aEZOb3diYEeZIlBOa0o/I5P8jgT3q1KJmRECwmvK9V7zxIBCP6wGDP2jUJrmi520nApakI68jo4AesPBlFkC3fWl/IlMS3oRHE9II2FBOAjv1211dDEKn9ENGPpHoWTTFwRxqcN15HbRl0CvfnceZYlAK4Ho9S8bywCCdp8U0lbWAcFdIhfdK0Qxmn/VMPCPQilf68Afjxnvkd/7XGjBp3ES5W9hSvpRmmWxwWEE2CS+gv2ROhBYGzb+bDaK9Lgn0P2jUNrvZ3hwpvoBE/I7qTGQXbcgjqBsFuZ1ZcokZDyJskJspmv9nEFg107rXltQrIlNgO61HaVuOlCdJ5puj5Dns4Gs+dmEOIigiRJmv56gP8RqAWWOyKIn+IHAFcacy0PxmqYA3XWVRXKIj7ppuOE4MQ15fi+E1isL0TyAYHdIEMt4IFZ+w2o1Zaqo0v8IA2F19RZGm1HM57xojouMyMO0iY6c8FlRhDwvHgnkav8joqkvwfGEICl1KH1LWG2hjBNRyT/tdCCoc4fNySjurM5A1k4vQj4WrfDhQqWDFuT6aQ+S8w5ERGNvgssFQU47U1Yi652UYeJ5MtodBPXoczwXxb5aRxuUjby0HKzEgdqXke953YE8uviD4h4E9yuCTAei331m+3SEviaRpC+rDIL6fnHRgKKPqwXkpm+Qo5drS67FA+T8PidSjZf4oaErweO6EJnNKe3zmZ1yInQvEoX5fEcdCOk/9lYJSnAWkIMuIlcftJBY22jkfFYHoDpswY8WdCJ43hTiqjtlDjK/7kHomC+G+Kk+IKTfmNsmlOLzSiS7P5Cz0W0l1ekl8j7KgfR5/sdy2xK8bgsxE4juV9nd8yW0zBbOsKcBCOk7+l8TSvNnIPfJ5Q2+7CShDq+Q99kdgOp/Az+eE0nwuStAditKkwx2TwMIDdMFezrcGQR0H3LdhBJ9UZkUeg/5+6qDZFrHIPf3OZKmWEprRfC9L8B1T8pUZP8ymFDrvUAFG6uCgE6fnSlGyS4Aqm4Z8jgmUiKNnyL387oAteoLLDWb4vdIgDlAdDolwJsQQrV3wjwe7ADs7dodLEDpJtcjtU3nEj5tLIlq/yL//3GhaH5HK1qKJjuSUidFgPjyhEpvhchfFwYC1lmbgVLebkdxPYqc/reaBMqdQf4X9QdqvUQBHrK74kH5FgVMCCWUjxPg0QA9sK8wKx4lbegJ1AEGXuGZcqJz34YyeMObov0b2fneZ/czEB2PCZFcnRD8gplhcxiwdx/1CCV+24fidQn5vc1dZHZzTTJg+Q6oDZOtyWlF8LnLLL0JpXayEGn1CAFPWb0c5QjMde1PlKDUZwN1cDHHTHPsxDUyH2XwRWWKdiVam9eW4H2H2VkXyncoZGYTgt9DNsb9dYB9tb8zUfJZLSju55Dn+SNF1TIe5XAZUOskWVXQkeD1L7NJQHQ6IUhOJMHnLpPEiW7A3OPrGOTgFXdKt3yuYXxLEZW/hnKY3oy0GK0u7ELwvMUqqRal3ntB8tsTvG6zuNgSmGvbnjQiD+cC0W47cv5qiGgc1qAsHnakhMVaV9SN4HGd1T49ZTIKWvgJwfMmLXdpIDAPXZKOXMzvSKmZyDtc4yCWEYWyUDIEqNPQ+uKeBNeLjIxfANH5jDBF3QjuV0nPBtgBa4cBD5CT0cGUScj9whEiqfsSZfFxMMX/LsHYm+B0mlFMKKVxujDFPQhulwjG/TWBeY0tBcjLPTqCyxn+4cu6onDdj/K4CKhDSgjmfgT9MUZrNJRfUdiSXgSX89alTXcH1q5jXyA/pwCxfqoM4H5XMYwrloeslhSn40i0DCToDrDJ7wJEr5sCGT8nOJ+16n5XDbCut78E+WnoQvka5bB4nAhqxaI8nnGhtMqi4CCCJorNdS9Kp3yBTH0oZ6wwRoUBa9dv3iBP31Yh6HbKAsbWEsxhC8qj5Tug/oHkEQTYwmY6UFeguJxOl5Y23Q1Y1z9Ygly940UIeCwPuMVBqN55MvE2glLhOW0CZQ2Td3Uo5Z4K1pdyqpQHn2qAscvXccjZPVpCk0yZyOstUMB1lMnd9pSRJtqvlD+Y7NFTBpaIzPHkR8x7w4F1jahi5O1fQBxslgm8HiDMZLNMGIcB0fEY0n+nzGFR3B+I9rtRaHM/yokPcmZ7AGP9sOfI3wmU39BaU0H6u7iY+9dOHzmwd9e2zes3bNmxe//h4xf+/T82ISWryCwt82RBwp+jTL6sRGmUxmA1ZSqLewGUmkmCmSgOH8QO1AHj0LUFyF/LIMo2REthSvSlfatnf923faMaFQO83Z0d7O10GgAArc5e7+ji6RscVqfZJ4MnzF9/8HJ0coFZEvg8XADNYpTLLTrKr8hwC2U8i5lAnYLC9SU4nkC82BgYa7r+hzw2fk6w+3XbzBEdawW62oFI9W4BNdsP/WnNsYfJBrHhYg27eolyUTIAiF43WeykDGWQUp/icU18p01rg4Gx128ZyOWi7gSNXgPSdPCt2eXbv/55km4S0du6zLQrUS5fhFI65rPYryN8bqTt0VM+yRdBH4LTth+cgHGD42bkc2EXgtQd/RsMXHD0WZZZHPinllXjFNnYoqP8gSzPORO6FJKKPgeidh2Kzq6yDtjaD3+FvDZ05cpHHYKaDV9xJckogncNGWlXoVwaBwMx4BGTO96E1jmkWz6UsNciMPYmMA/8swC5XdyTPx91q9Fv8dn4YoFwlY5NvSTZeF2F0t3A5FkgoUE6aQpQv7GIoOQzUTS/hBw39+PUh85hvZdcS7UIkVSPiWYZyuZee8rfyPR1OUJYEuVNVYrbBRRhcQ8ROIxNQK5/xbEP3euP2f60gBkuYlL1tWxYxgAx8DGbtxUJwS8pq7SUDrliKOomXNBqA/J9KecAQBfUef71TEYvw1hMQ9lMrk3pZmCT1oDge4+Q1QaI2nUoxsIugjW9hLw/YMe9Dz2aTz+dYmGA0xkE3JWPM86U5cg2vyPB7TLhiBOlerwo8jsKZDf8DXL/WZAsAIBznfFH3tH+86MNKJaPn4Hoe4+RsTdBf8y6on5AnYqizG0jjM+SfOR/fke5AACH2t+fTCUU9SHp96Js5rahtMtjZBlI0Oy07qYPxee2OLKaC1LzGMriUhkBAOeG0y5kWYO77Sn1UuTjvh9lNrIeS4CVVlm+B2rfInGkNxLi0/9RHmMqyQoAuLVc9LC4tOR6lJ9QPtdoCK6XmM2jzLbqeUWKw0EU5/ta7JwmpqFczman1XuXD6vWoOPng4d/OWbs2HHjxo4ZPWpY/x6RNatWDnaz00oFAAL77Xz7MfyJ4H5FPkxDgFg/jdlayrdWzQVq8wyRJFZhFri2GGXzfSeS1qNi7R5fTl29/+Sdl0nvM/OLTRa00mw05KalvH129fjePyeO7FG7opdOAgD2NSZdyvvgqod1rbLlI7E65WtkvoMywGzF21qkP1Ck8eVZ1T2LcvqsTWlaz7COoxfuvx6XZkCRGtLj/j2y8tu+dcs5iAwA3D/ZmICY09q6OSifp50JdnvZHdMTOhdYsUpLCXslsW7PUF4Tf6nlbu9bree0XTcT81GSJekxp9d91yXcQyMmAF3EtH9L5lvlflVGZgGxwkt2d7wJjTNKS28B1Gko1jchTBy+TUXZTb5+8l5yEUq9MOnGlu87VHQUDwD49pvoZE2jdPko7ELpUcTuRTAhLLG0XXpKwD3RvAxm4bPCgLZ8/pvTC/tFuIkGQKex5nuUz5jylMXIPqEiITC6lJxOQB1pFM2zQAZhh9H2NyZfWda/mrNIrNYfkJH99gS3KwJkNCZ43ijlkBPF7TyK9oEvrcUdVIjGxLOzOgdrxVX+hYz8AMQ67wUo6k5w+Odj+T2A2r1APLe8KJp+r1FJFkRvG1nDSUSdC+Qjtw1lhEUAywACbPnYSVeKw14U70VXguPkTFSa5nenpjV1F8vPKJ9PgyjrUchvKQs+YugH1MhMER3TW+e1oggVaeaV2ZEeYtAflpHddgSfe4Iso3z7kXMeFN0GFPFujVUV9lpQseZcn9XSXbDgaBmZDMSmWYJspfQzIWLRAKA2TBHTDrC23mVUttmXp9d3FKZVjnzktaWMR0GP6wltcxHxvAdFswLFvNWajk9Q+b4/PqayVoCvUD6flyNotwpz35dQMwWxaCBQayaIal1pmmGJqIjNr9Z382a2QkYO2hP8HgrzOoRQ7iXieQ/SQhT1slL0k7JRMRf++2NtOyZOp2TkJyA2yxImtQ7B8xYa+gO16mtx/fYxt4UGVNTvdvX2YRAULR+GrpSxKKyhK0F/DE+6kWaiuL/+iP9mEyptw60fqmkpDdPlI64yQbNJIMsgAqwv+gyolWNENuSDKkdRkcetaeNkXe8S+TjrTPD+TyCcTpl1zIX0C4rbMgAA6l1HpZ59bICvNZNRPpcCsV6aUGsofboAtUqMyIy9ASIfo4Ivvj0htLS/5cM0hDLELNReLcHNgfQbirzwE+j+CpW9JXpOLc0H+mPykVafshyFvuFJoIe9FFtWyyHJqPzfrmysBfD+Tz7u+xJcLgj2Mlig2Sj2tNUZqAqmrGwJFePkY5eOUDlesJSawlR9JTqzCdXCDGiUIR/TgPipQTBDV2Hmo4oLXQ2yYfiUMh2FHyZIzXhVZwTK5ttwgi5KBLOF0K5AVWe6fFxzJ/g+FMEWIRonqzvL5WM9EOunieCUEzv7TajqanbKx3eUgWYRPA1g1y5T3XE6IRsFHSmLUISJYcycDqC6631DNuIrE/RHxJDfgdlnBSpPuaeycdmNEBQtBssgVh7nUOUNj5eN9UBsmikG/I3VqBK1p1GKbEygDLWIYiujcvdR7e2QKReFXSi/oyjPu7D5BVXfXvlykVyDoD8ijhdBTGrFqT9flMjFY39C4DNxpNZhYbca1d9vzHJxwpHQIF0cxT1ZtMtQgX60yMVqIPY2igPHMXA9iirwQpTLyZTvUaR/MRhWpAatkouS3pTVYjloRwq5h2rwVrnIaETQHxXLQz/SbFSFD8jFyxCC//9iSapKaZykDp2Si8tuhKpJYjF0ITjtRnX4klxs1xA+KRQLfkUYWKgS3ZSLmUAcgaJdbl3wHVSJ75MsVx5zyTKM8rt4DtlbNQvV4ickPFfvxxgO5bYhaKPE89jPmqbvVKMXtOIhEDb7FXfehhE8b4knOcIK14OoGr+h4XVfgOoL4zhzx5tQ4Y14irpb8VWxepTIwDgWAKDWskSuHLQntMwWD35TWng0qsfvGeDdYAAATb2VyRxZCsT+ZhGtLsV+DarI6Swskz4A0DZel8qN8ZQfUcQnHT/WM1dNymaBT0I/AmDXfEsGHwxdKZvFFBP0kaCbqCbnMcGfSwGwb70zmwfvaxOcz4opo9EHmrmoKheyeVm1NACHjvtypfckgBAUIyZT/w/apapLRWxwgTUAjl2P5EvttBOhTqqYcCYA+JxHdbmEUXxtqwCce54olNY6IPYsEVWUFuBni8pkYoQrtNYBuPU9WySlqZTxKOr/vKFVCqrMZlbvGlEAPAZdLpGMsS9lpbiSwj3PoNpsYYXr7UgA3sNvGCWS2ZRgf0hcRd2mmlWztFYMAHxH3zZJ4lUFgt9DcVmi3qJ6vkPPAiDgm/tmCVxzJ1RJFBeaUEXP7sgGIHjSY/Ht0hI6FohMXT/ozAigwvRosc0F4jBLGUZ+D2YAlX99KSrLCMp8LMs86cYOIHzuaxHltSNodpZpGAYIARCxOEE0SVUJHtfLNPCSlyCgqb00QST3fAjlX5dtlIwQBkBTa0m8KI7oCc2yyjbwlr9AAJpaC16IYAUQ+5rKOExfCwYAVaY/NAn1LWUqlnU+KCcCgHJjLxUIUtSdsqHMw/KDKAA8uu96L0BqXYLTqTIPfFZJHAD6RvMflbCKDiIERpd94G9iAYCgwQffsznnTKiZUgYSW108AA4Nf7qex2AjELsXlYHgIo2IAMCzwx8PCyk/UsZgWejbuuICgIBPl98vsMY0gLKiTARXasUGAP6d511OKyW7BUG3v2wkpYkEAMCtwTe7nuYhYlxFgs+9shHcZE+q3dlRBABgF9Ru+oEXZz0IlRLKSDJak0KvHersKIYP9SFVdYR2eWUkGOVAga8x90A3F3EwHGwpK8n5hOR7DTH/RB8PSczGMtMjLhQYYEBEw+WvgiSwveykoBfJ+SB+aHr4Y3WtyNyulJ3gGXcKtEr9ABHj17R1FlW52DKUosEk7R+lIGafHFVeRI0yylDwqi8Fwp6VhmiKXtraVSyfG7lhNqlgxnEkGFNiBSJmn/8+wl4Uk5Cbj0+rYPiwPMntmHWI+HbPsIpa4dbxY0PXPBUMfyVBq/cURNPLLYMq6YRxOM4Ny1cOJ9SwuDokzVwaIhpjd46q4ShAwFNupNaDQSUqGK6zo0DgdRaIaE46OaONv4ZR9XfcuOgKgY/UsMxOJOiSyebD3IcbRzf01jDoauDGzwCwQA3D054k7RJ2iGjJuLPh6xbBesKXyMvMZgDQPEMNM44nQbmbQnw059nx+cMahjhqSlnKjbMuAOB8Wg3D6HASdE4X6kNT1vNzqyf3bVjZXW+3hxvfwYdTVDFcaUfSzLKI4OMlWW9untwax4s34R9plK6KZXcjgc9p0XB2rfYjrpdUMbwWQIIm8XKU0x4+PlMds8zUkOArgwz941zKJ4WqGKa0pjmslp/iQVBq+ZfqGJ71IUG5a7Jzw6c0+0MqmflnGrRMkBnTGLByhkqGKW1oMKJAXu4GWtO9SCXDSwE0+8UWOTF/A9ZWS1LLcLGOBN6H5eRuoFVed1Sz7F40CP9PPkxjwWrNDtUMH1alQWS8bFz3tQ5mqWe4y5UGg7JlongIEIda1DPjFAbaacXycNKN0sWgnuH7zjRwWGqWg5wuQK2erKLhvXAaeOyUg616UvBLNQ33eNAg+BT/EhsA2fe+qmaaqaNBlWvcmw10p9OqGmYPZgC173PufggDTZS6hm9aMoDmz7lWNAxYblbZ8FZlBtDuFc8OODNZo7bhfm8G0CmOX++aAtM/VTfLCkcG0DWBW7OA7WLZMBflZ6cmxsfFJb7PzDcYFRwW/aBlAN3ecupmIKPZMmBIunts2c8jO7VoXDciPCwsok6jFm0GTl2w998EgzLDrCEs4NN4LuX2BMZzOJf7eNe0LhGeDsDS3i2887T9MQYFhkldWcAnb3i0xp7VYp69PzWjtb8OhLUP6bH8QZHiwphmLKDDC/48CQPWK7iVd2lKPScQp3+vrUlKC/+ryQJaPeKNYSgwX8WppA0d3EHEdnXmxigsvFyFBdS/xZltjuw2cSnh9zo6EHuVX2OVFZ4oxwKqneNKTASw38Wh9JW1QJLVV6QrKtzvzwLKH+CIYQSwdzzJHeOJNjqQqLbdWbOSwp2+LMB3tZEb2xwF8LnLm8SJHiBh759SlRRu9WYBzrPyORFdHQQMfsGZSy1A4h1vKynLBk8WYDfmPRcKhoKQEclcKVkfDJKvtNuknNCywZsFQLfnPFirF6SrgScFM52Bg+6LipQTWrb4MIEGl6T3rBIIOtTCkdwJdsBF/Q85ygkt2/2YQMg2o9Te9RVmLvIz/3sdcFI7Pks5Ie4JZgKuv2RLDJO7CaHbw4/in3QgrNbB1a9ClbCqVSsF+7jqtYKAdmyOgsJjFZmAtt9LieHT6gL4PuTH347AXh/cYugvG07cePjiTXzC29fP7t88sfGXgQ18NMxAO6lQQeH5akwAGlyVGK63Z1cnlRtn/YG1T5ufDz/LMSHdmH533eBKWkZgN9ukoPBWQzbwq9TSm7Prb+JFQhNg69Ri8Z0cFNAYu/4TVzbgukVJ4ZP2bDZIDZewW4KcNE0Apu79j2Wg4Hmn+7sxgeBLSgrjPmehPyq5O16s3K7w4qwXC32PUwYUpeGfDjoW0CxeSWHaeHua3yPJpdRiVfs9J/K6AcOwtXko2owl5VjA6CIlhQVzXUkVEyRX1I3VSDMnDjgy6P4IRX29DQunHYoKTRuDKJE5kjP1ZWQXhXws6A5k+69TUeSJo+xoEBGjqBBnU/qaJGfszSgsjhOX3Um6yfko+ryfHGnwtVFZ/UyZgJLPiWQ00syJyUAem4sSLJrnRPM4pagsQyirpBdbno3+APIxpTapXTJKsnimngRdcpRUXjuCbp/0DurZNErlxFlnSuA1lGjhdxqSfoeSSo4geN+RnGkEsF2InJwD1GkWqWD6ZyRoma6gngQQQl5L7k4Am/LPOFHSi1L5OUr3aU2S/TYFdc6Z0ChDaoWDge13Zk4kR1DGWySEUc4UaJOlnLZqCL1KpPannk3wfeTkkwCC8wmUctGXJMcjymkOEMegxHf5AtuJFl6cdiJUT5QUPo+gQP9ixfQlZZnYzITCP32BbYXHyMudQOxeJC1cqaP43VVKhV0Iml0iK16wPNUK053BDsBWsxC5uYkyDiX+vhkFZiul1LoE9ysi2+ykbTz/RkpBUVFu7MERAcC6TRo/1lB+lBpusac0TldIMcGE4JfiuhoCAOBeq0W3T5qG2gNzv3PIz1WUXyWXEUlxPqOQrrgRaqWIKq45iNJ+GXJ0A2Wa5HClhgA/KKQ9WsKnRWLKGwLi/LKAJ1spE6T3KpzSMF0Z/Q7EL1DE5jk6cfROQZ7uoIyUHk6kuF9VRl9T5opprweIsstb5OpeLaFnsfQuuxNgkSIq7knZKqLblUGMmn4JyNer7oSW2dLLbEbpUaSEMhoTnM6IJ6E1iNHh+wzkbEwQoUq89HAGpXKcEnoTSgh4Jpr84SDGiusNyNu3lQkeNzhwzpXgdFoJ/etFCE8Si3munQgcP7+L/M2JJGi3cuB9XQL8roQO2RM65ItltwcIrmsWlY8cNg8hwNccMA+jDDYroL+AONAikhsVQWinthvfI58XU5pmSg9XUBpnKKDJlB9RnC+bgLB24V8ezUZeH7YneF7nwGU3QlCM8jH1o6wXh3l5hJcDMzvfpt9ExZmR38+CCPArBxKrEZxOK5/sVgT9EXFYCpLv/bN0+rDI+lV8XZwdHfT29g6Ozq4hdZoPnbXnfhbyPa8dpVGq9AxdCLBB+bwNI/g9FEeppoKMuEe3Lp86fmjv3uPnrtx6nppnQhn8haLfKT0cR5mmfO77EkLjRSXXp50I0DlXessoAy2K54QjoWW2DZRci+K4S3qH7AmfFCqe9UDsa7KBcDIFmiVL7o43oUaK4vmJ8j3awpfdKZrfLFJ7FUIIeaN0LEMpf9tEeR0o4HtWaskRhICnSie/PUG3zybCdToKNH0jsewWBI/rSic5guB12zZKaUSCITnSKupG0B9VOk8CCCGvbSP8W0vSzTJJyjKYALuUznkXQsN0G+ldAxK475QUfknZrnS2aQifldhIuM2BBBVvSmo8ZZPSmQvE0Wgr5/ehQcs4KU2krFc6X1GW2kx4K5AGQ3MlNJ2yRuEYuhA0O20nXKSj6WabpPMr5W+Fk1aX4HbZhsrpSwP3XdxYpXBelCMEv7Ch8HlNGlS6KZmfKWsUzlV3Qs0UW+p1WwbQMk4qMyjrFc4eHeFTg+1kOdkQmA7NlchUykaFswSIw9BmzprrA2y1s0zSmEzZrHC+ocyxmR711AJjp2kGaXxH2apsSj6jbLGRSnaGA+sqW4tQml9RdiibzCYEp9O20bsJLsBY2+0+SnUoJUrZvAklBDy1ia62BtZeMzNQquZ+BPvDyuZfL0JYog2UvyIIWNc/ZkbJFvckuJxXNoftCR3ybZ8XQ+yBsf6LWJRwQUeC5y1lsxKIA822jvlIHWBd7u8ClHJWc4LfI2UzhTIdbdz0XzyBdbtrKO33tQnBLxWNqT9lvY1zt6sGGLtOTkaJv61EKB+vaHJaEeyP2DRFmyoB6+pRRpR6TBAhIlnRJIYRfB/YMgnjHIGx7vP/Ufp3vAmROYrmgS8hNN6GOd8MWPsuyEYOnnEidC9WNCcdCS2ybZbcxf7AuslpC/Jwt5bQ36xoNgCxj8lWedZPB4wdR8chH/8C4nhUtD9TvkPb1LgvAliHrjcgJ3+h/K5oLMMoK22T91PdgLGm823k5kjKZkWT34Gg3WuT3OwArD1+TEVuGroQ7A4qmpQaBK9/bZDC1SHAuvZBE/IzrT7B619F8zSQEPLK9ng9Sg+M7QZFI09flSeUi1U0510IDdJtDcuJhsA6cFkecvWGB6FemqLZriH0LLExsub4AOuWl5Czu3WEnsWKZh4Qv0Lb8lFPLTB2/jYReTsPiF+ioh1NWWJTlOwIA9ZhW4uRt5bhlN8VjaErQbPDlkj63hkYa3vcR/7mtiFodyuatHoEt0s2xJVIYO09KxM5/KYSwfs/RfOyHCHohc2QvyIIWNc/bkYeX3QlVHmraK65E2ok2wovBtsDY/3wWOTzaiB2LlQ0e3WErgbbwHy4DrAO+bsAOT2eMhoV7VIgDrXYBOk/ewDrdjeQ13ltKCuVzbeU2WgL/tdFA4zdpiQjt6PLEVzOK5qSXpTNNkDRporAuvpuI/L7gD2hYpyiyWxKcDwlf/HjHIGxrs//yPMZQOxcqGjiKhICnsreuWbA2m9hNvK8oBNlEira216EKokyl7vID1g3OWtBrkeXI2h3Kpsj9oT2efL2tK8OGDuOiUPO79AR/B8rm7+BOMAsZ8a9EcC64gYDct4yBoiROcrmB8o0lPH3P7gBY80nd5D77+tSJqKiNQ2grJOxm+2BtcdPacj/864E3R5lkxNJsD8sW4WrQoB17UMmlMEZQCz3XNkkhhN878vVq5F6YGw/6DnKYUYTSjeDsnnoRwiNkyfLiQbAOvCPPJTFC66UJahsTzkSmmfJUtZsb2Dd6hLK5HQget5SOBuB2MckRw97aoGx83eJKJPJdSnNsxTOr5RvUX5LtocB67BtxSiX+/WUGahsLV9Q/pKfpO+dgbG2xwOUTeMQILpdUjj5HQnaPbJzuRWw9p6difL5JITSIkvhpNQkeN6SmfzlgcC6wT9mlNH5QJ2NCvdZIKHcK3mJGWwPjB1GxKKcpjSgeN1UOhdcCPXT5MR8uDawDllVgLK6w57SOV/p7NAQehbLSPpPHsC6/Q2U1/xPgahZg0p3PhC/RPn87xMNMHabkoIye9KVUuWV4hlD+V02ijZWBNYRe4wos4Z+QP3aonQMn1J2yEX8WEdgrOv7BGX3ggfF7Twq3bT6BNeLMnG2KbD2W5SDsls8FKhd8hVPbAghKEYWchb5AeumZy0ovxe8KHY7UPFe9yBEJMvBkz46YOw4Nh5luLAPUBulKp99OkKXQv4Z91QH1hU3GFCOj7iQlqLyXQbEoRbupUxxA8aaLndQlrM7A7XqKwX0HWUW8v5GO2Dt+VMayvNGPWkWKt+S3pTNnCtcFQKsax8yoTy/qQPUsJcKKLMpwfEk316N0ANj+8HPUaYtM4D8GyrguIqEgCc8s/zTAFgHLc9Dub4ZSKoSo4TueBOqvOVY5ixvYB15GWU75zMgz0UlfFRPaJfHr4c9tMDY5bsklO+/7Ul1EhTRKiD2N/OqeHsVYB2+vRjl+3EVoOpWoyKeSpmKnE76zhkYa3s+QBkvGALkyHRFZB5IWcupy62AtffsTJTztQ4k5/2oiHNbE+wOcSn/j0Bg3eAfM8r53YpAHmxQRonhBN/7PHo+yA4YO4x8hbKe2QPIIfdQGUcHEkLe8Md0qBawLr+6AGXdMk9Hm4sK+U0FymvupP3kAazb30SZP+4D5ObJSim1DsH3AW/udNYAY7cfUlDmo+sA2f0YKuW8dgSHf/hStCEUWEfsNaLMZ/cF+gSjYjL1J8AWrsSPcQTGdn2foNybZuloDeJROU+kzOHJ2SbA2n9RDsr+Tncgux5ABb2UMowfOQv9gHWzcxaU/WuhQP++REnt0RE6F/Liyec6YOw0Nh7lP7YJ0FsmopK+7kEIS+SDcU91YF1pYxHKf3ofoPtfQEX9ugLB5y4XUqa4AmNNl//QBiz4RkPTLUJlndWMoN3NgxvtgLXnz+loAxrn2AO9X47CMg0gwC/SK/i7HLCuc9iEtuB6V6DXiUGlPYvSq0RqscP1wNh+SAzahAf9gO57EhX3XjtC9SSJPWkMrIOW56NNeKY80O2XovK+50NwuyKtvL7AOvIy2obXw4HhqAIFllqPACuk9bcdI5fvk9A2vF8HGLZPQgVuGkzpb5TS40rANnxHMdqGT5oCw+oPUJEvpYQnSKjoC2Cq/ewh2ojPWgBD/xOozC+4EByOSeiQCxOfOVloIz6PBIZOq1GhJ9UgwATppEUCy4YnLGgjvmgLDO1+NSo10xBKvVTJrNIxcBj5Cm3FmHbAckweKvZVFOeTUkmsC/TyqwvRVnwaCSx7p6Fyv+9HgPEWiSzT0DrcRJvxUTNg2TYOFXxeB0p4nDSS6gDV+Yf3aDPebQQsG/yPin4uRbtOGqu1pO9L0Ga8XgdYRtxGZX/DiwDtc6WQ2QqoES/RZjwdDiwrX0GFn9eB4vyPFI44UuxWo824vzywLH8aFf9SCvQxiM84BKjtM20F82Y/YBl8BJX/42CK+znxPQ2mOO5BG7FoqQewDDqAKmDJUAp8Xii65UDtlG0j5Ex3BJaB+1AVPOJIcT4stvxOFIc9aBumjNQBy4A9qA5mtKRA6zSR3fOlNE2zDV72AKaBe1AtXK2laH8X2XKgLkGb8HZzYFruIKqGb2tRoPwdURX3olSItgmOhgPT0H9QRVxIgu5ZYnpdkTLEaAOUrPYDplXOopoYV5OknW0W0VE9wW4nyn/Oj87ANOIyqotLNBTwPCiiX4EY9kb+4ofogGnD26gyJjUiQfgd0RR1pwwwyt7tSGDb9gmqjtscSND8pVgSwyl/osyb94cB2x5vUH3M7UGDTnEiuelB8LwlcwWLvYCpZmgyqpHXAmjQLU4c2zWEuqnyljRaD0z1E7NQlbTM0tCg4wtRzARiX6Os3WkHbF0XGlClTGnLAJreEoFlEGUmyrhpdxVgG7DRhKrllSAGUHmPSbCCTgS7vTKWM8sD2IYdRzXzD3sG4DYjVah31QgeN+Tr5QAdsG36L6qa+SNZgKbtBbMwscGEkFjZOt0AGPeORZUzoTULAN8psYLc9yXUS5Op/GX+wFb/XTqqnneqMQGIWJYowGknQscCeXozwh7Yei4xoAp6KpgNaOouiWW2W0P43ChLF5sC40r7LKgoLbzCXT5sACBswqVcNtuBOBxlOH9FEDBueQuVpcXELctmb1YA7m3m3chksIkyQYZefaEHtrrBcagwzSXcQstGH2YA4Nn42533043WraPMkB3LqYbA2PW3HFQcBn6hJSpYAADQ+tYbMGPH6f+T0vONFkRcQ/lNbnIW+gLj0O0mVJzGfI4h/hMuyEe1DoHhtTr2HzFm3DeRlJky86SvHTBueQMVaHE21/BOpGBCzpIV454IYGw/PAGVqCGdbxj3hb0tlDzZDRh7L85HRVqQzDnMXx5o+1xtC6xrHLOgMs1N4B3i5Q5a2yZvRTAw1nz2BJVqZiz/MG1esC3zdIA9MHb7ORMVa2q0DCDeGexiqxTvqg6sq+41oXJNfiQLaDjcycEmSfjGBRhruj1EJZtwVx4Qs6PaO9kcltNNgbXbj+moaGNvyQVi9pG+PrZF2kwfYF19rwmVbfRV+UA03JpRR2873OisAcba3k9Q6T66JCeI+O7AmOoONkHu8nLA2ntuNireO+dlBtH89ui0SH87uXvc1w5Y1z9hQeV77YzsfJjzePfUT6p52slW8baqwFo//BUq4fP7ZOlDQ+Lt3YvGd2tWLdDT1dFOy2Amx+LHOwPr8qsLUREfWytbHy/OSoy5c/H4nm2b169Zbf2q/7hlOd0UmHf6FxVy1EKZk+Gseb7A2uPHVFTKG36yKKtHvXTAut4REyrmPyYoqpKdVYG146hXqKBnjzMrqJTJrsC68kYDKmjLlJFG5XSrPbDW9XqAito0ukeeUiraUAFYByzORmVtGNAiVSG9+9YJWLe9gko759NaScrodntg7TnjPSrutFZh8UqoZHslYN3gmBmVd1Kt8tEKKG2qKzB2GvMGlXhsqOcV5fPwUw0wrrKlCBX5/QCHI0rHfKAaMNZ+9gAV+kV3TZTCyV/oBYx952ehUj9kDyuVTcIIe2Dc+IwFFfsGgCmK5t/WwNjhqzhU8PMAhisY0+7KwLj8WgMq+e8APitRLHmzPYBx25uo6E39ABqkK5XEEXbA1un7ZFT2eW0BKr1VKA87AOPQzcWo8FNqAPg+UCanagLjtrdQ8UcHAuiPKZGSdYHA1vGbd6j8L7kCwCYFkvOTM7Att7YYVcBdWgCYqjySvtAC26aXURWcBwAwyKw0orsAW7uhb1AdHPVB00yFcb0RsPWcn4fqYH6HDyq8URaHqwDb8P1mVAkTq37gckFJGNf6Adt2d1E1vO31AWxSEIZ5LsDUblQSqodRuo98rxxypuiBqfuCfFQRf4GPdi5QCqmjtMC0YpQZVcSS3h+rFKcQ4vsA28bXUVVMrvkx53PK4FlHYNvrBaqLNz0/BssUwb2mwFT/fTqqjGs1pfQ3KoBbdYGp++8GVBnNI6HU6km23+UIYBqyw4xqY1r90lzO23xnwoBpzfOoPt7yLA3m23pHQ4Fp6weoQv4JVnYusO0OBAPTPnGoQhb3tibwf5tufxCw1I1ORzXyZag1mg223P4gYOn4Ux6qklF21kDfEtvtQBCwdFtWjKqkaQRYXe6ZzXYgCFj6bjSjOvm6inWa1bbawSBgGbIP1crtdtbBp4W22YkQYBl2GtXK4v5A9L5pk12oBCwjrqJq+SCQAtNtsRvVgGW926hezgNyzUTb624dYNn4AaqXqY1puo0215PGwLLF/6hi7tbToF2OjfWmLbBsE40qZkEPYOh83LZ63xtYto1BNfOiBwvoY7Clcr8Elm1jUM0sGQ5M3c/bUEXTdSzaxqCqedOXDQwutplMvzsAw8jnqGqaxgBjz4s203Z3YNjsKaqbt/xZQX+DjXQhBBg2fITqZskoYO520jZ6UhcY1rqLKucVb3bwaa4t9O4TYBh+HVXOwv4goH6HDZQ3ChhWOIdq5yEXIaBJss1jnmfHwO8gqp0Z7UBQzXybZ78n0N02oer5p04YCLln49wLB7rjUrPq8SwchB5ssGmSOwJdO70Y1c6SMSC44zZbxjAeGA7PQdXzoJtwEBFjw6xyYNA1GVXP+IYgxlFFNsu1ckBvEI2qp3ECiNJxk63yrg3QQ6+i+rnXTRxQ+b5tUjIB6O67UP2MrgFi7ZZhk+xwodnNN6sfuQNAtJrpRhvkUTjQR+aj6mmeZycecN1he+T1A3rkW1Q/D3mBmEOv2xx/29Mq/Yvq573qIO7GL2yMuxWB7LID1c+EtiD2Xmk2RU4voE81qh/ZQ0D8o/NsiRV2tK5pqHoaJmsloJteZDs8qgTkyvdQ9TTO14MUHReU2AqGYUB22oyqp3mlK0jTeZnJRtjjTBtfrHpY1nmAVF3/MtkECQ2B3Cge1U7LZi+QruuyEhvAMgPInv+g2mle5wVSdl5QJH+3AmkzzGqHcaUHSNtxWp7cGQYDuUUyqpyF81xA6trRaTJ3xJXkeRJVzuxJeuDgZy9kLaMdkCebVI6EIVrgYuPrcrbajlQvHtXNe22Al6HbjbKVWA+ojrtQ1TQfqgb8dJ2WLlfLNKSBhapGzlwv4Knm03vyFF8LqMH/oZr5rL8OOFtpo0GOFgH5V1QxS/bUAP46jnwuP68jSHXiVYy4712ByxFbC+VmEVDt1qNqWXygAfDacdBdeUmqS2qXqVo8He0KHA+Z+05ONukoTvtRpUxfEQZ81zTeliMb+V2B2iNfnSg82EYH3Nd3PWGQieteFNcTqEaWXOrrDLLo2vd8sSz8AtRehSqE8eYIb5BNj4FnDfzLaEpx+QdVx5Lro/1AVt16H83m3RV3Suc8taHg/DAfkF2ntuvf8m0eEO22obr4flc3d5BlbY2p1wv4ZfiUUitJTSi+P6eRHuTbq8vfT4s5FVuRMglVQ9OrrX0DQO6DP1/3uIBHJxwJzqdVgqIXO7+orANbUBPQae65RCNvFgOxTooKYE69ubxXBTuwIZ2r9l1yNq6AI+ZhlOEWhVf87saa4fU8wQZ1rtTp2w3nX2eauZATSVmDit2S9/bWrp8+q+EBtqxL+cYDp2w8dv9terG0EioT3K8pMFNu8rOLO+eObBfuqQXbWO9TqX7P4ZP+jDp8JTo+MTXXaLZYRHbPh1ApXhlZTIactMSX9y4cXD/3m75tIgJdtWCLa/SeIWG1mncfMe77Hxeu3nvm/MWrt/57FB0bn5yenV9kNJnZnXEmROYoDIvZbCw2FORmpr6Lj41+dOfauaNR6/+YNfmrAV1b1goNcLcHzgMAVlA4IOQdAAAQnwCdASr0AR8CPpFIoEulv6MhorGpa/ASCWNu9ThREJ80b+m8Ux0Z/Q9YbuNPGP6044FYwtV/MvxI/LnyAOQA/in82/FH8ndv32c7LEP0X8Uf5XdQ0efl/7Z+63lJxv5q+8flD/e/3U6zbm37X+uv717wfJ3snz6fJ/1r/vf4L/Lfut89f9f6mv6p/tf+D7gP6m/rd/p/i9/zvUx5g/2r/dP3gf+d+3Xug/x3qB/3f/bf//12vYs/ej2A/5T/xvTl9kn+6f9P94PbJ/+3sAf/j1AP/v1e/UH/A/hV8cbmhfjcL7O/3/L+BkcllVZ+0+gB6R3d01Av5J05fQA/TkUJEmNwa8e1V480Ie1V49qrx7VXj2qvHtVgYwJ4v0tePaq8e1V49qX2ctzK3thP7IvS6lSLXxpsjXYf76Gp2qsre6LnWjJKpNYZSYnZvljd/1MeCtUrZ5I1joK4ZpPq+oZFnEXQ+GrAhDwoBVW1lDPariIuyEaUFB0yIVlO0xzEM6JWnZk9xneRCcp5LNxJPEjlPlkbhp+XqTYCLq11eZybxOSlGJwnaoMtHoda6IDWlVJp9t0TsogAs1S/n6ghZye5037FV2Z/1cMi1pV1VbpymYpF+sp2ZPboG0K5yp4VmpFCwRx8nIH0dsI8A4wP+icktqwYdn1VLIraGASgVY81mrrUBBaWYkSYOf+GoxaKMD4713ADbVnXMilrqOMvdZaSxkf39GvQFrV+owlTO+w3M+q0P+qouDlP5escCZy7L/MaRTPnY/fOx++5S95/ZXpSIXHo7om7awATjInY/fOx++dj961DhbXvrOlIbBr5GqY+vB/987H752P3zsfvu2+RSnZoFKEcZMj2EpnBkw+DJh8GTD/b5B9oZpykbfrnjmhG+Y1jOD8rpLnsrEKGJ987H752P3zsegfJY8Aj3t0Z09GCWxHE5987H752P3zsfqwb/oKttO8oeWzL3MfWSdUK+Y7U1MFV1jZ3DLJX+oe1V49qdIA4ZMzyXoyAYHQiL1MJlWfINhU6XbczgD987Hvp1XTJACpSiPUzfgiuYft2cnQJX2ntMwR7VXj2rPG+zhoXCwr868Sl0AbXFI5B2H5+nyf9n2yywjXj2rPG/pOyj0I12GmvYq3tnlDPdA2xPvn/Ze7OS+158KK/LEaMFHTk9Z2l78J7wiu7hnwZN3jf6wrLa7H722vw5bSJkfAXGbB3GGhvd4m4pnBkxbdtXxlL31UYdDgZAdIdeRG/CVXHr5Gaqdj987db68xuKEFkiXoZZhVIIupKSGngyPsdwwPE7H752630Po8ETeJAx1fUqllPrJ9IWh5jQqTODJh8Y19P+mgYrJIHTiDDgApbnG1Xz5/WHuhfx2SVLx7VXj4P8cCY4NUkzU7SajGL5MfFJeDAoD2tdiSyd4vD2qvHtViu/pSYg6Bw7Bgde+XRO2sVHTQaO1nYSMoAhI1KiBbYZ8GTD4MmLcMsKiIOXHAbC8aT63WVyrKA/T4149qrx7Y8x1I/GiYvkC5EA6ICWSYHhnwZMPgyYc0L3jfsv0xecpQP/sREryxTODJh8GGkprQzSWcH9V+jrIsGjmfBkw+DJh8GvJKJCYXvxaSsuVUusF2Paq8e1V49mij3tcQrbakeXR0b0rTln2zQPVXGJnY/fOx++diW2bp2qzBo1PhhzZCoC0kBYQjXj2qvHla1W2T36AAA/hSgAChvCSJM7ESxh7Ja54hA8eV2h1wur97rFdrEAAAAADs5IBBNtwnjpe5EbDhQM2M8AAAB9m+6EQpWXOOndJPQ2lCG42uMblIeCEw9yaSsXLpu34tIc/vII8ZGBRY88yPyuGdvf4nZyOip9/tnn8k21/MrZO45s6DCq+xEiP0yE+aH/+q5dY8+3lEuLxonfaaGX+hI2TZZvEF+JQAGkCJNtBx+qC8B1oK/jGdR66Uu3LLAVrFvCtjgbmlGQF+Wuse0KfDBHy/zVe9tjRpA5iXIRB2hukVsCQ24m4cqX//gkCwY7a5SpKyyi7LuaQXi+nFBwStV8HTQdHbz0CCD9YV6Oc1tYEs71jYIOkdQP+c9EsKHV9nKE1upL5CBwpJMHQeXk42/V2Azq3+H+jEeFcmFkaJFvqFa1ju0VeTv/wjlWwhCH8lcIfTcZerAtVltKUcRubg6uyNdEcHNtdnggR7IOS51HQj//tpgRCGDu47JvY0Y8097luyc02SIedhQm3QRhqTX5ThvW9/rclPJKmxffiPZPEJmrlROnOKCXJCV/d9oCUxmEQkcvFU/IofUhSSDKlhmkPQHEBZtALscENVRK8kO3fhTBHEcORbRA63QLmwu13mt7VnYWSJOk3lfEZR0UUESp9iTlVqhuihehltGXbm+Tz//5klxFWa0b7Y3xaFyUBzuS8pmpGqX3R4WSHVJ0NFkttbcjYPTrcXz+hJjWpSHKaQYL7z/UDzSDcvuM2Haiv2jzRVS9GiB/1bTzh1SySwt1qLdCRn0v45lE6g4q03Jc85bqy2IWhuD0Hdm6GjvvjjgucMTeQw3d0vpX4Rt5DhOpkshXIxtYUJaRrgdKdSU/AZpaxy2Gn1FVnsHeG0MXu2To5K6JxGLuup7lfjsjyv/XgoIwVuhZ0wexwP/5Q/0TVTQzderxGKyMGdtOlKFmRllLvgUjPndLP7aGvW8j1M9argaYPPvnzl+8efBCYNDh6voz2fJsopZ0Z283qVh+ZLWuf3A3TH3RtZdO58NEYrOrPKSQ4vz/t1irh4LiytvvqZ2cZ2x8JH6z/vzla1L8rzIqNJnKEUR3zG6cC3uCRdbaKiN1qdKXNt1Fr2CPOTGFPEMOb7r98qih9iSJS3pLIHivrjKXAtScDGgCRmNrI4wyfqCgfz1QPujjthloWUXGbCHZ4qAIflVpDvm1GDcbQkaW25PGUTdRNWeaQ/np2YDhvwYv7bheYhKoyMtrf6dpFUTZCxZudKfyIgepDb2LGNMkx+n/onjmJY9xNnJrhM7adlts7Eg8EnlJ/hRiEcz9F40m1UrDxijxj4IAlj0zrC8n5J45ULYpqSuB/szp4qSgkEj5HOKkn6eQd/TWmN7pTM/MXorvltffNK92koEX7iqXauL+Rvu7dC/53dISlcLKcX6Ux5heQkUk6H/f14wlzkbMBRbxPmvUX+BAcj/6uPL6d1G/07VIiE8bWHTD6GAIIfzr+hUEEnaqToi7pgbbrKMhe38hSQJOtOLYD016sRRRto0CK2o1AjdBdX9DPN+Owop8Ybf6VxNCs533N3RpTqU/h+oRyuYWv7ezjDhSFLr3dSlq6Uhnixpp98BAc4V2d9BUPV2OCchsZd3SLMb3eTaE/7FCvF58PbLlVyafNBnXpgMXy9+vIB8B4Pqvfdl7lJpWbeStCkZLzpdKVC8DIHIj4ZgHU5/ilbzaNYtfesFYfE597MSDBQU1M2YB1/BmTo1gjYk9QrsjieKALCk5qJog6y8YczOdgSahAJKaJzLd86WOe8I/Mq/UPjFfwEUQ78tPMq/Kdn+A7p7aWxfYUWEjLaZOnl5lYfR7K7bYbmBRPlH7AEyzMhaAR7qBPoaz0WCCkEh7HyLG/hH1R51G6Nzclerpblx5zd4zGNP/zs6WPwQHCPnJsvLYQS4dx0vfsw0BOwAtQNaihY9YCE+sxW10KYUpIV58YYn0PREo1VemixqOKl5Mz0twZfLGFk9mUiBubtsV1Mopp4Qx1kizcSEwWqueDStnmXMEqgG3kne+3hQqbRV9t1nq/FqcRZ+T5O2TqaKn5wV1LjrartZoeAe52KvlnyOjZhbqtoFm9JTTeMYbV//SQ1PriFDJ/ABWEi3RGGu17LbMO5jGk31Gp06mxOn7Z3ZHyHa/cXU4/AfN4IY4wE3E2dgcL8hPKdCC/XePj6RvyYlGLnXY710rHMFPTNAnzOq5FEnueTMIYOc2tP0lgOosFZzAxW7xwKym4i79I2MKrqAf1VavvnOePHxbUyGV6e+Dhjw4Vd8nkdjtU13w8lvk+K/bDJoy+L2Ms9MpByaeWgYcAVQlfHHzPBMq7hPN1Gvat315ZXqd8YmxiBLYMtvmul1+t+QGs5eLDWUbARz3MHzyyAY/oEuSlb0m+/aLA3TddnuvxXmQuERfmHmzQ4JB6ZqKCl801kkWw/AuHZyMpexTYjI1OlCgCK5Fx8QWt8iD6h0U7EIVVWobAIjPkaCcTgTvskXRNv6cE9VPhbiIqcX26R6LsiQY9nQ/6wYP0ui+1PABUNY40tCJdicLoImeAhMH9tNnF1qrpOlNfSK2j8TPcx5zWTBcx3T4qpMNAg2i1OwOeHPkz72tsrWbbH9BC3pwuoKR5+VBiFDD0Iuc4pS7QN4oDOxGpckizvpbofqep1Wsyept64XbZbYpf12ry05hwAAAAA5ODdS7ROkfDG+Cu1XXDeRF9uCDEeBm38EnF4no+NxunMeUoLPS51xhfXXAn8UCY81SL6uPLwnxL5IC6RfRH7OFT2ZpnsZtR+ob/x9k77f/B4agoj23Jnq9ebIx0v/91SdxFlOqZJ3/WfAGRWD2vz765Fq3arxgEeQY90HLJuuF206tslBFtTmqEpnFniB7o0MAlvjtBtlbdeqBxpbFoQaRt5jv3NX/wRjNncq/tkOkRQAjbnX2TgCfpQ8HIqeDsHylH/WURWV2KQJqtwm66YAAAAMVRNM/cgkzxnCCHKNi6MFzS1q9iifki1vW0S7raPvkqYLd39ig5uOIuLHuy3XFxSBoUGWKAqSZwSRXfXJkJ3bO4SUGnteeVy7ftVZIiKkeJUJJVdIf4Iktm/FvXv7Ma0X6M4Y11AAAAKH5IGzKvFtWHQHFlOKfOWtBlZQ1835GOkC+smkXZUEQj1CknLEpBBO1YvtVKckBYLdWrRpy97CE3YEWP4H9ortWs75cOUb/qq+rfdRwAGcZGQB2aUQPGmrUrcGjhJVUddvWqttxvhMBl8xkjRL8n41ecRFv0zUQ+skm9HMwAAAAwGsoSn7Rf//Ru22m6bwLguJ27h/n4NUdoj8qTf6vyPv942K6RQtgT5oZI1nOYS+TGFlfWufZkm/NaiCxGho4AAIkh8/arG07rRdDWYJyRI1PBGOMgu0ClvQ0WDG3JcpDqALBsi/8jYro7BngWDC0J0oBmbBt8ewk8aAH+g5kvTkgNnWMAAAAAI0u7pOW2o/RWYm8Di/V+OLzUQOXQ8bjgmXzuvScGdAH9lwlwelxK1xQMYizD1iW7HvCKOhHQT0W6fEPbDz5T/Je+q3PkF556WDFre5fE0eGc1CxQT28YtJvoP5qOMyp2A8vUzbG4wfvOaCri4ZiQveFlDXAEHM6/1EBs/pS6vrwwpXsPGkY2VaMZSKYOOyqJzbyYNPlwaw/oS3CD6kFWK+2fPzwGX8lAAxpqTt2cnzJ1+V+gYcAAAAV5iOulU9uCsB/aJbYMYiGPSdsXrM4ADqyFXEak1Corrs/jL5qIL3Yd6esGqmcXnss9k5DmCtz+5yF1G1AcZ8SxvOnuepn3x0bwCEDsS5jay4JhTlfQVkEqsjYHapHHkkmRJalZ1ZOSvbBrAAAABxVA5dBMt2873BlnEqgsysu2waJVy2oU+OM6vj04kBLfA3mJ6Vnm6vkl00ZtxyYSTDZy6Ac9jHF+QmqWDcYVgJ/9rNrUJK3D1hssyuq//93gGr6sQy34zl7gB/Lf2crsFgAg3++2YHdLeM+HzgTyeoPM/StZDH7vaOKtZs5ogrfCgmfcX1Ze1CO37RjPhBMbIYKuRuL8Klks2TlNSNPZf+zX7nN1towKcxZ1Qc1ung9rJbfluYeU8v6DDouADbaIjSHqD7bvKdVJDsCKCi5KYvD2CJxSnmz19G7vNmFJceUlXe9F9+cEToJL9RjiSCYyWy6gauQ4x1ThpRZeRYOS+ta1akjBltHKR3LGYlkrTpSlbildoiayzjxwizVHrOjZIe6s6WFTWoycwVGlrkqbAkJgYZJv17Sj+cy5aOSfw198UmlR+1b1WT+4Hxf1dFmy5Yro+SUaJqpuzzy9byuUbJwkTsq/2yo1y4WvNEgvqCf2Qgfc8sUWa9IUk5sGIcnPNBT3UR4SvkRvivrHGs7YxlrInRp3y9g/l0AWSYjEFUojsThjskQby6YwXLlhoUQbbv6f2HJ7oXU8Sc6kdPNSKHSr5qB3/Sjy50aVXO4AH4WqiVZ5tumx2RHcfd0SvSAoG3iEYGeN9Qj03HUACn8T+WiZ3kYyPU6iKzT+wyNUoTk8ZdsEvvytY19r0QKQpYGeRbSdjKRR5HgHLVlSrRZi+dTaLMxR4lb0xpMHVagG5zsLCrndc4Y76JIFQss0tjbiiaj8vnaYeRetwNnuRxnfGBQKgr85+uk5/lB0sBA9cmSm+4nHDj40KJxEH53f2u0CHmamgD12PwdDHu2ibrVbTUvf0b05iobeDUOrLKQmkh8t+yhV5rJfwEzDTQV4QRrsEf+Tm41Y4QHxJMwt2salrABOFmTzEx+9R/UHvw5ytJtXnauxblNCnfq8gR7OjztLcSXSqXnNm19oUdXxtma9+rfqaiwqgDnmT8oGoXhOJDseR/7OE2V4aDsYE5XfrrmCQMhB/6f6PUV9PTAaemMKC12Cqt9usm2ep9wF1JuWSAGzqgmzQQrZgZq83ozi93EGADo1C6ZBOugfx2XqSKtcGTMDrZWj2yQtlbadwuehgoKVVi1aDjCwyBzT83IyupRQUuGn+45vc3726X/Ns1+EObCgFEXi6CXMRDAAc2VegOU6jiMZTLAh2whg39pwIc+zbgJczDADi181zyFWr+pqS1r1Wc2phOE/EAAB6Gs/FojuQaZSkTEXgN+jUOC4NR/gsPoZJm/VFO8w5HSzdHdceh1h+xKAwnzX+CYy4r13f1QPmXSb5kxLMh5h68+TQPAmQZuHEFxb2rbQaFh7pt1KpJLMQFkAF0KvPXbGXPeLv3/Lid42d60xceI0tdn+H8HqWK4mACaPt3DtgIjPlJgAB/f78NA1wTlMOAEIbrzuyPcSfh8a4xSEARqyvnVcM8vhec82VjR9XzqBYIhRVoHDEvYl4bzHOzvY+62oYwBtC2WwQwB/yp+yhs+wh77Y+UyJzlHrbIgwnVDvt6v3YY/Xwusa1emlfv5bIE5r+20/FKXQADaOKwnEx7yJ2GclHJ95KPRf/sL5R+YKR2lDJ2sIhlGZirC8K3Bg5um/ASiACBFRYA2KyXICf42w81dyUPPJkb515ehxRhvB7Muh1cH343HLcEi65dLljPMbWUKFy8ZTAsVYXe7Vy4TNKsQaMz7bBZNFZZioWc2FI0n/9vK5oiOQtynY/cTiLESRwf3SeHNtW6aMrtvIWzE9ZjkKu5ddB3jYadqjCOlmT7BBn1cvbr6A3mcS3yh/6bIKMBABgAFBVx63IMZ/ZGYSNFQNBcbaXcIB9faJrwFwHK7tOPol97xE/k9BFGDAW32Su4lTCT2oQE1bVe2m8prK2kSsSZW1m3zNzbtugjLhMinZG+Z9TE/y0XbsJUtIdJEqjLx0G6lZo9FX9v+IQVVimiOIjNvuEnpdRJOxTkVQhZSaPgG6q7K0atg05+tyM+TqXwlNNCkC8IfWNpYqry8PXUhb8+aV8FsiES+PA4o2EBl8/h/nLc9x1vaQPYTXDhStdLvGRo+k1bp0QkVxRtte6e5gjNKg7gAGfXZwgo3Q1nzox3XYkrKkLrG35wiOvbpephV5sb6H5qDItSmq0BUrt0RUdg7QFQRlHNJ3ENI5lR3YAiL1joUJkYdZQLxJNSy89bLv5FQR7V8yGB3+LXg1YNdoWXNB3nEv3h+7koO2w2IcFLL/MP/G9Rt5hPpLe8oS81IAmdRyR6cl8+WVgUDLTvPQIiwcs9LxaJ+7UW1NrmXEq9PWj4ILgiBWoNw/0IBoXmr+uEMXpbLZCmccQD9TObdo6sb764AAPZ3HizxrI7leufw1wxGpNQ2aCe5xGRaPkXeBBeEI7mCrFwIYTUihqsPa5lQMU9BWcynk5smCSRXGyJcYds5ChmKUzebnzEeB5ubFNsvUMVmhpPJ88W5cbmJywDds+/ZKBTLYyVG9zdNxkeb6oHm383RIU84SdVv9xkF1o+RgAdLEwlGEp/y71o9QY5GC/jFDR8ZHhyTzGYcygkxFGEhCzzZYdNq0upWjhgAhP0AWTpQgh0E6OlEIe82p8W5yFdzBKM0q/yhY9AAAHRhJEbPlTadunXKBo7pXygiAVl0UXQdYxZ5gdy1LmEv/m6r+O/nf3xfufriioH1lmaw4vKpLrQw3eMqEk3z4TfZyEBothgS59EvuX0VEsvRXs/msEZhQxo6su3j/uMxznSvXF/d12aMKBb64XIEZmLC//SdXJ8x63jdgA/nV2L1H1FJRoqsivvdkryIdTmYaBqzeAuHzZe9lnbvVT9TH7lq82IZabaDbFAHeC2meHPYnQzgQU6MR1Ajhflk4leADIlXrgrMFRLJhN5O9fDcEZjMJT8top4t0utBYefHjRSrGfkA575EGCKB20nyRN8D+MA1psCmTRx/8QxSURAhYVXC6gybbrMQErj7gr4WJwuv531l4L/9sKSk9Kbt54FND+7tzNIqiEqkklcvki7flywzsMHse2UXqelFpDGXSlEp/ID6ZSHA11QLUGJ2q0L4j/A3XgxqyWCkc4oWRpwt9kuzjEPELhUefaO1S3Hg8xnv9coLn+0KQLNBzs4mpfPrUu8UZd1wPgKHoY+p/KKTPgGv39IGgb/AAkU7ukoETzlPtVJWGGB9hUmf4H7SdJMhHSXHXgkTFaVYLWbVyh/epTvuykElognTG5yF4S6/5A2RdWK2uOzOunY8rxE/3Bhi3wn0TXGmutFILuUUU+JJw82XdNnB231OvHmmZ7TOsYBiPB8EnsYZH28YOiSswwhXGvbreQGNH4mHj1ruVnAx2el92AyBcOX+dOeHFR2kftvoKKtU9oYM20/5lJGxGsD4fADOKKE4illugoueLUFM1nlOFRk45q9ko/5oAABXJ1I69XcnBXutTwLDUhmHA0d7txKH/cB5oQ4jl5JwCncxrfvNA9NbkFtUtWRRpxLg7TkozS568XBseB76P/xNS/ViqT70wTzqH+zvVcw4g1ltgqC1aAsciqdRfH1bzlzfHh12Ptc+FSVqLCm3GFRcgAKMxzJJTklV/UYPiXjW499Dpjb+WCPOewUMAAMCT1Zg68KoEJih3pzi2X1ENu1n6nqOiAT/mdGVULXAjPZbRoub674VaZ/FqPGDpp8Q3rMsieThzc3VNIcr6XtJfeWiyTZjGVip9PwxdkL07IiLDJ2mUdUq9lp3sFcB8+arrvuf+49ZhrRSyfs7qy52CpgMaAAAmEcbjjOkqJUCtUD/9r67Ag0h5bchoAz2ftQ62eobU/ADMlCp3HjJqi9c84lpcJ5DhcdLhPIcLhXcwJph2PSKzdUTVwcF0qUfaMjROJ/ZE7JBXGYbRdedrU9IdLAUR7jVIbaAUUvi3yPsXgABNK95BOxJXk1ZVXHzRkL/cO5NV0hSTbTCIkpFfZnUzXQIqaDTyHsrbmZO8AOlr+vq7T0iuvsvgIJP3NU2vW0lMOB5e164FauvQQ0qZLu7iM4iHq91dGVq+DKcZOdLP8KL7K74AOCuAAAB5HsQtZIw8yV+SMwQxx6MR38UTJv4/iRxAeX+iHyztbYj5J4VInFICtNVynnH9htpFsPWVI6vAT5q4P0Yrmui+DG3KYcVSsHaD3GpJDil1gWj6cVqC6dhHwEnECp8XK72OBTY1shb+SdLDNZ63/9JrgAAHqzPDPOe0TgVPuTBXge1Zp0s1mwYHLJj4vIi6HhCEu6cQjvvXEqJ1VZqmCWhg7ebnS2b4HEjiitZRo1cOlMcmjlMfo10tIQZzWrBLxJw0yZE73eY5qhlVDX7tdTs4Prgqd1Wc5CydaBvf1EH2KAIOTTrQAAFWEjf3UXYbULzJUk39HWmIgriXhd9bStLp71MVXiQ36gMouzaXIAAtVxFABH8tMVMUISRmjOxXaCw5NqpfA4c6VwKLDPRYmB44xjhuYy+HhlgZFMq0bJI9vkTaBCYmm3J/dSseaAs7V3FQYoQuAUz3WumULVlF/hQGvfGacpuQvB7TEu1+3JEeC0g7HSSUEUErhM9BF9gMMAAACfp882woVyg9kmVngLY/A7OgOH+k9AqL2D9oDb54kuwdAAAA==;" vertex="1" parent="1">
          <mxGeometry x="620" y="190" width="27.62" height="30" as="geometry" />
        </mxCell>
        <mxCell id="PNhUklN0JLp1l5unrN9_-13" value="Sub" style="text;html=1;align=center;verticalAlign=middle;whiteSpace=wrap;rounded=0;fontSize=9;" vertex="1" parent="1">
          <mxGeometry x="687.81" y="210" width="60" height="30" as="geometry" />
        </mxCell>
        <mxCell id="PNhUklN0JLp1l5unrN9_-14" value="Pub" style="text;html=1;align=center;verticalAlign=middle;whiteSpace=wrap;rounded=0;fontSize=9;" vertex="1" parent="1">
          <mxGeometry x="603.81" y="210" width="60" height="30" as="geometry" />
        </mxCell>
        <mxCell id="PNhUklN0JLp1l5unrN9_-20" value="&lt;div&gt;Micro Controller&lt;/div&gt;" style="verticalAlign=top;align=left;spacingTop=8;spacingLeft=2;spacingRight=12;shape=cube;size=10;direction=south;fontStyle=4;html=1;rounded=0;shadow=0;comic=0;labelBackgroundColor=none;strokeWidth=1;fontFamily=Verdana;fontSize=12" vertex="1" parent="1">
          <mxGeometry x="930" y="70" width="330" height="220" as="geometry" />
        </mxCell>
        <mxCell id="PNhUklN0JLp1l5unrN9_-21" value="Instrument Cluster" style="html=1;rounded=0;shadow=0;comic=0;labelBackgroundColor=none;strokeWidth=1;fontFamily=Verdana;fontSize=12;align=center;" vertex="1" parent="1">
          <mxGeometry x="1110" y="140" width="130" height="50" as="geometry" />
        </mxCell>
        <mxCell id="PNhUklN0JLp1l5unrN9_-22" value="Middleware" style="html=1;rounded=0;shadow=0;comic=0;labelBackgroundColor=none;strokeWidth=1;fontFamily=Verdana;fontSize=12;align=center;" vertex="1" parent="1">
          <mxGeometry x="940" y="140" width="100" height="50" as="geometry" />
        </mxCell>
        <mxCell id="PNhUklN0JLp1l5unrN9_-23" value="" style="shape=image;verticalLabelPosition=bottom;labelBackgroundColor=default;verticalAlign=top;aspect=fixed;imageAspect=0;image=data:image/webp,UklGRtxSAABXRUJQVlA4WAoAAAAQAAAA8wEAHgIAQUxQSNE0AAAB/yckSPD/eGtEpO5Bjf//1Urzu/fCpbsRxQAVuxtbpzOms2vGZq2sGUu7pk43Z3dh9+zu6eypiKICgiDdF7jxe6Dc3/+c8z/3HJ5F9H8CQPGWqwJl8JEjyuL679aXwX37qmIZ3HzjZ2Vwm3FJ2ZvjKbzqXubmex9TapW5VXmLpsFlbs2zEFeUufUuQbziVtb2HSIm1yxrW4aIxoFlbHYHEBGXlLF53vrglFPZWuibD2IrlK01zfwgv33ZWh/jB/hd2dpU/OgmTZnauo/d8ixLcz7zsaRqZWmBzz5m6FKWVjf1YzihLK1ncSnrytKmYKkXXcvQNpT2KrTszOVCaTmRZWflY0uzDCs7a55VGs4uOxtmtmKntsxsIVp51b2sTH/EmlcVysoC/rcmq1lZWf00a0z9y8r6G63BaWVlc9HqVWVk+sPWHdWXjQU+te62V9lY00zr4kLLxoabrctsUja2HK0v7lkm5nKegOPlSKPoNHbOnn7BoeG1G7ds36Xn5wOGDv9y7DffTZj8ww9Tp1k7vfQZzZm0njGdPI06I5JS/S1lKaXG9Bminy7uH3+eMbadp/LSOPqUrxnZc/jEOSt3HDl348Hz+HepGdl5hUUlJgsKfKoSk+Uo/JeUvkbKLg2hpxG5bk44NrWVr1ZBad3LN+w5bsG2U/+9Ss0pQgmeqABM1wuX3oiyEKnnXQgtsjhWHLN5UBUH4KJP/fJuWptHH9R44G87rsZmFKGET1QAppoo4e76EBxPkp4GEKq+41Xx07V9KmiBkwFRGbFXd/w6sFGQ3lZxq9lv3tGnmSaU+olQYGt/RLhNGkLF16S4CoSgaC6ZX2/tW04D3AzYgx81ZTw9Oq9fTXdbw6Fq/2WX3xmRhydCgbHzWeHGAbGLgZTekOBxnUPvj3wVpgOOBuxGq43vrq4YUNXRZnBrMulovBE5eTIUWHvcECyzKeUnJBd1J+iP8abo7m8NHIGrAbuRbkw4PrWJmw3g1HDahQzk56lQYO77QLC7vgT7gzTLQAJs5cu7XX38gbP+u5FxxqXp9R3lLXTU8VTk6YVKwD4oRrANGkLwcxp+T1nCEeODX+rYA2/9d6OA749+FSpbDs2XPzchV29HgIChCUJZRgGxXT6DJZTp3Mg9PTwI+Ou/G4U1P1/SzEGO3D/bl46cfd4YhKyeLFRafco0ZLiJ8iUn3m3q5Aqi1zgHhlZt/dnAL0aNn/TzUAcm/rtR+PT9PdzkxmvQ2ULkbUo3ELRBulA3PQn2h1hEaQi9jTx4vaS+DsSscavQuP/Xy3effxKfnFNsQkRM7AYs/XejKAtOD/KSE8+hl4uRu4XjQNhWOUItB2L5lyzOOBPa5UnO8uTXaiBenV/Nz3/ceeV1pgmtT+4FLP13o1iLLw/2kAvXfueLkcMrHATqXChQSV9KFwOLB76EhukSM9+bUAHE6lTxk6m7H7wvQYbZQ4Gl/24UcdG5vq5yYN/hSCHy+Kw/CNyrRKC4MMpMZBkbTKj6TlLme98GgTj1oZ/OPvWmEBkbJmtY+EehuAuPdLDnXq11mcjluCYg9BAU+LgjwekUk4RQQrlYCZnvfRsEovRsNvnwKwOytyxzAIb+USj6zHW1+OY75RXyuWgMCD5WqBlADE9gklaf4PtAMpaH3waBCDVB3ZfdykJhj3gDQ/8olOKrKb780na6aEZOb3diYEeZIlBOa0o/I5P8jgT3q1KJmRECwmvK9V7zxIBCP6wGDP2jUJrmi520nApakI68jo4AesPBlFkC3fWl/IlMS3oRHE9II2FBOAjv1211dDEKn9ENGPpHoWTTFwRxqcN15HbRl0CvfnceZYlAK4Ho9S8bywCCdp8U0lbWAcFdIhfdK0Qxmn/VMPCPQilf68Afjxnvkd/7XGjBp3ES5W9hSvpRmmWxwWEE2CS+gv2ROhBYGzb+bDaK9Lgn0P2jUNrvZ3hwpvoBE/I7qTGQXbcgjqBsFuZ1ZcokZDyJskJspmv9nEFg107rXltQrIlNgO61HaVuOlCdJ5puj5Dns4Gs+dmEOIigiRJmv56gP8RqAWWOyKIn+IHAFcacy0PxmqYA3XWVRXKIj7ppuOE4MQ15fi+E1isL0TyAYHdIEMt4IFZ+w2o1Zaqo0v8IA2F19RZGm1HM57xojouMyMO0iY6c8FlRhDwvHgnkav8joqkvwfGEICl1KH1LWG2hjBNRyT/tdCCoc4fNySjurM5A1k4vQj4WrfDhQqWDFuT6aQ+S8w5ERGNvgssFQU47U1Yi652UYeJ5MtodBPXoczwXxb5aRxuUjby0HKzEgdqXke953YE8uviD4h4E9yuCTAei331m+3SEviaRpC+rDIL6fnHRgKKPqwXkpm+Qo5drS67FA+T8PidSjZf4oaErweO6EJnNKe3zmZ1yInQvEoX5fEcdCOk/9lYJSnAWkIMuIlcftJBY22jkfFYHoDpswY8WdCJ43hTiqjtlDjK/7kHomC+G+Kk+IKTfmNsmlOLzSiS7P5Cz0W0l1ekl8j7KgfR5/sdy2xK8bgsxE4juV9nd8yW0zBbOsKcBCOk7+l8TSvNnIPfJ5Q2+7CShDq+Q99kdgOp/Az+eE0nwuStAditKkwx2TwMIDdMFezrcGQR0H3LdhBJ9UZkUeg/5+6qDZFrHIPf3OZKmWEprRfC9L8B1T8pUZP8ymFDrvUAFG6uCgE6fnSlGyS4Aqm4Z8jgmUiKNnyL387oAteoLLDWb4vdIgDlAdDolwJsQQrV3wjwe7ADs7dodLEDpJtcjtU3nEj5tLIlq/yL//3GhaH5HK1qKJjuSUidFgPjyhEpvhchfFwYC1lmbgVLebkdxPYqc/reaBMqdQf4X9QdqvUQBHrK74kH5FgVMCCWUjxPg0QA9sK8wKx4lbegJ1AEGXuGZcqJz34YyeMObov0b2fneZ/czEB2PCZFcnRD8gplhcxiwdx/1CCV+24fidQn5vc1dZHZzTTJg+Q6oDZOtyWlF8LnLLL0JpXayEGn1CAFPWb0c5QjMde1PlKDUZwN1cDHHTHPsxDUyH2XwRWWKdiVam9eW4H2H2VkXyncoZGYTgt9DNsb9dYB9tb8zUfJZLSju55Dn+SNF1TIe5XAZUOskWVXQkeD1L7NJQHQ6IUhOJMHnLpPEiW7A3OPrGOTgFXdKt3yuYXxLEZW/hnKY3oy0GK0u7ELwvMUqqRal3ntB8tsTvG6zuNgSmGvbnjQiD+cC0W47cv5qiGgc1qAsHnakhMVaV9SN4HGd1T49ZTIKWvgJwfMmLXdpIDAPXZKOXMzvSKmZyDtc4yCWEYWyUDIEqNPQ+uKeBNeLjIxfANH5jDBF3QjuV0nPBtgBa4cBD5CT0cGUScj9whEiqfsSZfFxMMX/LsHYm+B0mlFMKKVxujDFPQhulwjG/TWBeY0tBcjLPTqCyxn+4cu6onDdj/K4CKhDSgjmfgT9MUZrNJRfUdiSXgSX89alTXcH1q5jXyA/pwCxfqoM4H5XMYwrloeslhSn40i0DCToDrDJ7wJEr5sCGT8nOJ+16n5XDbCut78E+WnoQvka5bB4nAhqxaI8nnGhtMqi4CCCJorNdS9Kp3yBTH0oZ6wwRoUBa9dv3iBP31Yh6HbKAsbWEsxhC8qj5Tug/oHkEQTYwmY6UFeguJxOl5Y23Q1Y1z9Ygly940UIeCwPuMVBqN55MvE2glLhOW0CZQ2Td3Uo5Z4K1pdyqpQHn2qAscvXccjZPVpCk0yZyOstUMB1lMnd9pSRJtqvlD+Y7NFTBpaIzPHkR8x7w4F1jahi5O1fQBxslgm8HiDMZLNMGIcB0fEY0n+nzGFR3B+I9rtRaHM/yokPcmZ7AGP9sOfI3wmU39BaU0H6u7iY+9dOHzmwd9e2zes3bNmxe//h4xf+/T82ISWryCwt82RBwp+jTL6sRGmUxmA1ZSqLewGUmkmCmSgOH8QO1AHj0LUFyF/LIMo2REthSvSlfatnf923faMaFQO83Z0d7O10GgAArc5e7+ji6RscVqfZJ4MnzF9/8HJ0coFZEvg8XADNYpTLLTrKr8hwC2U8i5lAnYLC9SU4nkC82BgYa7r+hzw2fk6w+3XbzBEdawW62oFI9W4BNdsP/WnNsYfJBrHhYg27eolyUTIAiF43WeykDGWQUp/icU18p01rg4Gx128ZyOWi7gSNXgPSdPCt2eXbv/55km4S0du6zLQrUS5fhFI65rPYryN8bqTt0VM+yRdBH4LTth+cgHGD42bkc2EXgtQd/RsMXHD0WZZZHPinllXjFNnYoqP8gSzPORO6FJKKPgeidh2Kzq6yDtjaD3+FvDZ05cpHHYKaDV9xJckogncNGWlXoVwaBwMx4BGTO96E1jmkWz6UsNciMPYmMA/8swC5XdyTPx91q9Fv8dn4YoFwlY5NvSTZeF2F0t3A5FkgoUE6aQpQv7GIoOQzUTS/hBw39+PUh85hvZdcS7UIkVSPiWYZyuZee8rfyPR1OUJYEuVNVYrbBRRhcQ8ROIxNQK5/xbEP3euP2f60gBkuYlL1tWxYxgAx8DGbtxUJwS8pq7SUDrliKOomXNBqA/J9KecAQBfUef71TEYvw1hMQ9lMrk3pZmCT1oDge4+Q1QaI2nUoxsIugjW9hLw/YMe9Dz2aTz+dYmGA0xkE3JWPM86U5cg2vyPB7TLhiBOlerwo8jsKZDf8DXL/WZAsAIBznfFH3tH+86MNKJaPn4Hoe4+RsTdBf8y6on5AnYqizG0jjM+SfOR/fke5AACH2t+fTCUU9SHp96Js5rahtMtjZBlI0Oy07qYPxee2OLKaC1LzGMriUhkBAOeG0y5kWYO77Sn1UuTjvh9lNrIeS4CVVlm+B2rfInGkNxLi0/9RHmMqyQoAuLVc9LC4tOR6lJ9QPtdoCK6XmM2jzLbqeUWKw0EU5/ta7JwmpqFczman1XuXD6vWoOPng4d/OWbs2HHjxo4ZPWpY/x6RNatWDnaz00oFAAL77Xz7MfyJ4H5FPkxDgFg/jdlayrdWzQVq8wyRJFZhFri2GGXzfSeS1qNi7R5fTl29/+Sdl0nvM/OLTRa00mw05KalvH129fjePyeO7FG7opdOAgD2NSZdyvvgqod1rbLlI7E65WtkvoMywGzF21qkP1Ck8eVZ1T2LcvqsTWlaz7COoxfuvx6XZkCRGtLj/j2y8tu+dcs5iAwA3D/ZmICY09q6OSifp50JdnvZHdMTOhdYsUpLCXslsW7PUF4Tf6nlbu9bree0XTcT81GSJekxp9d91yXcQyMmAF3EtH9L5lvlflVGZgGxwkt2d7wJjTNKS28B1Gko1jchTBy+TUXZTb5+8l5yEUq9MOnGlu87VHQUDwD49pvoZE2jdPko7ELpUcTuRTAhLLG0XXpKwD3RvAxm4bPCgLZ8/pvTC/tFuIkGQKex5nuUz5jylMXIPqEiITC6lJxOQB1pFM2zQAZhh9H2NyZfWda/mrNIrNYfkJH99gS3KwJkNCZ43ijlkBPF7TyK9oEvrcUdVIjGxLOzOgdrxVX+hYz8AMQ67wUo6k5w+Odj+T2A2r1APLe8KJp+r1FJFkRvG1nDSUSdC+Qjtw1lhEUAywACbPnYSVeKw14U70VXguPkTFSa5nenpjV1F8vPKJ9PgyjrUchvKQs+YugH1MhMER3TW+e1oggVaeaV2ZEeYtAflpHddgSfe4Iso3z7kXMeFN0GFPFujVUV9lpQseZcn9XSXbDgaBmZDMSmWYJspfQzIWLRAKA2TBHTDrC23mVUttmXp9d3FKZVjnzktaWMR0GP6wltcxHxvAdFswLFvNWajk9Q+b4/PqayVoCvUD6flyNotwpz35dQMwWxaCBQayaIal1pmmGJqIjNr9Z382a2QkYO2hP8HgrzOoRQ7iXieQ/SQhT1slL0k7JRMRf++2NtOyZOp2TkJyA2yxImtQ7B8xYa+gO16mtx/fYxt4UGVNTvdvX2YRAULR+GrpSxKKyhK0F/DE+6kWaiuL/+iP9mEyptw60fqmkpDdPlI64yQbNJIMsgAqwv+gyolWNENuSDKkdRkcetaeNkXe8S+TjrTPD+TyCcTpl1zIX0C4rbMgAA6l1HpZ59bICvNZNRPpcCsV6aUGsofboAtUqMyIy9ASIfo4Ivvj0htLS/5cM0hDLELNReLcHNgfQbirzwE+j+CpW9JXpOLc0H+mPykVafshyFvuFJoIe9FFtWyyHJqPzfrmysBfD+Tz7u+xJcLgj2Mlig2Sj2tNUZqAqmrGwJFePkY5eOUDlesJSawlR9JTqzCdXCDGiUIR/TgPipQTBDV2Hmo4oLXQ2yYfiUMh2FHyZIzXhVZwTK5ttwgi5KBLOF0K5AVWe6fFxzJ/g+FMEWIRonqzvL5WM9EOunieCUEzv7TajqanbKx3eUgWYRPA1g1y5T3XE6IRsFHSmLUISJYcycDqC6631DNuIrE/RHxJDfgdlnBSpPuaeycdmNEBQtBssgVh7nUOUNj5eN9UBsmikG/I3VqBK1p1GKbEygDLWIYiujcvdR7e2QKReFXSi/oyjPu7D5BVXfXvlykVyDoD8ijhdBTGrFqT9flMjFY39C4DNxpNZhYbca1d9vzHJxwpHQIF0cxT1ZtMtQgX60yMVqIPY2igPHMXA9iirwQpTLyZTvUaR/MRhWpAatkouS3pTVYjloRwq5h2rwVrnIaETQHxXLQz/SbFSFD8jFyxCC//9iSapKaZykDp2Si8tuhKpJYjF0ITjtRnX4klxs1xA+KRQLfkUYWKgS3ZSLmUAcgaJdbl3wHVSJ75MsVx5zyTKM8rt4DtlbNQvV4ickPFfvxxgO5bYhaKPE89jPmqbvVKMXtOIhEDb7FXfehhE8b4knOcIK14OoGr+h4XVfgOoL4zhzx5tQ4Y14irpb8VWxepTIwDgWAKDWskSuHLQntMwWD35TWng0qsfvGeDdYAAATb2VyRxZCsT+ZhGtLsV+DarI6Swskz4A0DZel8qN8ZQfUcQnHT/WM1dNymaBT0I/AmDXfEsGHwxdKZvFFBP0kaCbqCbnMcGfSwGwb70zmwfvaxOcz4opo9EHmrmoKheyeVm1NACHjvtypfckgBAUIyZT/w/apapLRWxwgTUAjl2P5EvttBOhTqqYcCYA+JxHdbmEUXxtqwCce54olNY6IPYsEVWUFuBni8pkYoQrtNYBuPU9WySlqZTxKOr/vKFVCqrMZlbvGlEAPAZdLpGMsS9lpbiSwj3PoNpsYYXr7UgA3sNvGCWS2ZRgf0hcRd2mmlWztFYMAHxH3zZJ4lUFgt9DcVmi3qJ6vkPPAiDgm/tmCVxzJ1RJFBeaUEXP7sgGIHjSY/Ht0hI6FohMXT/ozAigwvRosc0F4jBLGUZ+D2YAlX99KSrLCMp8LMs86cYOIHzuaxHltSNodpZpGAYIARCxOEE0SVUJHtfLNPCSlyCgqb00QST3fAjlX5dtlIwQBkBTa0m8KI7oCc2yyjbwlr9AAJpaC16IYAUQ+5rKOExfCwYAVaY/NAn1LWUqlnU+KCcCgHJjLxUIUtSdsqHMw/KDKAA8uu96L0BqXYLTqTIPfFZJHAD6RvMflbCKDiIERpd94G9iAYCgwQffsznnTKiZUgYSW108AA4Nf7qex2AjELsXlYHgIo2IAMCzwx8PCyk/UsZgWejbuuICgIBPl98vsMY0gLKiTARXasUGAP6d511OKyW7BUG3v2wkpYkEAMCtwTe7nuYhYlxFgs+9shHcZE+q3dlRBABgF9Ru+oEXZz0IlRLKSDJak0KvHersKIYP9SFVdYR2eWUkGOVAga8x90A3F3EwHGwpK8n5hOR7DTH/RB8PSczGMtMjLhQYYEBEw+WvgiSwveykoBfJ+SB+aHr4Y3WtyNyulJ3gGXcKtEr9ABHj17R1FlW52DKUosEk7R+lIGafHFVeRI0yylDwqi8Fwp6VhmiKXtraVSyfG7lhNqlgxnEkGFNiBSJmn/8+wl4Uk5Cbj0+rYPiwPMntmHWI+HbPsIpa4dbxY0PXPBUMfyVBq/cURNPLLYMq6YRxOM4Ny1cOJ9SwuDokzVwaIhpjd46q4ShAwFNupNaDQSUqGK6zo0DgdRaIaE46OaONv4ZR9XfcuOgKgY/UsMxOJOiSyebD3IcbRzf01jDoauDGzwCwQA3D054k7RJ2iGjJuLPh6xbBesKXyMvMZgDQPEMNM44nQbmbQnw059nx+cMahjhqSlnKjbMuAOB8Wg3D6HASdE4X6kNT1vNzqyf3bVjZXW+3hxvfwYdTVDFcaUfSzLKI4OMlWW9untwax4s34R9plK6KZXcjgc9p0XB2rfYjrpdUMbwWQIIm8XKU0x4+PlMds8zUkOArgwz941zKJ4WqGKa0pjmslp/iQVBq+ZfqGJ71IUG5a7Jzw6c0+0MqmflnGrRMkBnTGLByhkqGKW1oMKJAXu4GWtO9SCXDSwE0+8UWOTF/A9ZWS1LLcLGOBN6H5eRuoFVed1Sz7F40CP9PPkxjwWrNDtUMH1alQWS8bFz3tQ5mqWe4y5UGg7JlongIEIda1DPjFAbaacXycNKN0sWgnuH7zjRwWGqWg5wuQK2erKLhvXAaeOyUg616UvBLNQ33eNAg+BT/EhsA2fe+qmaaqaNBlWvcmw10p9OqGmYPZgC173PufggDTZS6hm9aMoDmz7lWNAxYblbZ8FZlBtDuFc8OODNZo7bhfm8G0CmOX++aAtM/VTfLCkcG0DWBW7OA7WLZMBflZ6cmxsfFJb7PzDcYFRwW/aBlAN3ecupmIKPZMmBIunts2c8jO7VoXDciPCwsok6jFm0GTl2w998EgzLDrCEs4NN4LuX2BMZzOJf7eNe0LhGeDsDS3i2887T9MQYFhkldWcAnb3i0xp7VYp69PzWjtb8OhLUP6bH8QZHiwphmLKDDC/48CQPWK7iVd2lKPScQp3+vrUlKC/+ryQJaPeKNYSgwX8WppA0d3EHEdnXmxigsvFyFBdS/xZltjuw2cSnh9zo6EHuVX2OVFZ4oxwKqneNKTASw38Wh9JW1QJLVV6QrKtzvzwLKH+CIYQSwdzzJHeOJNjqQqLbdWbOSwp2+LMB3tZEb2xwF8LnLm8SJHiBh759SlRRu9WYBzrPyORFdHQQMfsGZSy1A4h1vKynLBk8WYDfmPRcKhoKQEclcKVkfDJKvtNuknNCywZsFQLfnPFirF6SrgScFM52Bg+6LipQTWrb4MIEGl6T3rBIIOtTCkdwJdsBF/Q85ygkt2/2YQMg2o9Te9RVmLvIz/3sdcFI7Pks5Ie4JZgKuv2RLDJO7CaHbw4/in3QgrNbB1a9ClbCqVSsF+7jqtYKAdmyOgsJjFZmAtt9LieHT6gL4PuTH347AXh/cYugvG07cePjiTXzC29fP7t88sfGXgQ18NMxAO6lQQeH5akwAGlyVGK63Z1cnlRtn/YG1T5ufDz/LMSHdmH533eBKWkZgN9ukoPBWQzbwq9TSm7Prb+JFQhNg69Ri8Z0cFNAYu/4TVzbgukVJ4ZP2bDZIDZewW4KcNE0Apu79j2Wg4Hmn+7sxgeBLSgrjPmehPyq5O16s3K7w4qwXC32PUwYUpeGfDjoW0CxeSWHaeHua3yPJpdRiVfs9J/K6AcOwtXko2owl5VjA6CIlhQVzXUkVEyRX1I3VSDMnDjgy6P4IRX29DQunHYoKTRuDKJE5kjP1ZWQXhXws6A5k+69TUeSJo+xoEBGjqBBnU/qaJGfszSgsjhOX3Um6yfko+ryfHGnwtVFZ/UyZgJLPiWQ00syJyUAem4sSLJrnRPM4pagsQyirpBdbno3+APIxpTapXTJKsnimngRdcpRUXjuCbp/0DurZNErlxFlnSuA1lGjhdxqSfoeSSo4geN+RnGkEsF2InJwD1GkWqWD6ZyRoma6gngQQQl5L7k4Am/LPOFHSi1L5OUr3aU2S/TYFdc6Z0ChDaoWDge13Zk4kR1DGWySEUc4UaJOlnLZqCL1KpPannk3wfeTkkwCC8wmUctGXJMcjymkOEMegxHf5AtuJFl6cdiJUT5QUPo+gQP9ixfQlZZnYzITCP32BbYXHyMudQOxeJC1cqaP43VVKhV0Iml0iK16wPNUK053BDsBWsxC5uYkyDiX+vhkFZiul1LoE9ysi2+ykbTz/RkpBUVFu7MERAcC6TRo/1lB+lBpusac0TldIMcGE4JfiuhoCAOBeq0W3T5qG2gNzv3PIz1WUXyWXEUlxPqOQrrgRaqWIKq45iNJ+GXJ0A2Wa5HClhgA/KKQ9WsKnRWLKGwLi/LKAJ1spE6T3KpzSMF0Z/Q7EL1DE5jk6cfROQZ7uoIyUHk6kuF9VRl9T5opprweIsstb5OpeLaFnsfQuuxNgkSIq7knZKqLblUGMmn4JyNer7oSW2dLLbEbpUaSEMhoTnM6IJ6E1iNHh+wzkbEwQoUq89HAGpXKcEnoTSgh4Jpr84SDGiusNyNu3lQkeNzhwzpXgdFoJ/etFCE8Si3munQgcP7+L/M2JJGi3cuB9XQL8roQO2RM65ItltwcIrmsWlY8cNg8hwNccMA+jDDYroL+AONAikhsVQWinthvfI58XU5pmSg9XUBpnKKDJlB9RnC+bgLB24V8ezUZeH7YneF7nwGU3QlCM8jH1o6wXh3l5hJcDMzvfpt9ExZmR38+CCPArBxKrEZxOK5/sVgT9EXFYCpLv/bN0+rDI+lV8XZwdHfT29g6Ozq4hdZoPnbXnfhbyPa8dpVGq9AxdCLBB+bwNI/g9FEeppoKMuEe3Lp86fmjv3uPnrtx6nppnQhn8haLfKT0cR5mmfO77EkLjRSXXp50I0DlXessoAy2K54QjoWW2DZRci+K4S3qH7AmfFCqe9UDsa7KBcDIFmiVL7o43oUaK4vmJ8j3awpfdKZrfLFJ7FUIIeaN0LEMpf9tEeR0o4HtWaskRhICnSie/PUG3zybCdToKNH0jsewWBI/rSic5guB12zZKaUSCITnSKupG0B9VOk8CCCGvbSP8W0vSzTJJyjKYALuUznkXQsN0G+ldAxK475QUfknZrnS2aQifldhIuM2BBBVvSmo8ZZPSmQvE0Wgr5/ehQcs4KU2krFc6X1GW2kx4K5AGQ3MlNJ2yRuEYuhA0O20nXKSj6WabpPMr5W+Fk1aX4HbZhsrpSwP3XdxYpXBelCMEv7Ch8HlNGlS6KZmfKWsUzlV3Qs0UW+p1WwbQMk4qMyjrFc4eHeFTg+1kOdkQmA7NlchUykaFswSIw9BmzprrA2y1s0zSmEzZrHC+ocyxmR711AJjp2kGaXxH2apsSj6jbLGRSnaGA+sqW4tQml9RdiibzCYEp9O20bsJLsBY2+0+SnUoJUrZvAklBDy1ia62BtZeMzNQquZ+BPvDyuZfL0JYog2UvyIIWNc/ZkbJFvckuJxXNoftCR3ybZ8XQ+yBsf6LWJRwQUeC5y1lsxKIA822jvlIHWBd7u8ClHJWc4LfI2UzhTIdbdz0XzyBdbtrKO33tQnBLxWNqT9lvY1zt6sGGLtOTkaJv61EKB+vaHJaEeyP2DRFmyoB6+pRRpR6TBAhIlnRJIYRfB/YMgnjHIGx7vP/Ufp3vAmROYrmgS8hNN6GOd8MWPsuyEYOnnEidC9WNCcdCS2ybZbcxf7AuslpC/Jwt5bQ36xoNgCxj8lWedZPB4wdR8chH/8C4nhUtD9TvkPb1LgvAliHrjcgJ3+h/K5oLMMoK22T91PdgLGm823k5kjKZkWT34Gg3WuT3OwArD1+TEVuGroQ7A4qmpQaBK9/bZDC1SHAuvZBE/IzrT7B619F8zSQEPLK9ng9Sg+M7QZFI09flSeUi1U0510IDdJtDcuJhsA6cFkecvWGB6FemqLZriH0LLExsub4AOuWl5Czu3WEnsWKZh4Qv0Lb8lFPLTB2/jYReTsPiF+ioh1NWWJTlOwIA9ZhW4uRt5bhlN8VjaErQbPDlkj63hkYa3vcR/7mtiFodyuatHoEt0s2xJVIYO09KxM5/KYSwfs/RfOyHCHohc2QvyIIWNc/bkYeX3QlVHmraK65E2ok2wovBtsDY/3wWOTzaiB2LlQ0e3WErgbbwHy4DrAO+bsAOT2eMhoV7VIgDrXYBOk/ewDrdjeQ13ltKCuVzbeU2WgL/tdFA4zdpiQjt6PLEVzOK5qSXpTNNkDRporAuvpuI/L7gD2hYpyiyWxKcDwlf/HjHIGxrs//yPMZQOxcqGjiKhICnsreuWbA2m9hNvK8oBNlEira216EKokyl7vID1g3OWtBrkeXI2h3Kpsj9oT2efL2tK8OGDuOiUPO79AR/B8rm7+BOMAsZ8a9EcC64gYDct4yBoiROcrmB8o0lPH3P7gBY80nd5D77+tSJqKiNQ2grJOxm+2BtcdPacj/864E3R5lkxNJsD8sW4WrQoB17UMmlMEZQCz3XNkkhhN878vVq5F6YGw/6DnKYUYTSjeDsnnoRwiNkyfLiQbAOvCPPJTFC66UJahsTzkSmmfJUtZsb2Dd6hLK5HQget5SOBuB2MckRw97aoGx83eJKJPJdSnNsxTOr5RvUX5LtocB67BtxSiX+/WUGahsLV9Q/pKfpO+dgbG2xwOUTeMQILpdUjj5HQnaPbJzuRWw9p6difL5JITSIkvhpNQkeN6SmfzlgcC6wT9mlNH5QJ2NCvdZIKHcK3mJGWwPjB1GxKKcpjSgeN1UOhdcCPXT5MR8uDawDllVgLK6w57SOV/p7NAQehbLSPpPHsC6/Q2U1/xPgahZg0p3PhC/RPn87xMNMHabkoIye9KVUuWV4hlD+V02ijZWBNYRe4wos4Z+QP3aonQMn1J2yEX8WEdgrOv7BGX3ggfF7Twq3bT6BNeLMnG2KbD2W5SDsls8FKhd8hVPbAghKEYWchb5AeumZy0ovxe8KHY7UPFe9yBEJMvBkz46YOw4Nh5luLAPUBulKp99OkKXQv4Z91QH1hU3GFCOj7iQlqLyXQbEoRbupUxxA8aaLndQlrM7A7XqKwX0HWUW8v5GO2Dt+VMayvNGPWkWKt+S3pTNnCtcFQKsax8yoTy/qQPUsJcKKLMpwfEk316N0ANj+8HPUaYtM4D8GyrguIqEgCc8s/zTAFgHLc9Dub4ZSKoSo4TueBOqvOVY5ixvYB15GWU75zMgz0UlfFRPaJfHr4c9tMDY5bsklO+/7Ul1EhTRKiD2N/OqeHsVYB2+vRjl+3EVoOpWoyKeSpmKnE76zhkYa3s+QBkvGALkyHRFZB5IWcupy62AtffsTJTztQ4k5/2oiHNbE+wOcSn/j0Bg3eAfM8r53YpAHmxQRonhBN/7PHo+yA4YO4x8hbKe2QPIIfdQGUcHEkLe8Md0qBawLr+6AGXdMk9Hm4sK+U0FymvupP3kAazb30SZP+4D5ObJSim1DsH3AW/udNYAY7cfUlDmo+sA2f0YKuW8dgSHf/hStCEUWEfsNaLMZ/cF+gSjYjL1J8AWrsSPcQTGdn2foNybZuloDeJROU+kzOHJ2SbA2n9RDsr+Tncgux5ABb2UMowfOQv9gHWzcxaU/WuhQP++REnt0RE6F/Liyec6YOw0Nh7lP7YJ0FsmopK+7kEIS+SDcU91YF1pYxHKf3ofoPtfQEX9ugLB5y4XUqa4AmNNl//QBiz4RkPTLUJlndWMoN3NgxvtgLXnz+loAxrn2AO9X47CMg0gwC/SK/i7HLCuc9iEtuB6V6DXiUGlPYvSq0RqscP1wNh+SAzahAf9gO57EhX3XjtC9SSJPWkMrIOW56NNeKY80O2XovK+50NwuyKtvL7AOvIy2obXw4HhqAIFllqPACuk9bcdI5fvk9A2vF8HGLZPQgVuGkzpb5TS40rANnxHMdqGT5oCw+oPUJEvpYQnSKjoC2Cq/ewh2ojPWgBD/xOozC+4EByOSeiQCxOfOVloIz6PBIZOq1GhJ9UgwATppEUCy4YnLGgjvmgLDO1+NSo10xBKvVTJrNIxcBj5Cm3FmHbAckweKvZVFOeTUkmsC/TyqwvRVnwaCSx7p6Fyv+9HgPEWiSzT0DrcRJvxUTNg2TYOFXxeB0p4nDSS6gDV+Yf3aDPebQQsG/yPin4uRbtOGqu1pO9L0Ga8XgdYRtxGZX/DiwDtc6WQ2QqoES/RZjwdDiwrX0GFn9eB4vyPFI44UuxWo824vzywLH8aFf9SCvQxiM84BKjtM20F82Y/YBl8BJX/42CK+znxPQ2mOO5BG7FoqQewDDqAKmDJUAp8Xii65UDtlG0j5Ex3BJaB+1AVPOJIcT4stvxOFIc9aBumjNQBy4A9qA5mtKRA6zSR3fOlNE2zDV72AKaBe1AtXK2laH8X2XKgLkGb8HZzYFruIKqGb2tRoPwdURX3olSItgmOhgPT0H9QRVxIgu5ZYnpdkTLEaAOUrPYDplXOopoYV5OknW0W0VE9wW4nyn/Oj87ANOIyqotLNBTwPCiiX4EY9kb+4ofogGnD26gyJjUiQfgd0RR1pwwwyt7tSGDb9gmqjtscSND8pVgSwyl/osyb94cB2x5vUH3M7UGDTnEiuelB8LwlcwWLvYCpZmgyqpHXAmjQLU4c2zWEuqnyljRaD0z1E7NQlbTM0tCg4wtRzARiX6Os3WkHbF0XGlClTGnLAJreEoFlEGUmyrhpdxVgG7DRhKrllSAGUHmPSbCCTgS7vTKWM8sD2IYdRzXzD3sG4DYjVah31QgeN+Tr5QAdsG36L6qa+SNZgKbtBbMwscGEkFjZOt0AGPeORZUzoTULAN8psYLc9yXUS5Op/GX+wFb/XTqqnneqMQGIWJYowGknQscCeXozwh7Yei4xoAp6KpgNaOouiWW2W0P43ChLF5sC40r7LKgoLbzCXT5sACBswqVcNtuBOBxlOH9FEDBueQuVpcXELctmb1YA7m3m3chksIkyQYZefaEHtrrBcagwzSXcQstGH2YA4Nn42533043WraPMkB3LqYbA2PW3HFQcBn6hJSpYAADQ+tYbMGPH6f+T0vONFkRcQ/lNbnIW+gLj0O0mVJzGfI4h/hMuyEe1DoHhtTr2HzFm3DeRlJky86SvHTBueQMVaHE21/BOpGBCzpIV454IYGw/PAGVqCGdbxj3hb0tlDzZDRh7L85HRVqQzDnMXx5o+1xtC6xrHLOgMs1N4B3i5Q5a2yZvRTAw1nz2BJVqZiz/MG1esC3zdIA9MHb7ORMVa2q0DCDeGexiqxTvqg6sq+41oXJNfiQLaDjcycEmSfjGBRhruj1EJZtwVx4Qs6PaO9kcltNNgbXbj+moaGNvyQVi9pG+PrZF2kwfYF19rwmVbfRV+UA03JpRR2873OisAcba3k9Q6T66JCeI+O7AmOoONkHu8nLA2ntuNireO+dlBtH89ui0SH87uXvc1w5Y1z9hQeV77YzsfJjzePfUT6p52slW8baqwFo//BUq4fP7ZOlDQ+Lt3YvGd2tWLdDT1dFOy2Amx+LHOwPr8qsLUREfWytbHy/OSoy5c/H4nm2b169Zbf2q/7hlOd0UmHf6FxVy1EKZk+Gseb7A2uPHVFTKG36yKKtHvXTAut4REyrmPyYoqpKdVYG146hXqKBnjzMrqJTJrsC68kYDKmjLlJFG5XSrPbDW9XqAito0ukeeUiraUAFYByzORmVtGNAiVSG9+9YJWLe9gko759NaScrodntg7TnjPSrutFZh8UqoZHslYN3gmBmVd1Kt8tEKKG2qKzB2GvMGlXhsqOcV5fPwUw0wrrKlCBX5/QCHI0rHfKAaMNZ+9gAV+kV3TZTCyV/oBYx952ehUj9kDyuVTcIIe2Dc+IwFFfsGgCmK5t/WwNjhqzhU8PMAhisY0+7KwLj8WgMq+e8APitRLHmzPYBx25uo6E39ABqkK5XEEXbA1un7ZFT2eW0BKr1VKA87AOPQzcWo8FNqAPg+UCanagLjtrdQ8UcHAuiPKZGSdYHA1vGbd6j8L7kCwCYFkvOTM7Att7YYVcBdWgCYqjySvtAC26aXURWcBwAwyKw0orsAW7uhb1AdHPVB00yFcb0RsPWcn4fqYH6HDyq8URaHqwDb8P1mVAkTq37gckFJGNf6Adt2d1E1vO31AWxSEIZ5LsDUblQSqodRuo98rxxypuiBqfuCfFQRf4GPdi5QCqmjtMC0YpQZVcSS3h+rFKcQ4vsA28bXUVVMrvkx53PK4FlHYNvrBaqLNz0/BssUwb2mwFT/fTqqjGs1pfQ3KoBbdYGp++8GVBnNI6HU6km23+UIYBqyw4xqY1r90lzO23xnwoBpzfOoPt7yLA3m23pHQ4Fp6weoQv4JVnYusO0OBAPTPnGoQhb3tibwf5tufxCw1I1ORzXyZag1mg223P4gYOn4Ux6qklF21kDfEtvtQBCwdFtWjKqkaQRYXe6ZzXYgCFj6bjSjOvm6inWa1bbawSBgGbIP1crtdtbBp4W22YkQYBl2GtXK4v5A9L5pk12oBCwjrqJq+SCQAtNtsRvVgGW926hezgNyzUTb624dYNn4AaqXqY1puo0215PGwLLF/6hi7tbToF2OjfWmLbBsE40qZkEPYOh83LZ63xtYto1BNfOiBwvoY7Clcr8Elm1jUM0sGQ5M3c/bUEXTdSzaxqCqedOXDQwutplMvzsAw8jnqGqaxgBjz4s203Z3YNjsKaqbt/xZQX+DjXQhBBg2fITqZskoYO520jZ6UhcY1rqLKucVb3bwaa4t9O4TYBh+HVXOwv4goH6HDZQ3ChhWOIdq5yEXIaBJss1jnmfHwO8gqp0Z7UBQzXybZ78n0N02oer5p04YCLln49wLB7rjUrPq8SwchB5ssGmSOwJdO70Y1c6SMSC44zZbxjAeGA7PQdXzoJtwEBFjw6xyYNA1GVXP+IYgxlFFNsu1ckBvEI2qp3ECiNJxk63yrg3QQ6+i+rnXTRxQ+b5tUjIB6O67UP2MrgFi7ZZhk+xwodnNN6sfuQNAtJrpRhvkUTjQR+aj6mmeZycecN1he+T1A3rkW1Q/D3mBmEOv2xx/29Mq/Yvq573qIO7GL2yMuxWB7LID1c+EtiD2Xmk2RU4voE81qh/ZQ0D8o/NsiRV2tK5pqHoaJmsloJteZDs8qgTkyvdQ9TTO14MUHReU2AqGYUB22oyqp3mlK0jTeZnJRtjjTBtfrHpY1nmAVF3/MtkECQ2B3Cge1U7LZi+QruuyEhvAMgPInv+g2mle5wVSdl5QJH+3AmkzzGqHcaUHSNtxWp7cGQYDuUUyqpyF81xA6trRaTJ3xJXkeRJVzuxJeuDgZy9kLaMdkCebVI6EIVrgYuPrcrbajlQvHtXNe22Al6HbjbKVWA+ojrtQ1TQfqgb8dJ2WLlfLNKSBhapGzlwv4Knm03vyFF8LqMH/oZr5rL8OOFtpo0GOFgH5V1QxS/bUAP46jnwuP68jSHXiVYy4712ByxFbC+VmEVDt1qNqWXygAfDacdBdeUmqS2qXqVo8He0KHA+Z+05ONukoTvtRpUxfEQZ81zTeliMb+V2B2iNfnSg82EYH3Nd3PWGQieteFNcTqEaWXOrrDLLo2vd8sSz8AtRehSqE8eYIb5BNj4FnDfzLaEpx+QdVx5Lro/1AVt16H83m3RV3Suc8taHg/DAfkF2ntuvf8m0eEO22obr4flc3d5BlbY2p1wv4ZfiUUitJTSi+P6eRHuTbq8vfT4s5FVuRMglVQ9OrrX0DQO6DP1/3uIBHJxwJzqdVgqIXO7+orANbUBPQae65RCNvFgOxTooKYE69ubxXBTuwIZ2r9l1yNq6AI+ZhlOEWhVf87saa4fU8wQZ1rtTp2w3nX2eauZATSVmDit2S9/bWrp8+q+EBtqxL+cYDp2w8dv9terG0EioT3K8pMFNu8rOLO+eObBfuqQXbWO9TqX7P4ZP+jDp8JTo+MTXXaLZYRHbPh1ApXhlZTIactMSX9y4cXD/3m75tIgJdtWCLa/SeIWG1mncfMe77Hxeu3nvm/MWrt/57FB0bn5yenV9kNJnZnXEmROYoDIvZbCw2FORmpr6Lj41+dOfauaNR6/+YNfmrAV1b1goNcLcHzgMAVlA4IOQdAAAQnwCdASr0AR8CPpFIoEulv6MhorGpa/ASCWNu9ThREJ80b+m8Ux0Z/Q9YbuNPGP6044FYwtV/MvxI/LnyAOQA/in82/FH8ndv32c7LEP0X8Uf5XdQ0efl/7Z+63lJxv5q+8flD/e/3U6zbm37X+uv717wfJ3snz6fJ/1r/vf4L/Lfut89f9f6mv6p/tf+D7gP6m/rd/p/i9/zvUx5g/2r/dP3gf+d+3Xug/x3qB/3f/bf//12vYs/ej2A/5T/xvTl9kn+6f9P94PbJ/+3sAf/j1AP/v1e/UH/A/hV8cbmhfjcL7O/3/L+BkcllVZ+0+gB6R3d01Av5J05fQA/TkUJEmNwa8e1V480Ie1V49qrx7VXj2qvHtVgYwJ4v0tePaq8e1V49qX2ctzK3thP7IvS6lSLXxpsjXYf76Gp2qsre6LnWjJKpNYZSYnZvljd/1MeCtUrZ5I1joK4ZpPq+oZFnEXQ+GrAhDwoBVW1lDPariIuyEaUFB0yIVlO0xzEM6JWnZk9xneRCcp5LNxJPEjlPlkbhp+XqTYCLq11eZybxOSlGJwnaoMtHoda6IDWlVJp9t0TsogAs1S/n6ghZye5037FV2Z/1cMi1pV1VbpymYpF+sp2ZPboG0K5yp4VmpFCwRx8nIH0dsI8A4wP+icktqwYdn1VLIraGASgVY81mrrUBBaWYkSYOf+GoxaKMD4713ADbVnXMilrqOMvdZaSxkf39GvQFrV+owlTO+w3M+q0P+qouDlP5escCZy7L/MaRTPnY/fOx++5S95/ZXpSIXHo7om7awATjInY/fOx++dj961DhbXvrOlIbBr5GqY+vB/987H752P3zsfvu2+RSnZoFKEcZMj2EpnBkw+DJh8GTD/b5B9oZpykbfrnjmhG+Y1jOD8rpLnsrEKGJ987H752P3zsegfJY8Aj3t0Z09GCWxHE5987H752P3zsfqwb/oKttO8oeWzL3MfWSdUK+Y7U1MFV1jZ3DLJX+oe1V49qdIA4ZMzyXoyAYHQiL1MJlWfINhU6XbczgD987Hvp1XTJACpSiPUzfgiuYft2cnQJX2ntMwR7VXj2rPG+zhoXCwr868Sl0AbXFI5B2H5+nyf9n2yywjXj2rPG/pOyj0I12GmvYq3tnlDPdA2xPvn/Ze7OS+158KK/LEaMFHTk9Z2l78J7wiu7hnwZN3jf6wrLa7H722vw5bSJkfAXGbB3GGhvd4m4pnBkxbdtXxlL31UYdDgZAdIdeRG/CVXHr5Gaqdj987db68xuKEFkiXoZZhVIIupKSGngyPsdwwPE7H752630Po8ETeJAx1fUqllPrJ9IWh5jQqTODJh8Y19P+mgYrJIHTiDDgApbnG1Xz5/WHuhfx2SVLx7VXj4P8cCY4NUkzU7SajGL5MfFJeDAoD2tdiSyd4vD2qvHtViu/pSYg6Bw7Bgde+XRO2sVHTQaO1nYSMoAhI1KiBbYZ8GTD4MmLcMsKiIOXHAbC8aT63WVyrKA/T4149qrx7Y8x1I/GiYvkC5EA6ICWSYHhnwZMPgyYc0L3jfsv0xecpQP/sREryxTODJh8GGkprQzSWcH9V+jrIsGjmfBkw+DJh8GvJKJCYXvxaSsuVUusF2Paq8e1V49mij3tcQrbakeXR0b0rTln2zQPVXGJnY/fOx++diW2bp2qzBo1PhhzZCoC0kBYQjXj2qvHla1W2T36AAA/hSgAChvCSJM7ESxh7Ja54hA8eV2h1wur97rFdrEAAAAADs5IBBNtwnjpe5EbDhQM2M8AAAB9m+6EQpWXOOndJPQ2lCG42uMblIeCEw9yaSsXLpu34tIc/vII8ZGBRY88yPyuGdvf4nZyOip9/tnn8k21/MrZO45s6DCq+xEiP0yE+aH/+q5dY8+3lEuLxonfaaGX+hI2TZZvEF+JQAGkCJNtBx+qC8B1oK/jGdR66Uu3LLAVrFvCtjgbmlGQF+Wuse0KfDBHy/zVe9tjRpA5iXIRB2hukVsCQ24m4cqX//gkCwY7a5SpKyyi7LuaQXi+nFBwStV8HTQdHbz0CCD9YV6Oc1tYEs71jYIOkdQP+c9EsKHV9nKE1upL5CBwpJMHQeXk42/V2Azq3+H+jEeFcmFkaJFvqFa1ju0VeTv/wjlWwhCH8lcIfTcZerAtVltKUcRubg6uyNdEcHNtdnggR7IOS51HQj//tpgRCGDu47JvY0Y8097luyc02SIedhQm3QRhqTX5ThvW9/rclPJKmxffiPZPEJmrlROnOKCXJCV/d9oCUxmEQkcvFU/IofUhSSDKlhmkPQHEBZtALscENVRK8kO3fhTBHEcORbRA63QLmwu13mt7VnYWSJOk3lfEZR0UUESp9iTlVqhuihehltGXbm+Tz//5klxFWa0b7Y3xaFyUBzuS8pmpGqX3R4WSHVJ0NFkttbcjYPTrcXz+hJjWpSHKaQYL7z/UDzSDcvuM2Haiv2jzRVS9GiB/1bTzh1SySwt1qLdCRn0v45lE6g4q03Jc85bqy2IWhuD0Hdm6GjvvjjgucMTeQw3d0vpX4Rt5DhOpkshXIxtYUJaRrgdKdSU/AZpaxy2Gn1FVnsHeG0MXu2To5K6JxGLuup7lfjsjyv/XgoIwVuhZ0wexwP/5Q/0TVTQzderxGKyMGdtOlKFmRllLvgUjPndLP7aGvW8j1M9argaYPPvnzl+8efBCYNDh6voz2fJsopZ0Z283qVh+ZLWuf3A3TH3RtZdO58NEYrOrPKSQ4vz/t1irh4LiytvvqZ2cZ2x8JH6z/vzla1L8rzIqNJnKEUR3zG6cC3uCRdbaKiN1qdKXNt1Fr2CPOTGFPEMOb7r98qih9iSJS3pLIHivrjKXAtScDGgCRmNrI4wyfqCgfz1QPujjthloWUXGbCHZ4qAIflVpDvm1GDcbQkaW25PGUTdRNWeaQ/np2YDhvwYv7bheYhKoyMtrf6dpFUTZCxZudKfyIgepDb2LGNMkx+n/onjmJY9xNnJrhM7adlts7Eg8EnlJ/hRiEcz9F40m1UrDxijxj4IAlj0zrC8n5J45ULYpqSuB/szp4qSgkEj5HOKkn6eQd/TWmN7pTM/MXorvltffNK92koEX7iqXauL+Rvu7dC/53dISlcLKcX6Ux5heQkUk6H/f14wlzkbMBRbxPmvUX+BAcj/6uPL6d1G/07VIiE8bWHTD6GAIIfzr+hUEEnaqToi7pgbbrKMhe38hSQJOtOLYD016sRRRto0CK2o1AjdBdX9DPN+Owop8Ybf6VxNCs533N3RpTqU/h+oRyuYWv7ezjDhSFLr3dSlq6Uhnixpp98BAc4V2d9BUPV2OCchsZd3SLMb3eTaE/7FCvF58PbLlVyafNBnXpgMXy9+vIB8B4Pqvfdl7lJpWbeStCkZLzpdKVC8DIHIj4ZgHU5/ilbzaNYtfesFYfE597MSDBQU1M2YB1/BmTo1gjYk9QrsjieKALCk5qJog6y8YczOdgSahAJKaJzLd86WOe8I/Mq/UPjFfwEUQ78tPMq/Kdn+A7p7aWxfYUWEjLaZOnl5lYfR7K7bYbmBRPlH7AEyzMhaAR7qBPoaz0WCCkEh7HyLG/hH1R51G6Nzclerpblx5zd4zGNP/zs6WPwQHCPnJsvLYQS4dx0vfsw0BOwAtQNaihY9YCE+sxW10KYUpIV58YYn0PREo1VemixqOKl5Mz0twZfLGFk9mUiBubtsV1Mopp4Qx1kizcSEwWqueDStnmXMEqgG3kne+3hQqbRV9t1nq/FqcRZ+T5O2TqaKn5wV1LjrartZoeAe52KvlnyOjZhbqtoFm9JTTeMYbV//SQ1PriFDJ/ABWEi3RGGu17LbMO5jGk31Gp06mxOn7Z3ZHyHa/cXU4/AfN4IY4wE3E2dgcL8hPKdCC/XePj6RvyYlGLnXY710rHMFPTNAnzOq5FEnueTMIYOc2tP0lgOosFZzAxW7xwKym4i79I2MKrqAf1VavvnOePHxbUyGV6e+Dhjw4Vd8nkdjtU13w8lvk+K/bDJoy+L2Ms9MpByaeWgYcAVQlfHHzPBMq7hPN1Gvat315ZXqd8YmxiBLYMtvmul1+t+QGs5eLDWUbARz3MHzyyAY/oEuSlb0m+/aLA3TddnuvxXmQuERfmHmzQ4JB6ZqKCl801kkWw/AuHZyMpexTYjI1OlCgCK5Fx8QWt8iD6h0U7EIVVWobAIjPkaCcTgTvskXRNv6cE9VPhbiIqcX26R6LsiQY9nQ/6wYP0ui+1PABUNY40tCJdicLoImeAhMH9tNnF1qrpOlNfSK2j8TPcx5zWTBcx3T4qpMNAg2i1OwOeHPkz72tsrWbbH9BC3pwuoKR5+VBiFDD0Iuc4pS7QN4oDOxGpckizvpbofqep1Wsyept64XbZbYpf12ry05hwAAAAA5ODdS7ROkfDG+Cu1XXDeRF9uCDEeBm38EnF4no+NxunMeUoLPS51xhfXXAn8UCY81SL6uPLwnxL5IC6RfRH7OFT2ZpnsZtR+ob/x9k77f/B4agoj23Jnq9ebIx0v/91SdxFlOqZJ3/WfAGRWD2vz765Fq3arxgEeQY90HLJuuF206tslBFtTmqEpnFniB7o0MAlvjtBtlbdeqBxpbFoQaRt5jv3NX/wRjNncq/tkOkRQAjbnX2TgCfpQ8HIqeDsHylH/WURWV2KQJqtwm66YAAAAMVRNM/cgkzxnCCHKNi6MFzS1q9iifki1vW0S7raPvkqYLd39ig5uOIuLHuy3XFxSBoUGWKAqSZwSRXfXJkJ3bO4SUGnteeVy7ftVZIiKkeJUJJVdIf4Iktm/FvXv7Ma0X6M4Y11AAAAKH5IGzKvFtWHQHFlOKfOWtBlZQ1835GOkC+smkXZUEQj1CknLEpBBO1YvtVKckBYLdWrRpy97CE3YEWP4H9ortWs75cOUb/qq+rfdRwAGcZGQB2aUQPGmrUrcGjhJVUddvWqttxvhMBl8xkjRL8n41ecRFv0zUQ+skm9HMwAAAAwGsoSn7Rf//Ru22m6bwLguJ27h/n4NUdoj8qTf6vyPv942K6RQtgT5oZI1nOYS+TGFlfWufZkm/NaiCxGho4AAIkh8/arG07rRdDWYJyRI1PBGOMgu0ClvQ0WDG3JcpDqALBsi/8jYro7BngWDC0J0oBmbBt8ewk8aAH+g5kvTkgNnWMAAAAAI0u7pOW2o/RWYm8Di/V+OLzUQOXQ8bjgmXzuvScGdAH9lwlwelxK1xQMYizD1iW7HvCKOhHQT0W6fEPbDz5T/Je+q3PkF556WDFre5fE0eGc1CxQT28YtJvoP5qOMyp2A8vUzbG4wfvOaCri4ZiQveFlDXAEHM6/1EBs/pS6vrwwpXsPGkY2VaMZSKYOOyqJzbyYNPlwaw/oS3CD6kFWK+2fPzwGX8lAAxpqTt2cnzJ1+V+gYcAAAAV5iOulU9uCsB/aJbYMYiGPSdsXrM4ADqyFXEak1Corrs/jL5qIL3Yd6esGqmcXnss9k5DmCtz+5yF1G1AcZ8SxvOnuepn3x0bwCEDsS5jay4JhTlfQVkEqsjYHapHHkkmRJalZ1ZOSvbBrAAAABxVA5dBMt2873BlnEqgsysu2waJVy2oU+OM6vj04kBLfA3mJ6Vnm6vkl00ZtxyYSTDZy6Ac9jHF+QmqWDcYVgJ/9rNrUJK3D1hssyuq//93gGr6sQy34zl7gB/Lf2crsFgAg3++2YHdLeM+HzgTyeoPM/StZDH7vaOKtZs5ogrfCgmfcX1Ze1CO37RjPhBMbIYKuRuL8Klks2TlNSNPZf+zX7nN1towKcxZ1Qc1ung9rJbfluYeU8v6DDouADbaIjSHqD7bvKdVJDsCKCi5KYvD2CJxSnmz19G7vNmFJceUlXe9F9+cEToJL9RjiSCYyWy6gauQ4x1ThpRZeRYOS+ta1akjBltHKR3LGYlkrTpSlbildoiayzjxwizVHrOjZIe6s6WFTWoycwVGlrkqbAkJgYZJv17Sj+cy5aOSfw198UmlR+1b1WT+4Hxf1dFmy5Yro+SUaJqpuzzy9byuUbJwkTsq/2yo1y4WvNEgvqCf2Qgfc8sUWa9IUk5sGIcnPNBT3UR4SvkRvivrHGs7YxlrInRp3y9g/l0AWSYjEFUojsThjskQby6YwXLlhoUQbbv6f2HJ7oXU8Sc6kdPNSKHSr5qB3/Sjy50aVXO4AH4WqiVZ5tumx2RHcfd0SvSAoG3iEYGeN9Qj03HUACn8T+WiZ3kYyPU6iKzT+wyNUoTk8ZdsEvvytY19r0QKQpYGeRbSdjKRR5HgHLVlSrRZi+dTaLMxR4lb0xpMHVagG5zsLCrndc4Y76JIFQss0tjbiiaj8vnaYeRetwNnuRxnfGBQKgr85+uk5/lB0sBA9cmSm+4nHDj40KJxEH53f2u0CHmamgD12PwdDHu2ibrVbTUvf0b05iobeDUOrLKQmkh8t+yhV5rJfwEzDTQV4QRrsEf+Tm41Y4QHxJMwt2salrABOFmTzEx+9R/UHvw5ytJtXnauxblNCnfq8gR7OjztLcSXSqXnNm19oUdXxtma9+rfqaiwqgDnmT8oGoXhOJDseR/7OE2V4aDsYE5XfrrmCQMhB/6f6PUV9PTAaemMKC12Cqt9usm2ep9wF1JuWSAGzqgmzQQrZgZq83ozi93EGADo1C6ZBOugfx2XqSKtcGTMDrZWj2yQtlbadwuehgoKVVi1aDjCwyBzT83IyupRQUuGn+45vc3726X/Ns1+EObCgFEXi6CXMRDAAc2VegOU6jiMZTLAh2whg39pwIc+zbgJczDADi181zyFWr+pqS1r1Wc2phOE/EAAB6Gs/FojuQaZSkTEXgN+jUOC4NR/gsPoZJm/VFO8w5HSzdHdceh1h+xKAwnzX+CYy4r13f1QPmXSb5kxLMh5h68+TQPAmQZuHEFxb2rbQaFh7pt1KpJLMQFkAF0KvPXbGXPeLv3/Lid42d60xceI0tdn+H8HqWK4mACaPt3DtgIjPlJgAB/f78NA1wTlMOAEIbrzuyPcSfh8a4xSEARqyvnVcM8vhec82VjR9XzqBYIhRVoHDEvYl4bzHOzvY+62oYwBtC2WwQwB/yp+yhs+wh77Y+UyJzlHrbIgwnVDvt6v3YY/Xwusa1emlfv5bIE5r+20/FKXQADaOKwnEx7yJ2GclHJ95KPRf/sL5R+YKR2lDJ2sIhlGZirC8K3Bg5um/ASiACBFRYA2KyXICf42w81dyUPPJkb515ehxRhvB7Muh1cH343HLcEi65dLljPMbWUKFy8ZTAsVYXe7Vy4TNKsQaMz7bBZNFZZioWc2FI0n/9vK5oiOQtynY/cTiLESRwf3SeHNtW6aMrtvIWzE9ZjkKu5ddB3jYadqjCOlmT7BBn1cvbr6A3mcS3yh/6bIKMBABgAFBVx63IMZ/ZGYSNFQNBcbaXcIB9faJrwFwHK7tOPol97xE/k9BFGDAW32Su4lTCT2oQE1bVe2m8prK2kSsSZW1m3zNzbtugjLhMinZG+Z9TE/y0XbsJUtIdJEqjLx0G6lZo9FX9v+IQVVimiOIjNvuEnpdRJOxTkVQhZSaPgG6q7K0atg05+tyM+TqXwlNNCkC8IfWNpYqry8PXUhb8+aV8FsiES+PA4o2EBl8/h/nLc9x1vaQPYTXDhStdLvGRo+k1bp0QkVxRtte6e5gjNKg7gAGfXZwgo3Q1nzox3XYkrKkLrG35wiOvbpephV5sb6H5qDItSmq0BUrt0RUdg7QFQRlHNJ3ENI5lR3YAiL1joUJkYdZQLxJNSy89bLv5FQR7V8yGB3+LXg1YNdoWXNB3nEv3h+7koO2w2IcFLL/MP/G9Rt5hPpLe8oS81IAmdRyR6cl8+WVgUDLTvPQIiwcs9LxaJ+7UW1NrmXEq9PWj4ILgiBWoNw/0IBoXmr+uEMXpbLZCmccQD9TObdo6sb764AAPZ3HizxrI7leufw1wxGpNQ2aCe5xGRaPkXeBBeEI7mCrFwIYTUihqsPa5lQMU9BWcynk5smCSRXGyJcYds5ChmKUzebnzEeB5ubFNsvUMVmhpPJ88W5cbmJywDds+/ZKBTLYyVG9zdNxkeb6oHm383RIU84SdVv9xkF1o+RgAdLEwlGEp/y71o9QY5GC/jFDR8ZHhyTzGYcygkxFGEhCzzZYdNq0upWjhgAhP0AWTpQgh0E6OlEIe82p8W5yFdzBKM0q/yhY9AAAHRhJEbPlTadunXKBo7pXygiAVl0UXQdYxZ5gdy1LmEv/m6r+O/nf3xfufriioH1lmaw4vKpLrQw3eMqEk3z4TfZyEBothgS59EvuX0VEsvRXs/msEZhQxo6su3j/uMxznSvXF/d12aMKBb64XIEZmLC//SdXJ8x63jdgA/nV2L1H1FJRoqsivvdkryIdTmYaBqzeAuHzZe9lnbvVT9TH7lq82IZabaDbFAHeC2meHPYnQzgQU6MR1Ajhflk4leADIlXrgrMFRLJhN5O9fDcEZjMJT8top4t0utBYefHjRSrGfkA575EGCKB20nyRN8D+MA1psCmTRx/8QxSURAhYVXC6gybbrMQErj7gr4WJwuv531l4L/9sKSk9Kbt54FND+7tzNIqiEqkklcvki7flywzsMHse2UXqelFpDGXSlEp/ID6ZSHA11QLUGJ2q0L4j/A3XgxqyWCkc4oWRpwt9kuzjEPELhUefaO1S3Hg8xnv9coLn+0KQLNBzs4mpfPrUu8UZd1wPgKHoY+p/KKTPgGv39IGgb/AAkU7ukoETzlPtVJWGGB9hUmf4H7SdJMhHSXHXgkTFaVYLWbVyh/epTvuykElognTG5yF4S6/5A2RdWK2uOzOunY8rxE/3Bhi3wn0TXGmutFILuUUU+JJw82XdNnB231OvHmmZ7TOsYBiPB8EnsYZH28YOiSswwhXGvbreQGNH4mHj1ruVnAx2el92AyBcOX+dOeHFR2kftvoKKtU9oYM20/5lJGxGsD4fADOKKE4illugoueLUFM1nlOFRk45q9ko/5oAABXJ1I69XcnBXutTwLDUhmHA0d7txKH/cB5oQ4jl5JwCncxrfvNA9NbkFtUtWRRpxLg7TkozS568XBseB76P/xNS/ViqT70wTzqH+zvVcw4g1ltgqC1aAsciqdRfH1bzlzfHh12Ptc+FSVqLCm3GFRcgAKMxzJJTklV/UYPiXjW499Dpjb+WCPOewUMAAMCT1Zg68KoEJih3pzi2X1ENu1n6nqOiAT/mdGVULXAjPZbRoub674VaZ/FqPGDpp8Q3rMsieThzc3VNIcr6XtJfeWiyTZjGVip9PwxdkL07IiLDJ2mUdUq9lp3sFcB8+arrvuf+49ZhrRSyfs7qy52CpgMaAAAmEcbjjOkqJUCtUD/9r67Ag0h5bchoAz2ftQ62eobU/ADMlCp3HjJqi9c84lpcJ5DhcdLhPIcLhXcwJph2PSKzdUTVwcF0qUfaMjROJ/ZE7JBXGYbRdedrU9IdLAUR7jVIbaAUUvi3yPsXgABNK95BOxJXk1ZVXHzRkL/cO5NV0hSTbTCIkpFfZnUzXQIqaDTyHsrbmZO8AOlr+vq7T0iuvsvgIJP3NU2vW0lMOB5e164FauvQQ0qZLu7iM4iHq91dGVq+DKcZOdLP8KL7K74AOCuAAAB5HsQtZIw8yV+SMwQxx6MR38UTJv4/iRxAeX+iHyztbYj5J4VInFICtNVynnH9htpFsPWVI6vAT5q4P0Yrmui+DG3KYcVSsHaD3GpJDil1gWj6cVqC6dhHwEnECp8XK72OBTY1shb+SdLDNZ63/9JrgAAHqzPDPOe0TgVPuTBXge1Zp0s1mwYHLJj4vIi6HhCEu6cQjvvXEqJ1VZqmCWhg7ebnS2b4HEjiitZRo1cOlMcmjlMfo10tIQZzWrBLxJw0yZE73eY5qhlVDX7tdTs4Prgqd1Wc5CydaBvf1EH2KAIOTTrQAAFWEjf3UXYbULzJUk39HWmIgriXhd9bStLp71MVXiQ36gMouzaXIAAtVxFABH8tMVMUISRmjOxXaCw5NqpfA4c6VwKLDPRYmB44xjhuYy+HhlgZFMq0bJI9vkTaBCYmm3J/dSseaAs7V3FQYoQuAUz3WumULVlF/hQGvfGacpuQvB7TEu1+3JEeC0g7HSSUEUErhM9BF9gMMAAACfp882woVyg9kmVngLY/A7OgOH+k9AqL2D9oDb54kuwdAAAA==;" vertex="1" parent="1">
          <mxGeometry x="1104" y="190" width="27.62" height="30" as="geometry" />
        </mxCell>
        <mxCell id="PNhUklN0JLp1l5unrN9_-24" style="edgeStyle=orthogonalEdgeStyle;rounded=0;orthogonalLoop=1;jettySize=auto;html=1;entryX=0;entryY=0.5;entryDx=0;entryDy=0;endArrow=none;endFill=0;" edge="1" parent="1" source="PNhUklN0JLp1l5unrN9_-25" target="PNhUklN0JLp1l5unrN9_-23">
          <mxGeometry relative="1" as="geometry" />
        </mxCell>
        <mxCell id="PNhUklN0JLp1l5unrN9_-25" value="" style="shape=image;verticalLabelPosition=bottom;labelBackgroundColor=default;verticalAlign=top;aspect=fixed;imageAspect=0;image=data:image/webp,UklGRtxSAABXRUJQVlA4WAoAAAAQAAAA8wEAHgIAQUxQSNE0AAAB/yckSPD/eGtEpO5Bjf//1Urzu/fCpbsRxQAVuxtbpzOms2vGZq2sGUu7pk43Z3dh9+zu6eypiKICgiDdF7jxe6Dc3/+c8z/3HJ5F9H8CQPGWqwJl8JEjyuL679aXwX37qmIZ3HzjZ2Vwm3FJ2ZvjKbzqXubmex9TapW5VXmLpsFlbs2zEFeUufUuQbziVtb2HSIm1yxrW4aIxoFlbHYHEBGXlLF53vrglFPZWuibD2IrlK01zfwgv33ZWh/jB/hd2dpU/OgmTZnauo/d8ixLcz7zsaRqZWmBzz5m6FKWVjf1YzihLK1ncSnrytKmYKkXXcvQNpT2KrTszOVCaTmRZWflY0uzDCs7a55VGs4uOxtmtmKntsxsIVp51b2sTH/EmlcVysoC/rcmq1lZWf00a0z9y8r6G63BaWVlc9HqVWVk+sPWHdWXjQU+te62V9lY00zr4kLLxoabrctsUja2HK0v7lkm5nKegOPlSKPoNHbOnn7BoeG1G7ds36Xn5wOGDv9y7DffTZj8ww9Tp1k7vfQZzZm0njGdPI06I5JS/S1lKaXG9Bminy7uH3+eMbadp/LSOPqUrxnZc/jEOSt3HDl348Hz+HepGdl5hUUlJgsKfKoSk+Uo/JeUvkbKLg2hpxG5bk44NrWVr1ZBad3LN+w5bsG2U/+9Ss0pQgmeqABM1wuX3oiyEKnnXQgtsjhWHLN5UBUH4KJP/fJuWptHH9R44G87rsZmFKGET1QAppoo4e76EBxPkp4GEKq+41Xx07V9KmiBkwFRGbFXd/w6sFGQ3lZxq9lv3tGnmSaU+olQYGt/RLhNGkLF16S4CoSgaC6ZX2/tW04D3AzYgx81ZTw9Oq9fTXdbw6Fq/2WX3xmRhydCgbHzWeHGAbGLgZTekOBxnUPvj3wVpgOOBuxGq43vrq4YUNXRZnBrMulovBE5eTIUWHvcECyzKeUnJBd1J+iP8abo7m8NHIGrAbuRbkw4PrWJmw3g1HDahQzk56lQYO77QLC7vgT7gzTLQAJs5cu7XX38gbP+u5FxxqXp9R3lLXTU8VTk6YVKwD4oRrANGkLwcxp+T1nCEeODX+rYA2/9d6OA749+FSpbDs2XPzchV29HgIChCUJZRgGxXT6DJZTp3Mg9PTwI+Ou/G4U1P1/SzEGO3D/bl46cfd4YhKyeLFRafco0ZLiJ8iUn3m3q5Aqi1zgHhlZt/dnAL0aNn/TzUAcm/rtR+PT9PdzkxmvQ2ULkbUo3ELRBulA3PQn2h1hEaQi9jTx4vaS+DsSscavQuP/Xy3effxKfnFNsQkRM7AYs/XejKAtOD/KSE8+hl4uRu4XjQNhWOUItB2L5lyzOOBPa5UnO8uTXaiBenV/Nz3/ceeV1pgmtT+4FLP13o1iLLw/2kAvXfueLkcMrHATqXChQSV9KFwOLB76EhukSM9+bUAHE6lTxk6m7H7wvQYbZQ4Gl/24UcdG5vq5yYN/hSCHy+Kw/CNyrRKC4MMpMZBkbTKj6TlLme98GgTj1oZ/OPvWmEBkbJmtY+EehuAuPdLDnXq11mcjluCYg9BAU+LgjwekUk4RQQrlYCZnvfRsEovRsNvnwKwOytyxzAIb+USj6zHW1+OY75RXyuWgMCD5WqBlADE9gklaf4PtAMpaH3waBCDVB3ZfdykJhj3gDQ/8olOKrKb780na6aEZOb3diYEeZIlBOa0o/I5P8jgT3q1KJmRECwmvK9V7zxIBCP6wGDP2jUJrmi520nApakI68jo4AesPBlFkC3fWl/IlMS3oRHE9II2FBOAjv1211dDEKn9ENGPpHoWTTFwRxqcN15HbRl0CvfnceZYlAK4Ho9S8bywCCdp8U0lbWAcFdIhfdK0Qxmn/VMPCPQilf68Afjxnvkd/7XGjBp3ES5W9hSvpRmmWxwWEE2CS+gv2ROhBYGzb+bDaK9Lgn0P2jUNrvZ3hwpvoBE/I7qTGQXbcgjqBsFuZ1ZcokZDyJskJspmv9nEFg107rXltQrIlNgO61HaVuOlCdJ5puj5Dns4Gs+dmEOIigiRJmv56gP8RqAWWOyKIn+IHAFcacy0PxmqYA3XWVRXKIj7ppuOE4MQ15fi+E1isL0TyAYHdIEMt4IFZ+w2o1Zaqo0v8IA2F19RZGm1HM57xojouMyMO0iY6c8FlRhDwvHgnkav8joqkvwfGEICl1KH1LWG2hjBNRyT/tdCCoc4fNySjurM5A1k4vQj4WrfDhQqWDFuT6aQ+S8w5ERGNvgssFQU47U1Yi652UYeJ5MtodBPXoczwXxb5aRxuUjby0HKzEgdqXke953YE8uviD4h4E9yuCTAei331m+3SEviaRpC+rDIL6fnHRgKKPqwXkpm+Qo5drS67FA+T8PidSjZf4oaErweO6EJnNKe3zmZ1yInQvEoX5fEcdCOk/9lYJSnAWkIMuIlcftJBY22jkfFYHoDpswY8WdCJ43hTiqjtlDjK/7kHomC+G+Kk+IKTfmNsmlOLzSiS7P5Cz0W0l1ekl8j7KgfR5/sdy2xK8bgsxE4juV9nd8yW0zBbOsKcBCOk7+l8TSvNnIPfJ5Q2+7CShDq+Q99kdgOp/Az+eE0nwuStAditKkwx2TwMIDdMFezrcGQR0H3LdhBJ9UZkUeg/5+6qDZFrHIPf3OZKmWEprRfC9L8B1T8pUZP8ymFDrvUAFG6uCgE6fnSlGyS4Aqm4Z8jgmUiKNnyL387oAteoLLDWb4vdIgDlAdDolwJsQQrV3wjwe7ADs7dodLEDpJtcjtU3nEj5tLIlq/yL//3GhaH5HK1qKJjuSUidFgPjyhEpvhchfFwYC1lmbgVLebkdxPYqc/reaBMqdQf4X9QdqvUQBHrK74kH5FgVMCCWUjxPg0QA9sK8wKx4lbegJ1AEGXuGZcqJz34YyeMObov0b2fneZ/czEB2PCZFcnRD8gplhcxiwdx/1CCV+24fidQn5vc1dZHZzTTJg+Q6oDZOtyWlF8LnLLL0JpXayEGn1CAFPWb0c5QjMde1PlKDUZwN1cDHHTHPsxDUyH2XwRWWKdiVam9eW4H2H2VkXyncoZGYTgt9DNsb9dYB9tb8zUfJZLSju55Dn+SNF1TIe5XAZUOskWVXQkeD1L7NJQHQ6IUhOJMHnLpPEiW7A3OPrGOTgFXdKt3yuYXxLEZW/hnKY3oy0GK0u7ELwvMUqqRal3ntB8tsTvG6zuNgSmGvbnjQiD+cC0W47cv5qiGgc1qAsHnakhMVaV9SN4HGd1T49ZTIKWvgJwfMmLXdpIDAPXZKOXMzvSKmZyDtc4yCWEYWyUDIEqNPQ+uKeBNeLjIxfANH5jDBF3QjuV0nPBtgBa4cBD5CT0cGUScj9whEiqfsSZfFxMMX/LsHYm+B0mlFMKKVxujDFPQhulwjG/TWBeY0tBcjLPTqCyxn+4cu6onDdj/K4CKhDSgjmfgT9MUZrNJRfUdiSXgSX89alTXcH1q5jXyA/pwCxfqoM4H5XMYwrloeslhSn40i0DCToDrDJ7wJEr5sCGT8nOJ+16n5XDbCut78E+WnoQvka5bB4nAhqxaI8nnGhtMqi4CCCJorNdS9Kp3yBTH0oZ6wwRoUBa9dv3iBP31Yh6HbKAsbWEsxhC8qj5Tug/oHkEQTYwmY6UFeguJxOl5Y23Q1Y1z9Ygly940UIeCwPuMVBqN55MvE2glLhOW0CZQ2Td3Uo5Z4K1pdyqpQHn2qAscvXccjZPVpCk0yZyOstUMB1lMnd9pSRJtqvlD+Y7NFTBpaIzPHkR8x7w4F1jahi5O1fQBxslgm8HiDMZLNMGIcB0fEY0n+nzGFR3B+I9rtRaHM/yokPcmZ7AGP9sOfI3wmU39BaU0H6u7iY+9dOHzmwd9e2zes3bNmxe//h4xf+/T82ISWryCwt82RBwp+jTL6sRGmUxmA1ZSqLewGUmkmCmSgOH8QO1AHj0LUFyF/LIMo2REthSvSlfatnf923faMaFQO83Z0d7O10GgAArc5e7+ji6RscVqfZJ4MnzF9/8HJ0coFZEvg8XADNYpTLLTrKr8hwC2U8i5lAnYLC9SU4nkC82BgYa7r+hzw2fk6w+3XbzBEdawW62oFI9W4BNdsP/WnNsYfJBrHhYg27eolyUTIAiF43WeykDGWQUp/icU18p01rg4Gx128ZyOWi7gSNXgPSdPCt2eXbv/55km4S0du6zLQrUS5fhFI65rPYryN8bqTt0VM+yRdBH4LTth+cgHGD42bkc2EXgtQd/RsMXHD0WZZZHPinllXjFNnYoqP8gSzPORO6FJKKPgeidh2Kzq6yDtjaD3+FvDZ05cpHHYKaDV9xJckogncNGWlXoVwaBwMx4BGTO96E1jmkWz6UsNciMPYmMA/8swC5XdyTPx91q9Fv8dn4YoFwlY5NvSTZeF2F0t3A5FkgoUE6aQpQv7GIoOQzUTS/hBw39+PUh85hvZdcS7UIkVSPiWYZyuZee8rfyPR1OUJYEuVNVYrbBRRhcQ8ROIxNQK5/xbEP3euP2f60gBkuYlL1tWxYxgAx8DGbtxUJwS8pq7SUDrliKOomXNBqA/J9KecAQBfUef71TEYvw1hMQ9lMrk3pZmCT1oDge4+Q1QaI2nUoxsIugjW9hLw/YMe9Dz2aTz+dYmGA0xkE3JWPM86U5cg2vyPB7TLhiBOlerwo8jsKZDf8DXL/WZAsAIBznfFH3tH+86MNKJaPn4Hoe4+RsTdBf8y6on5AnYqizG0jjM+SfOR/fke5AACH2t+fTCUU9SHp96Js5rahtMtjZBlI0Oy07qYPxee2OLKaC1LzGMriUhkBAOeG0y5kWYO77Sn1UuTjvh9lNrIeS4CVVlm+B2rfInGkNxLi0/9RHmMqyQoAuLVc9LC4tOR6lJ9QPtdoCK6XmM2jzLbqeUWKw0EU5/ta7JwmpqFczman1XuXD6vWoOPng4d/OWbs2HHjxo4ZPWpY/x6RNatWDnaz00oFAAL77Xz7MfyJ4H5FPkxDgFg/jdlayrdWzQVq8wyRJFZhFri2GGXzfSeS1qNi7R5fTl29/+Sdl0nvM/OLTRa00mw05KalvH129fjePyeO7FG7opdOAgD2NSZdyvvgqod1rbLlI7E65WtkvoMywGzF21qkP1Ck8eVZ1T2LcvqsTWlaz7COoxfuvx6XZkCRGtLj/j2y8tu+dcs5iAwA3D/ZmICY09q6OSifp50JdnvZHdMTOhdYsUpLCXslsW7PUF4Tf6nlbu9bree0XTcT81GSJekxp9d91yXcQyMmAF3EtH9L5lvlflVGZgGxwkt2d7wJjTNKS28B1Gko1jchTBy+TUXZTb5+8l5yEUq9MOnGlu87VHQUDwD49pvoZE2jdPko7ELpUcTuRTAhLLG0XXpKwD3RvAxm4bPCgLZ8/pvTC/tFuIkGQKex5nuUz5jylMXIPqEiITC6lJxOQB1pFM2zQAZhh9H2NyZfWda/mrNIrNYfkJH99gS3KwJkNCZ43ijlkBPF7TyK9oEvrcUdVIjGxLOzOgdrxVX+hYz8AMQ67wUo6k5w+Odj+T2A2r1APLe8KJp+r1FJFkRvG1nDSUSdC+Qjtw1lhEUAywACbPnYSVeKw14U70VXguPkTFSa5nenpjV1F8vPKJ9PgyjrUchvKQs+YugH1MhMER3TW+e1oggVaeaV2ZEeYtAflpHddgSfe4Iso3z7kXMeFN0GFPFujVUV9lpQseZcn9XSXbDgaBmZDMSmWYJspfQzIWLRAKA2TBHTDrC23mVUttmXp9d3FKZVjnzktaWMR0GP6wltcxHxvAdFswLFvNWajk9Q+b4/PqayVoCvUD6flyNotwpz35dQMwWxaCBQayaIal1pmmGJqIjNr9Z382a2QkYO2hP8HgrzOoRQ7iXieQ/SQhT1slL0k7JRMRf++2NtOyZOp2TkJyA2yxImtQ7B8xYa+gO16mtx/fYxt4UGVNTvdvX2YRAULR+GrpSxKKyhK0F/DE+6kWaiuL/+iP9mEyptw60fqmkpDdPlI64yQbNJIMsgAqwv+gyolWNENuSDKkdRkcetaeNkXe8S+TjrTPD+TyCcTpl1zIX0C4rbMgAA6l1HpZ59bICvNZNRPpcCsV6aUGsofboAtUqMyIy9ASIfo4Ivvj0htLS/5cM0hDLELNReLcHNgfQbirzwE+j+CpW9JXpOLc0H+mPykVafshyFvuFJoIe9FFtWyyHJqPzfrmysBfD+Tz7u+xJcLgj2Mlig2Sj2tNUZqAqmrGwJFePkY5eOUDlesJSawlR9JTqzCdXCDGiUIR/TgPipQTBDV2Hmo4oLXQ2yYfiUMh2FHyZIzXhVZwTK5ttwgi5KBLOF0K5AVWe6fFxzJ/g+FMEWIRonqzvL5WM9EOunieCUEzv7TajqanbKx3eUgWYRPA1g1y5T3XE6IRsFHSmLUISJYcycDqC6631DNuIrE/RHxJDfgdlnBSpPuaeycdmNEBQtBssgVh7nUOUNj5eN9UBsmikG/I3VqBK1p1GKbEygDLWIYiujcvdR7e2QKReFXSi/oyjPu7D5BVXfXvlykVyDoD8ijhdBTGrFqT9flMjFY39C4DNxpNZhYbca1d9vzHJxwpHQIF0cxT1ZtMtQgX60yMVqIPY2igPHMXA9iirwQpTLyZTvUaR/MRhWpAatkouS3pTVYjloRwq5h2rwVrnIaETQHxXLQz/SbFSFD8jFyxCC//9iSapKaZykDp2Si8tuhKpJYjF0ITjtRnX4klxs1xA+KRQLfkUYWKgS3ZSLmUAcgaJdbl3wHVSJ75MsVx5zyTKM8rt4DtlbNQvV4ickPFfvxxgO5bYhaKPE89jPmqbvVKMXtOIhEDb7FXfehhE8b4knOcIK14OoGr+h4XVfgOoL4zhzx5tQ4Y14irpb8VWxepTIwDgWAKDWskSuHLQntMwWD35TWng0qsfvGeDdYAAATb2VyRxZCsT+ZhGtLsV+DarI6Swskz4A0DZel8qN8ZQfUcQnHT/WM1dNymaBT0I/AmDXfEsGHwxdKZvFFBP0kaCbqCbnMcGfSwGwb70zmwfvaxOcz4opo9EHmrmoKheyeVm1NACHjvtypfckgBAUIyZT/w/apapLRWxwgTUAjl2P5EvttBOhTqqYcCYA+JxHdbmEUXxtqwCce54olNY6IPYsEVWUFuBni8pkYoQrtNYBuPU9WySlqZTxKOr/vKFVCqrMZlbvGlEAPAZdLpGMsS9lpbiSwj3PoNpsYYXr7UgA3sNvGCWS2ZRgf0hcRd2mmlWztFYMAHxH3zZJ4lUFgt9DcVmi3qJ6vkPPAiDgm/tmCVxzJ1RJFBeaUEXP7sgGIHjSY/Ht0hI6FohMXT/ozAigwvRosc0F4jBLGUZ+D2YAlX99KSrLCMp8LMs86cYOIHzuaxHltSNodpZpGAYIARCxOEE0SVUJHtfLNPCSlyCgqb00QST3fAjlX5dtlIwQBkBTa0m8KI7oCc2yyjbwlr9AAJpaC16IYAUQ+5rKOExfCwYAVaY/NAn1LWUqlnU+KCcCgHJjLxUIUtSdsqHMw/KDKAA8uu96L0BqXYLTqTIPfFZJHAD6RvMflbCKDiIERpd94G9iAYCgwQffsznnTKiZUgYSW108AA4Nf7qex2AjELsXlYHgIo2IAMCzwx8PCyk/UsZgWejbuuICgIBPl98vsMY0gLKiTARXasUGAP6d511OKyW7BUG3v2wkpYkEAMCtwTe7nuYhYlxFgs+9shHcZE+q3dlRBABgF9Ru+oEXZz0IlRLKSDJak0KvHersKIYP9SFVdYR2eWUkGOVAga8x90A3F3EwHGwpK8n5hOR7DTH/RB8PSczGMtMjLhQYYEBEw+WvgiSwveykoBfJ+SB+aHr4Y3WtyNyulJ3gGXcKtEr9ABHj17R1FlW52DKUosEk7R+lIGafHFVeRI0yylDwqi8Fwp6VhmiKXtraVSyfG7lhNqlgxnEkGFNiBSJmn/8+wl4Uk5Cbj0+rYPiwPMntmHWI+HbPsIpa4dbxY0PXPBUMfyVBq/cURNPLLYMq6YRxOM4Ny1cOJ9SwuDokzVwaIhpjd46q4ShAwFNupNaDQSUqGK6zo0DgdRaIaE46OaONv4ZR9XfcuOgKgY/UsMxOJOiSyebD3IcbRzf01jDoauDGzwCwQA3D054k7RJ2iGjJuLPh6xbBesKXyMvMZgDQPEMNM44nQbmbQnw059nx+cMahjhqSlnKjbMuAOB8Wg3D6HASdE4X6kNT1vNzqyf3bVjZXW+3hxvfwYdTVDFcaUfSzLKI4OMlWW9untwax4s34R9plK6KZXcjgc9p0XB2rfYjrpdUMbwWQIIm8XKU0x4+PlMds8zUkOArgwz941zKJ4WqGKa0pjmslp/iQVBq+ZfqGJ71IUG5a7Jzw6c0+0MqmflnGrRMkBnTGLByhkqGKW1oMKJAXu4GWtO9SCXDSwE0+8UWOTF/A9ZWS1LLcLGOBN6H5eRuoFVed1Sz7F40CP9PPkxjwWrNDtUMH1alQWS8bFz3tQ5mqWe4y5UGg7JlongIEIda1DPjFAbaacXycNKN0sWgnuH7zjRwWGqWg5wuQK2erKLhvXAaeOyUg616UvBLNQ33eNAg+BT/EhsA2fe+qmaaqaNBlWvcmw10p9OqGmYPZgC173PufggDTZS6hm9aMoDmz7lWNAxYblbZ8FZlBtDuFc8OODNZo7bhfm8G0CmOX++aAtM/VTfLCkcG0DWBW7OA7WLZMBflZ6cmxsfFJb7PzDcYFRwW/aBlAN3ecupmIKPZMmBIunts2c8jO7VoXDciPCwsok6jFm0GTl2w998EgzLDrCEs4NN4LuX2BMZzOJf7eNe0LhGeDsDS3i2887T9MQYFhkldWcAnb3i0xp7VYp69PzWjtb8OhLUP6bH8QZHiwphmLKDDC/48CQPWK7iVd2lKPScQp3+vrUlKC/+ryQJaPeKNYSgwX8WppA0d3EHEdnXmxigsvFyFBdS/xZltjuw2cSnh9zo6EHuVX2OVFZ4oxwKqneNKTASw38Wh9JW1QJLVV6QrKtzvzwLKH+CIYQSwdzzJHeOJNjqQqLbdWbOSwp2+LMB3tZEb2xwF8LnLm8SJHiBh759SlRRu9WYBzrPyORFdHQQMfsGZSy1A4h1vKynLBk8WYDfmPRcKhoKQEclcKVkfDJKvtNuknNCywZsFQLfnPFirF6SrgScFM52Bg+6LipQTWrb4MIEGl6T3rBIIOtTCkdwJdsBF/Q85ygkt2/2YQMg2o9Te9RVmLvIz/3sdcFI7Pks5Ie4JZgKuv2RLDJO7CaHbw4/in3QgrNbB1a9ClbCqVSsF+7jqtYKAdmyOgsJjFZmAtt9LieHT6gL4PuTH347AXh/cYugvG07cePjiTXzC29fP7t88sfGXgQ18NMxAO6lQQeH5akwAGlyVGK63Z1cnlRtn/YG1T5ufDz/LMSHdmH533eBKWkZgN9ukoPBWQzbwq9TSm7Prb+JFQhNg69Ri8Z0cFNAYu/4TVzbgukVJ4ZP2bDZIDZewW4KcNE0Apu79j2Wg4Hmn+7sxgeBLSgrjPmehPyq5O16s3K7w4qwXC32PUwYUpeGfDjoW0CxeSWHaeHua3yPJpdRiVfs9J/K6AcOwtXko2owl5VjA6CIlhQVzXUkVEyRX1I3VSDMnDjgy6P4IRX29DQunHYoKTRuDKJE5kjP1ZWQXhXws6A5k+69TUeSJo+xoEBGjqBBnU/qaJGfszSgsjhOX3Um6yfko+ryfHGnwtVFZ/UyZgJLPiWQ00syJyUAem4sSLJrnRPM4pagsQyirpBdbno3+APIxpTapXTJKsnimngRdcpRUXjuCbp/0DurZNErlxFlnSuA1lGjhdxqSfoeSSo4geN+RnGkEsF2InJwD1GkWqWD6ZyRoma6gngQQQl5L7k4Am/LPOFHSi1L5OUr3aU2S/TYFdc6Z0ChDaoWDge13Zk4kR1DGWySEUc4UaJOlnLZqCL1KpPannk3wfeTkkwCC8wmUctGXJMcjymkOEMegxHf5AtuJFl6cdiJUT5QUPo+gQP9ixfQlZZnYzITCP32BbYXHyMudQOxeJC1cqaP43VVKhV0Iml0iK16wPNUK053BDsBWsxC5uYkyDiX+vhkFZiul1LoE9ysi2+ykbTz/RkpBUVFu7MERAcC6TRo/1lB+lBpusac0TldIMcGE4JfiuhoCAOBeq0W3T5qG2gNzv3PIz1WUXyWXEUlxPqOQrrgRaqWIKq45iNJ+GXJ0A2Wa5HClhgA/KKQ9WsKnRWLKGwLi/LKAJ1spE6T3KpzSMF0Z/Q7EL1DE5jk6cfROQZ7uoIyUHk6kuF9VRl9T5opprweIsstb5OpeLaFnsfQuuxNgkSIq7knZKqLblUGMmn4JyNer7oSW2dLLbEbpUaSEMhoTnM6IJ6E1iNHh+wzkbEwQoUq89HAGpXKcEnoTSgh4Jpr84SDGiusNyNu3lQkeNzhwzpXgdFoJ/etFCE8Si3munQgcP7+L/M2JJGi3cuB9XQL8roQO2RM65ItltwcIrmsWlY8cNg8hwNccMA+jDDYroL+AONAikhsVQWinthvfI58XU5pmSg9XUBpnKKDJlB9RnC+bgLB24V8ezUZeH7YneF7nwGU3QlCM8jH1o6wXh3l5hJcDMzvfpt9ExZmR38+CCPArBxKrEZxOK5/sVgT9EXFYCpLv/bN0+rDI+lV8XZwdHfT29g6Ozq4hdZoPnbXnfhbyPa8dpVGq9AxdCLBB+bwNI/g9FEeppoKMuEe3Lp86fmjv3uPnrtx6nppnQhn8haLfKT0cR5mmfO77EkLjRSXXp50I0DlXessoAy2K54QjoWW2DZRci+K4S3qH7AmfFCqe9UDsa7KBcDIFmiVL7o43oUaK4vmJ8j3awpfdKZrfLFJ7FUIIeaN0LEMpf9tEeR0o4HtWaskRhICnSie/PUG3zybCdToKNH0jsewWBI/rSic5guB12zZKaUSCITnSKupG0B9VOk8CCCGvbSP8W0vSzTJJyjKYALuUznkXQsN0G+ldAxK475QUfknZrnS2aQifldhIuM2BBBVvSmo8ZZPSmQvE0Wgr5/ehQcs4KU2krFc6X1GW2kx4K5AGQ3MlNJ2yRuEYuhA0O20nXKSj6WabpPMr5W+Fk1aX4HbZhsrpSwP3XdxYpXBelCMEv7Ch8HlNGlS6KZmfKWsUzlV3Qs0UW+p1WwbQMk4qMyjrFc4eHeFTg+1kOdkQmA7NlchUykaFswSIw9BmzprrA2y1s0zSmEzZrHC+ocyxmR711AJjp2kGaXxH2apsSj6jbLGRSnaGA+sqW4tQml9RdiibzCYEp9O20bsJLsBY2+0+SnUoJUrZvAklBDy1ia62BtZeMzNQquZ+BPvDyuZfL0JYog2UvyIIWNc/ZkbJFvckuJxXNoftCR3ybZ8XQ+yBsf6LWJRwQUeC5y1lsxKIA822jvlIHWBd7u8ClHJWc4LfI2UzhTIdbdz0XzyBdbtrKO33tQnBLxWNqT9lvY1zt6sGGLtOTkaJv61EKB+vaHJaEeyP2DRFmyoB6+pRRpR6TBAhIlnRJIYRfB/YMgnjHIGx7vP/Ufp3vAmROYrmgS8hNN6GOd8MWPsuyEYOnnEidC9WNCcdCS2ybZbcxf7AuslpC/Jwt5bQ36xoNgCxj8lWedZPB4wdR8chH/8C4nhUtD9TvkPb1LgvAliHrjcgJ3+h/K5oLMMoK22T91PdgLGm823k5kjKZkWT34Gg3WuT3OwArD1+TEVuGroQ7A4qmpQaBK9/bZDC1SHAuvZBE/IzrT7B619F8zSQEPLK9ng9Sg+M7QZFI09flSeUi1U0510IDdJtDcuJhsA6cFkecvWGB6FemqLZriH0LLExsub4AOuWl5Czu3WEnsWKZh4Qv0Lb8lFPLTB2/jYReTsPiF+ioh1NWWJTlOwIA9ZhW4uRt5bhlN8VjaErQbPDlkj63hkYa3vcR/7mtiFodyuatHoEt0s2xJVIYO09KxM5/KYSwfs/RfOyHCHohc2QvyIIWNc/bkYeX3QlVHmraK65E2ok2wovBtsDY/3wWOTzaiB2LlQ0e3WErgbbwHy4DrAO+bsAOT2eMhoV7VIgDrXYBOk/ewDrdjeQ13ltKCuVzbeU2WgL/tdFA4zdpiQjt6PLEVzOK5qSXpTNNkDRporAuvpuI/L7gD2hYpyiyWxKcDwlf/HjHIGxrs//yPMZQOxcqGjiKhICnsreuWbA2m9hNvK8oBNlEira216EKokyl7vID1g3OWtBrkeXI2h3Kpsj9oT2efL2tK8OGDuOiUPO79AR/B8rm7+BOMAsZ8a9EcC64gYDct4yBoiROcrmB8o0lPH3P7gBY80nd5D77+tSJqKiNQ2grJOxm+2BtcdPacj/864E3R5lkxNJsD8sW4WrQoB17UMmlMEZQCz3XNkkhhN878vVq5F6YGw/6DnKYUYTSjeDsnnoRwiNkyfLiQbAOvCPPJTFC66UJahsTzkSmmfJUtZsb2Dd6hLK5HQget5SOBuB2MckRw97aoGx83eJKJPJdSnNsxTOr5RvUX5LtocB67BtxSiX+/WUGahsLV9Q/pKfpO+dgbG2xwOUTeMQILpdUjj5HQnaPbJzuRWw9p6difL5JITSIkvhpNQkeN6SmfzlgcC6wT9mlNH5QJ2NCvdZIKHcK3mJGWwPjB1GxKKcpjSgeN1UOhdcCPXT5MR8uDawDllVgLK6w57SOV/p7NAQehbLSPpPHsC6/Q2U1/xPgahZg0p3PhC/RPn87xMNMHabkoIye9KVUuWV4hlD+V02ijZWBNYRe4wos4Z+QP3aonQMn1J2yEX8WEdgrOv7BGX3ggfF7Twq3bT6BNeLMnG2KbD2W5SDsls8FKhd8hVPbAghKEYWchb5AeumZy0ovxe8KHY7UPFe9yBEJMvBkz46YOw4Nh5luLAPUBulKp99OkKXQv4Z91QH1hU3GFCOj7iQlqLyXQbEoRbupUxxA8aaLndQlrM7A7XqKwX0HWUW8v5GO2Dt+VMayvNGPWkWKt+S3pTNnCtcFQKsax8yoTy/qQPUsJcKKLMpwfEk316N0ANj+8HPUaYtM4D8GyrguIqEgCc8s/zTAFgHLc9Dub4ZSKoSo4TueBOqvOVY5ixvYB15GWU75zMgz0UlfFRPaJfHr4c9tMDY5bsklO+/7Ul1EhTRKiD2N/OqeHsVYB2+vRjl+3EVoOpWoyKeSpmKnE76zhkYa3s+QBkvGALkyHRFZB5IWcupy62AtffsTJTztQ4k5/2oiHNbE+wOcSn/j0Bg3eAfM8r53YpAHmxQRonhBN/7PHo+yA4YO4x8hbKe2QPIIfdQGUcHEkLe8Md0qBawLr+6AGXdMk9Hm4sK+U0FymvupP3kAazb30SZP+4D5ObJSim1DsH3AW/udNYAY7cfUlDmo+sA2f0YKuW8dgSHf/hStCEUWEfsNaLMZ/cF+gSjYjL1J8AWrsSPcQTGdn2foNybZuloDeJROU+kzOHJ2SbA2n9RDsr+Tncgux5ABb2UMowfOQv9gHWzcxaU/WuhQP++REnt0RE6F/Liyec6YOw0Nh7lP7YJ0FsmopK+7kEIS+SDcU91YF1pYxHKf3ofoPtfQEX9ugLB5y4XUqa4AmNNl//QBiz4RkPTLUJlndWMoN3NgxvtgLXnz+loAxrn2AO9X47CMg0gwC/SK/i7HLCuc9iEtuB6V6DXiUGlPYvSq0RqscP1wNh+SAzahAf9gO57EhX3XjtC9SSJPWkMrIOW56NNeKY80O2XovK+50NwuyKtvL7AOvIy2obXw4HhqAIFllqPACuk9bcdI5fvk9A2vF8HGLZPQgVuGkzpb5TS40rANnxHMdqGT5oCw+oPUJEvpYQnSKjoC2Cq/ewh2ojPWgBD/xOozC+4EByOSeiQCxOfOVloIz6PBIZOq1GhJ9UgwATppEUCy4YnLGgjvmgLDO1+NSo10xBKvVTJrNIxcBj5Cm3FmHbAckweKvZVFOeTUkmsC/TyqwvRVnwaCSx7p6Fyv+9HgPEWiSzT0DrcRJvxUTNg2TYOFXxeB0p4nDSS6gDV+Yf3aDPebQQsG/yPin4uRbtOGqu1pO9L0Ga8XgdYRtxGZX/DiwDtc6WQ2QqoES/RZjwdDiwrX0GFn9eB4vyPFI44UuxWo824vzywLH8aFf9SCvQxiM84BKjtM20F82Y/YBl8BJX/42CK+znxPQ2mOO5BG7FoqQewDDqAKmDJUAp8Xii65UDtlG0j5Ex3BJaB+1AVPOJIcT4stvxOFIc9aBumjNQBy4A9qA5mtKRA6zSR3fOlNE2zDV72AKaBe1AtXK2laH8X2XKgLkGb8HZzYFruIKqGb2tRoPwdURX3olSItgmOhgPT0H9QRVxIgu5ZYnpdkTLEaAOUrPYDplXOopoYV5OknW0W0VE9wW4nyn/Oj87ANOIyqotLNBTwPCiiX4EY9kb+4ofogGnD26gyJjUiQfgd0RR1pwwwyt7tSGDb9gmqjtscSND8pVgSwyl/osyb94cB2x5vUH3M7UGDTnEiuelB8LwlcwWLvYCpZmgyqpHXAmjQLU4c2zWEuqnyljRaD0z1E7NQlbTM0tCg4wtRzARiX6Os3WkHbF0XGlClTGnLAJreEoFlEGUmyrhpdxVgG7DRhKrllSAGUHmPSbCCTgS7vTKWM8sD2IYdRzXzD3sG4DYjVah31QgeN+Tr5QAdsG36L6qa+SNZgKbtBbMwscGEkFjZOt0AGPeORZUzoTULAN8psYLc9yXUS5Op/GX+wFb/XTqqnneqMQGIWJYowGknQscCeXozwh7Yei4xoAp6KpgNaOouiWW2W0P43ChLF5sC40r7LKgoLbzCXT5sACBswqVcNtuBOBxlOH9FEDBueQuVpcXELctmb1YA7m3m3chksIkyQYZefaEHtrrBcagwzSXcQstGH2YA4Nn42533043WraPMkB3LqYbA2PW3HFQcBn6hJSpYAADQ+tYbMGPH6f+T0vONFkRcQ/lNbnIW+gLj0O0mVJzGfI4h/hMuyEe1DoHhtTr2HzFm3DeRlJky86SvHTBueQMVaHE21/BOpGBCzpIV454IYGw/PAGVqCGdbxj3hb0tlDzZDRh7L85HRVqQzDnMXx5o+1xtC6xrHLOgMs1N4B3i5Q5a2yZvRTAw1nz2BJVqZiz/MG1esC3zdIA9MHb7ORMVa2q0DCDeGexiqxTvqg6sq+41oXJNfiQLaDjcycEmSfjGBRhruj1EJZtwVx4Qs6PaO9kcltNNgbXbj+moaGNvyQVi9pG+PrZF2kwfYF19rwmVbfRV+UA03JpRR2873OisAcba3k9Q6T66JCeI+O7AmOoONkHu8nLA2ntuNireO+dlBtH89ui0SH87uXvc1w5Y1z9hQeV77YzsfJjzePfUT6p52slW8baqwFo//BUq4fP7ZOlDQ+Lt3YvGd2tWLdDT1dFOy2Amx+LHOwPr8qsLUREfWytbHy/OSoy5c/H4nm2b169Zbf2q/7hlOd0UmHf6FxVy1EKZk+Gseb7A2uPHVFTKG36yKKtHvXTAut4REyrmPyYoqpKdVYG146hXqKBnjzMrqJTJrsC68kYDKmjLlJFG5XSrPbDW9XqAito0ukeeUiraUAFYByzORmVtGNAiVSG9+9YJWLe9gko759NaScrodntg7TnjPSrutFZh8UqoZHslYN3gmBmVd1Kt8tEKKG2qKzB2GvMGlXhsqOcV5fPwUw0wrrKlCBX5/QCHI0rHfKAaMNZ+9gAV+kV3TZTCyV/oBYx952ehUj9kDyuVTcIIe2Dc+IwFFfsGgCmK5t/WwNjhqzhU8PMAhisY0+7KwLj8WgMq+e8APitRLHmzPYBx25uo6E39ABqkK5XEEXbA1un7ZFT2eW0BKr1VKA87AOPQzcWo8FNqAPg+UCanagLjtrdQ8UcHAuiPKZGSdYHA1vGbd6j8L7kCwCYFkvOTM7Att7YYVcBdWgCYqjySvtAC26aXURWcBwAwyKw0orsAW7uhb1AdHPVB00yFcb0RsPWcn4fqYH6HDyq8URaHqwDb8P1mVAkTq37gckFJGNf6Adt2d1E1vO31AWxSEIZ5LsDUblQSqodRuo98rxxypuiBqfuCfFQRf4GPdi5QCqmjtMC0YpQZVcSS3h+rFKcQ4vsA28bXUVVMrvkx53PK4FlHYNvrBaqLNz0/BssUwb2mwFT/fTqqjGs1pfQ3KoBbdYGp++8GVBnNI6HU6km23+UIYBqyw4xqY1r90lzO23xnwoBpzfOoPt7yLA3m23pHQ4Fp6weoQv4JVnYusO0OBAPTPnGoQhb3tibwf5tufxCw1I1ORzXyZag1mg223P4gYOn4Ux6qklF21kDfEtvtQBCwdFtWjKqkaQRYXe6ZzXYgCFj6bjSjOvm6inWa1bbawSBgGbIP1crtdtbBp4W22YkQYBl2GtXK4v5A9L5pk12oBCwjrqJq+SCQAtNtsRvVgGW926hezgNyzUTb624dYNn4AaqXqY1puo0215PGwLLF/6hi7tbToF2OjfWmLbBsE40qZkEPYOh83LZ63xtYto1BNfOiBwvoY7Clcr8Elm1jUM0sGQ5M3c/bUEXTdSzaxqCqedOXDQwutplMvzsAw8jnqGqaxgBjz4s203Z3YNjsKaqbt/xZQX+DjXQhBBg2fITqZskoYO520jZ6UhcY1rqLKucVb3bwaa4t9O4TYBh+HVXOwv4goH6HDZQ3ChhWOIdq5yEXIaBJss1jnmfHwO8gqp0Z7UBQzXybZ78n0N02oer5p04YCLln49wLB7rjUrPq8SwchB5ssGmSOwJdO70Y1c6SMSC44zZbxjAeGA7PQdXzoJtwEBFjw6xyYNA1GVXP+IYgxlFFNsu1ckBvEI2qp3ECiNJxk63yrg3QQ6+i+rnXTRxQ+b5tUjIB6O67UP2MrgFi7ZZhk+xwodnNN6sfuQNAtJrpRhvkUTjQR+aj6mmeZycecN1he+T1A3rkW1Q/D3mBmEOv2xx/29Mq/Yvq573qIO7GL2yMuxWB7LID1c+EtiD2Xmk2RU4voE81qh/ZQ0D8o/NsiRV2tK5pqHoaJmsloJteZDs8qgTkyvdQ9TTO14MUHReU2AqGYUB22oyqp3mlK0jTeZnJRtjjTBtfrHpY1nmAVF3/MtkECQ2B3Cge1U7LZi+QruuyEhvAMgPInv+g2mle5wVSdl5QJH+3AmkzzGqHcaUHSNtxWp7cGQYDuUUyqpyF81xA6trRaTJ3xJXkeRJVzuxJeuDgZy9kLaMdkCebVI6EIVrgYuPrcrbajlQvHtXNe22Al6HbjbKVWA+ojrtQ1TQfqgb8dJ2WLlfLNKSBhapGzlwv4Knm03vyFF8LqMH/oZr5rL8OOFtpo0GOFgH5V1QxS/bUAP46jnwuP68jSHXiVYy4712ByxFbC+VmEVDt1qNqWXygAfDacdBdeUmqS2qXqVo8He0KHA+Z+05ONukoTvtRpUxfEQZ81zTeliMb+V2B2iNfnSg82EYH3Nd3PWGQieteFNcTqEaWXOrrDLLo2vd8sSz8AtRehSqE8eYIb5BNj4FnDfzLaEpx+QdVx5Lro/1AVt16H83m3RV3Suc8taHg/DAfkF2ntuvf8m0eEO22obr4flc3d5BlbY2p1wv4ZfiUUitJTSi+P6eRHuTbq8vfT4s5FVuRMglVQ9OrrX0DQO6DP1/3uIBHJxwJzqdVgqIXO7+orANbUBPQae65RCNvFgOxTooKYE69ubxXBTuwIZ2r9l1yNq6AI+ZhlOEWhVf87saa4fU8wQZ1rtTp2w3nX2eauZATSVmDit2S9/bWrp8+q+EBtqxL+cYDp2w8dv9terG0EioT3K8pMFNu8rOLO+eObBfuqQXbWO9TqX7P4ZP+jDp8JTo+MTXXaLZYRHbPh1ApXhlZTIactMSX9y4cXD/3m75tIgJdtWCLa/SeIWG1mncfMe77Hxeu3nvm/MWrt/57FB0bn5yenV9kNJnZnXEmROYoDIvZbCw2FORmpr6Lj41+dOfauaNR6/+YNfmrAV1b1goNcLcHzgMAVlA4IOQdAAAQnwCdASr0AR8CPpFIoEulv6MhorGpa/ASCWNu9ThREJ80b+m8Ux0Z/Q9YbuNPGP6044FYwtV/MvxI/LnyAOQA/in82/FH8ndv32c7LEP0X8Uf5XdQ0efl/7Z+63lJxv5q+8flD/e/3U6zbm37X+uv717wfJ3snz6fJ/1r/vf4L/Lfut89f9f6mv6p/tf+D7gP6m/rd/p/i9/zvUx5g/2r/dP3gf+d+3Xug/x3qB/3f/bf//12vYs/ej2A/5T/xvTl9kn+6f9P94PbJ/+3sAf/j1AP/v1e/UH/A/hV8cbmhfjcL7O/3/L+BkcllVZ+0+gB6R3d01Av5J05fQA/TkUJEmNwa8e1V480Ie1V49qrx7VXj2qvHtVgYwJ4v0tePaq8e1V49qX2ctzK3thP7IvS6lSLXxpsjXYf76Gp2qsre6LnWjJKpNYZSYnZvljd/1MeCtUrZ5I1joK4ZpPq+oZFnEXQ+GrAhDwoBVW1lDPariIuyEaUFB0yIVlO0xzEM6JWnZk9xneRCcp5LNxJPEjlPlkbhp+XqTYCLq11eZybxOSlGJwnaoMtHoda6IDWlVJp9t0TsogAs1S/n6ghZye5037FV2Z/1cMi1pV1VbpymYpF+sp2ZPboG0K5yp4VmpFCwRx8nIH0dsI8A4wP+icktqwYdn1VLIraGASgVY81mrrUBBaWYkSYOf+GoxaKMD4713ADbVnXMilrqOMvdZaSxkf39GvQFrV+owlTO+w3M+q0P+qouDlP5escCZy7L/MaRTPnY/fOx++5S95/ZXpSIXHo7om7awATjInY/fOx++dj961DhbXvrOlIbBr5GqY+vB/987H752P3zsfvu2+RSnZoFKEcZMj2EpnBkw+DJh8GTD/b5B9oZpykbfrnjmhG+Y1jOD8rpLnsrEKGJ987H752P3zsegfJY8Aj3t0Z09GCWxHE5987H752P3zsfqwb/oKttO8oeWzL3MfWSdUK+Y7U1MFV1jZ3DLJX+oe1V49qdIA4ZMzyXoyAYHQiL1MJlWfINhU6XbczgD987Hvp1XTJACpSiPUzfgiuYft2cnQJX2ntMwR7VXj2rPG+zhoXCwr868Sl0AbXFI5B2H5+nyf9n2yywjXj2rPG/pOyj0I12GmvYq3tnlDPdA2xPvn/Ze7OS+158KK/LEaMFHTk9Z2l78J7wiu7hnwZN3jf6wrLa7H722vw5bSJkfAXGbB3GGhvd4m4pnBkxbdtXxlL31UYdDgZAdIdeRG/CVXHr5Gaqdj987db68xuKEFkiXoZZhVIIupKSGngyPsdwwPE7H752630Po8ETeJAx1fUqllPrJ9IWh5jQqTODJh8Y19P+mgYrJIHTiDDgApbnG1Xz5/WHuhfx2SVLx7VXj4P8cCY4NUkzU7SajGL5MfFJeDAoD2tdiSyd4vD2qvHtViu/pSYg6Bw7Bgde+XRO2sVHTQaO1nYSMoAhI1KiBbYZ8GTD4MmLcMsKiIOXHAbC8aT63WVyrKA/T4149qrx7Y8x1I/GiYvkC5EA6ICWSYHhnwZMPgyYc0L3jfsv0xecpQP/sREryxTODJh8GGkprQzSWcH9V+jrIsGjmfBkw+DJh8GvJKJCYXvxaSsuVUusF2Paq8e1V49mij3tcQrbakeXR0b0rTln2zQPVXGJnY/fOx++diW2bp2qzBo1PhhzZCoC0kBYQjXj2qvHla1W2T36AAA/hSgAChvCSJM7ESxh7Ja54hA8eV2h1wur97rFdrEAAAAADs5IBBNtwnjpe5EbDhQM2M8AAAB9m+6EQpWXOOndJPQ2lCG42uMblIeCEw9yaSsXLpu34tIc/vII8ZGBRY88yPyuGdvf4nZyOip9/tnn8k21/MrZO45s6DCq+xEiP0yE+aH/+q5dY8+3lEuLxonfaaGX+hI2TZZvEF+JQAGkCJNtBx+qC8B1oK/jGdR66Uu3LLAVrFvCtjgbmlGQF+Wuse0KfDBHy/zVe9tjRpA5iXIRB2hukVsCQ24m4cqX//gkCwY7a5SpKyyi7LuaQXi+nFBwStV8HTQdHbz0CCD9YV6Oc1tYEs71jYIOkdQP+c9EsKHV9nKE1upL5CBwpJMHQeXk42/V2Azq3+H+jEeFcmFkaJFvqFa1ju0VeTv/wjlWwhCH8lcIfTcZerAtVltKUcRubg6uyNdEcHNtdnggR7IOS51HQj//tpgRCGDu47JvY0Y8097luyc02SIedhQm3QRhqTX5ThvW9/rclPJKmxffiPZPEJmrlROnOKCXJCV/d9oCUxmEQkcvFU/IofUhSSDKlhmkPQHEBZtALscENVRK8kO3fhTBHEcORbRA63QLmwu13mt7VnYWSJOk3lfEZR0UUESp9iTlVqhuihehltGXbm+Tz//5klxFWa0b7Y3xaFyUBzuS8pmpGqX3R4WSHVJ0NFkttbcjYPTrcXz+hJjWpSHKaQYL7z/UDzSDcvuM2Haiv2jzRVS9GiB/1bTzh1SySwt1qLdCRn0v45lE6g4q03Jc85bqy2IWhuD0Hdm6GjvvjjgucMTeQw3d0vpX4Rt5DhOpkshXIxtYUJaRrgdKdSU/AZpaxy2Gn1FVnsHeG0MXu2To5K6JxGLuup7lfjsjyv/XgoIwVuhZ0wexwP/5Q/0TVTQzderxGKyMGdtOlKFmRllLvgUjPndLP7aGvW8j1M9argaYPPvnzl+8efBCYNDh6voz2fJsopZ0Z283qVh+ZLWuf3A3TH3RtZdO58NEYrOrPKSQ4vz/t1irh4LiytvvqZ2cZ2x8JH6z/vzla1L8rzIqNJnKEUR3zG6cC3uCRdbaKiN1qdKXNt1Fr2CPOTGFPEMOb7r98qih9iSJS3pLIHivrjKXAtScDGgCRmNrI4wyfqCgfz1QPujjthloWUXGbCHZ4qAIflVpDvm1GDcbQkaW25PGUTdRNWeaQ/np2YDhvwYv7bheYhKoyMtrf6dpFUTZCxZudKfyIgepDb2LGNMkx+n/onjmJY9xNnJrhM7adlts7Eg8EnlJ/hRiEcz9F40m1UrDxijxj4IAlj0zrC8n5J45ULYpqSuB/szp4qSgkEj5HOKkn6eQd/TWmN7pTM/MXorvltffNK92koEX7iqXauL+Rvu7dC/53dISlcLKcX6Ux5heQkUk6H/f14wlzkbMBRbxPmvUX+BAcj/6uPL6d1G/07VIiE8bWHTD6GAIIfzr+hUEEnaqToi7pgbbrKMhe38hSQJOtOLYD016sRRRto0CK2o1AjdBdX9DPN+Owop8Ybf6VxNCs533N3RpTqU/h+oRyuYWv7ezjDhSFLr3dSlq6Uhnixpp98BAc4V2d9BUPV2OCchsZd3SLMb3eTaE/7FCvF58PbLlVyafNBnXpgMXy9+vIB8B4Pqvfdl7lJpWbeStCkZLzpdKVC8DIHIj4ZgHU5/ilbzaNYtfesFYfE597MSDBQU1M2YB1/BmTo1gjYk9QrsjieKALCk5qJog6y8YczOdgSahAJKaJzLd86WOe8I/Mq/UPjFfwEUQ78tPMq/Kdn+A7p7aWxfYUWEjLaZOnl5lYfR7K7bYbmBRPlH7AEyzMhaAR7qBPoaz0WCCkEh7HyLG/hH1R51G6Nzclerpblx5zd4zGNP/zs6WPwQHCPnJsvLYQS4dx0vfsw0BOwAtQNaihY9YCE+sxW10KYUpIV58YYn0PREo1VemixqOKl5Mz0twZfLGFk9mUiBubtsV1Mopp4Qx1kizcSEwWqueDStnmXMEqgG3kne+3hQqbRV9t1nq/FqcRZ+T5O2TqaKn5wV1LjrartZoeAe52KvlnyOjZhbqtoFm9JTTeMYbV//SQ1PriFDJ/ABWEi3RGGu17LbMO5jGk31Gp06mxOn7Z3ZHyHa/cXU4/AfN4IY4wE3E2dgcL8hPKdCC/XePj6RvyYlGLnXY710rHMFPTNAnzOq5FEnueTMIYOc2tP0lgOosFZzAxW7xwKym4i79I2MKrqAf1VavvnOePHxbUyGV6e+Dhjw4Vd8nkdjtU13w8lvk+K/bDJoy+L2Ms9MpByaeWgYcAVQlfHHzPBMq7hPN1Gvat315ZXqd8YmxiBLYMtvmul1+t+QGs5eLDWUbARz3MHzyyAY/oEuSlb0m+/aLA3TddnuvxXmQuERfmHmzQ4JB6ZqKCl801kkWw/AuHZyMpexTYjI1OlCgCK5Fx8QWt8iD6h0U7EIVVWobAIjPkaCcTgTvskXRNv6cE9VPhbiIqcX26R6LsiQY9nQ/6wYP0ui+1PABUNY40tCJdicLoImeAhMH9tNnF1qrpOlNfSK2j8TPcx5zWTBcx3T4qpMNAg2i1OwOeHPkz72tsrWbbH9BC3pwuoKR5+VBiFDD0Iuc4pS7QN4oDOxGpckizvpbofqep1Wsyept64XbZbYpf12ry05hwAAAAA5ODdS7ROkfDG+Cu1XXDeRF9uCDEeBm38EnF4no+NxunMeUoLPS51xhfXXAn8UCY81SL6uPLwnxL5IC6RfRH7OFT2ZpnsZtR+ob/x9k77f/B4agoj23Jnq9ebIx0v/91SdxFlOqZJ3/WfAGRWD2vz765Fq3arxgEeQY90HLJuuF206tslBFtTmqEpnFniB7o0MAlvjtBtlbdeqBxpbFoQaRt5jv3NX/wRjNncq/tkOkRQAjbnX2TgCfpQ8HIqeDsHylH/WURWV2KQJqtwm66YAAAAMVRNM/cgkzxnCCHKNi6MFzS1q9iifki1vW0S7raPvkqYLd39ig5uOIuLHuy3XFxSBoUGWKAqSZwSRXfXJkJ3bO4SUGnteeVy7ftVZIiKkeJUJJVdIf4Iktm/FvXv7Ma0X6M4Y11AAAAKH5IGzKvFtWHQHFlOKfOWtBlZQ1835GOkC+smkXZUEQj1CknLEpBBO1YvtVKckBYLdWrRpy97CE3YEWP4H9ortWs75cOUb/qq+rfdRwAGcZGQB2aUQPGmrUrcGjhJVUddvWqttxvhMBl8xkjRL8n41ecRFv0zUQ+skm9HMwAAAAwGsoSn7Rf//Ru22m6bwLguJ27h/n4NUdoj8qTf6vyPv942K6RQtgT5oZI1nOYS+TGFlfWufZkm/NaiCxGho4AAIkh8/arG07rRdDWYJyRI1PBGOMgu0ClvQ0WDG3JcpDqALBsi/8jYro7BngWDC0J0oBmbBt8ewk8aAH+g5kvTkgNnWMAAAAAI0u7pOW2o/RWYm8Di/V+OLzUQOXQ8bjgmXzuvScGdAH9lwlwelxK1xQMYizD1iW7HvCKOhHQT0W6fEPbDz5T/Je+q3PkF556WDFre5fE0eGc1CxQT28YtJvoP5qOMyp2A8vUzbG4wfvOaCri4ZiQveFlDXAEHM6/1EBs/pS6vrwwpXsPGkY2VaMZSKYOOyqJzbyYNPlwaw/oS3CD6kFWK+2fPzwGX8lAAxpqTt2cnzJ1+V+gYcAAAAV5iOulU9uCsB/aJbYMYiGPSdsXrM4ADqyFXEak1Corrs/jL5qIL3Yd6esGqmcXnss9k5DmCtz+5yF1G1AcZ8SxvOnuepn3x0bwCEDsS5jay4JhTlfQVkEqsjYHapHHkkmRJalZ1ZOSvbBrAAAABxVA5dBMt2873BlnEqgsysu2waJVy2oU+OM6vj04kBLfA3mJ6Vnm6vkl00ZtxyYSTDZy6Ac9jHF+QmqWDcYVgJ/9rNrUJK3D1hssyuq//93gGr6sQy34zl7gB/Lf2crsFgAg3++2YHdLeM+HzgTyeoPM/StZDH7vaOKtZs5ogrfCgmfcX1Ze1CO37RjPhBMbIYKuRuL8Klks2TlNSNPZf+zX7nN1towKcxZ1Qc1ung9rJbfluYeU8v6DDouADbaIjSHqD7bvKdVJDsCKCi5KYvD2CJxSnmz19G7vNmFJceUlXe9F9+cEToJL9RjiSCYyWy6gauQ4x1ThpRZeRYOS+ta1akjBltHKR3LGYlkrTpSlbildoiayzjxwizVHrOjZIe6s6WFTWoycwVGlrkqbAkJgYZJv17Sj+cy5aOSfw198UmlR+1b1WT+4Hxf1dFmy5Yro+SUaJqpuzzy9byuUbJwkTsq/2yo1y4WvNEgvqCf2Qgfc8sUWa9IUk5sGIcnPNBT3UR4SvkRvivrHGs7YxlrInRp3y9g/l0AWSYjEFUojsThjskQby6YwXLlhoUQbbv6f2HJ7oXU8Sc6kdPNSKHSr5qB3/Sjy50aVXO4AH4WqiVZ5tumx2RHcfd0SvSAoG3iEYGeN9Qj03HUACn8T+WiZ3kYyPU6iKzT+wyNUoTk8ZdsEvvytY19r0QKQpYGeRbSdjKRR5HgHLVlSrRZi+dTaLMxR4lb0xpMHVagG5zsLCrndc4Y76JIFQss0tjbiiaj8vnaYeRetwNnuRxnfGBQKgr85+uk5/lB0sBA9cmSm+4nHDj40KJxEH53f2u0CHmamgD12PwdDHu2ibrVbTUvf0b05iobeDUOrLKQmkh8t+yhV5rJfwEzDTQV4QRrsEf+Tm41Y4QHxJMwt2salrABOFmTzEx+9R/UHvw5ytJtXnauxblNCnfq8gR7OjztLcSXSqXnNm19oUdXxtma9+rfqaiwqgDnmT8oGoXhOJDseR/7OE2V4aDsYE5XfrrmCQMhB/6f6PUV9PTAaemMKC12Cqt9usm2ep9wF1JuWSAGzqgmzQQrZgZq83ozi93EGADo1C6ZBOugfx2XqSKtcGTMDrZWj2yQtlbadwuehgoKVVi1aDjCwyBzT83IyupRQUuGn+45vc3726X/Ns1+EObCgFEXi6CXMRDAAc2VegOU6jiMZTLAh2whg39pwIc+zbgJczDADi181zyFWr+pqS1r1Wc2phOE/EAAB6Gs/FojuQaZSkTEXgN+jUOC4NR/gsPoZJm/VFO8w5HSzdHdceh1h+xKAwnzX+CYy4r13f1QPmXSb5kxLMh5h68+TQPAmQZuHEFxb2rbQaFh7pt1KpJLMQFkAF0KvPXbGXPeLv3/Lid42d60xceI0tdn+H8HqWK4mACaPt3DtgIjPlJgAB/f78NA1wTlMOAEIbrzuyPcSfh8a4xSEARqyvnVcM8vhec82VjR9XzqBYIhRVoHDEvYl4bzHOzvY+62oYwBtC2WwQwB/yp+yhs+wh77Y+UyJzlHrbIgwnVDvt6v3YY/Xwusa1emlfv5bIE5r+20/FKXQADaOKwnEx7yJ2GclHJ95KPRf/sL5R+YKR2lDJ2sIhlGZirC8K3Bg5um/ASiACBFRYA2KyXICf42w81dyUPPJkb515ehxRhvB7Muh1cH343HLcEi65dLljPMbWUKFy8ZTAsVYXe7Vy4TNKsQaMz7bBZNFZZioWc2FI0n/9vK5oiOQtynY/cTiLESRwf3SeHNtW6aMrtvIWzE9ZjkKu5ddB3jYadqjCOlmT7BBn1cvbr6A3mcS3yh/6bIKMBABgAFBVx63IMZ/ZGYSNFQNBcbaXcIB9faJrwFwHK7tOPol97xE/k9BFGDAW32Su4lTCT2oQE1bVe2m8prK2kSsSZW1m3zNzbtugjLhMinZG+Z9TE/y0XbsJUtIdJEqjLx0G6lZo9FX9v+IQVVimiOIjNvuEnpdRJOxTkVQhZSaPgG6q7K0atg05+tyM+TqXwlNNCkC8IfWNpYqry8PXUhb8+aV8FsiES+PA4o2EBl8/h/nLc9x1vaQPYTXDhStdLvGRo+k1bp0QkVxRtte6e5gjNKg7gAGfXZwgo3Q1nzox3XYkrKkLrG35wiOvbpephV5sb6H5qDItSmq0BUrt0RUdg7QFQRlHNJ3ENI5lR3YAiL1joUJkYdZQLxJNSy89bLv5FQR7V8yGB3+LXg1YNdoWXNB3nEv3h+7koO2w2IcFLL/MP/G9Rt5hPpLe8oS81IAmdRyR6cl8+WVgUDLTvPQIiwcs9LxaJ+7UW1NrmXEq9PWj4ILgiBWoNw/0IBoXmr+uEMXpbLZCmccQD9TObdo6sb764AAPZ3HizxrI7leufw1wxGpNQ2aCe5xGRaPkXeBBeEI7mCrFwIYTUihqsPa5lQMU9BWcynk5smCSRXGyJcYds5ChmKUzebnzEeB5ubFNsvUMVmhpPJ88W5cbmJywDds+/ZKBTLYyVG9zdNxkeb6oHm383RIU84SdVv9xkF1o+RgAdLEwlGEp/y71o9QY5GC/jFDR8ZHhyTzGYcygkxFGEhCzzZYdNq0upWjhgAhP0AWTpQgh0E6OlEIe82p8W5yFdzBKM0q/yhY9AAAHRhJEbPlTadunXKBo7pXygiAVl0UXQdYxZ5gdy1LmEv/m6r+O/nf3xfufriioH1lmaw4vKpLrQw3eMqEk3z4TfZyEBothgS59EvuX0VEsvRXs/msEZhQxo6su3j/uMxznSvXF/d12aMKBb64XIEZmLC//SdXJ8x63jdgA/nV2L1H1FJRoqsivvdkryIdTmYaBqzeAuHzZe9lnbvVT9TH7lq82IZabaDbFAHeC2meHPYnQzgQU6MR1Ajhflk4leADIlXrgrMFRLJhN5O9fDcEZjMJT8top4t0utBYefHjRSrGfkA575EGCKB20nyRN8D+MA1psCmTRx/8QxSURAhYVXC6gybbrMQErj7gr4WJwuv531l4L/9sKSk9Kbt54FND+7tzNIqiEqkklcvki7flywzsMHse2UXqelFpDGXSlEp/ID6ZSHA11QLUGJ2q0L4j/A3XgxqyWCkc4oWRpwt9kuzjEPELhUefaO1S3Hg8xnv9coLn+0KQLNBzs4mpfPrUu8UZd1wPgKHoY+p/KKTPgGv39IGgb/AAkU7ukoETzlPtVJWGGB9hUmf4H7SdJMhHSXHXgkTFaVYLWbVyh/epTvuykElognTG5yF4S6/5A2RdWK2uOzOunY8rxE/3Bhi3wn0TXGmutFILuUUU+JJw82XdNnB231OvHmmZ7TOsYBiPB8EnsYZH28YOiSswwhXGvbreQGNH4mHj1ruVnAx2el92AyBcOX+dOeHFR2kftvoKKtU9oYM20/5lJGxGsD4fADOKKE4illugoueLUFM1nlOFRk45q9ko/5oAABXJ1I69XcnBXutTwLDUhmHA0d7txKH/cB5oQ4jl5JwCncxrfvNA9NbkFtUtWRRpxLg7TkozS568XBseB76P/xNS/ViqT70wTzqH+zvVcw4g1ltgqC1aAsciqdRfH1bzlzfHh12Ptc+FSVqLCm3GFRcgAKMxzJJTklV/UYPiXjW499Dpjb+WCPOewUMAAMCT1Zg68KoEJih3pzi2X1ENu1n6nqOiAT/mdGVULXAjPZbRoub674VaZ/FqPGDpp8Q3rMsieThzc3VNIcr6XtJfeWiyTZjGVip9PwxdkL07IiLDJ2mUdUq9lp3sFcB8+arrvuf+49ZhrRSyfs7qy52CpgMaAAAmEcbjjOkqJUCtUD/9r67Ag0h5bchoAz2ftQ62eobU/ADMlCp3HjJqi9c84lpcJ5DhcdLhPIcLhXcwJph2PSKzdUTVwcF0qUfaMjROJ/ZE7JBXGYbRdedrU9IdLAUR7jVIbaAUUvi3yPsXgABNK95BOxJXk1ZVXHzRkL/cO5NV0hSTbTCIkpFfZnUzXQIqaDTyHsrbmZO8AOlr+vq7T0iuvsvgIJP3NU2vW0lMOB5e164FauvQQ0qZLu7iM4iHq91dGVq+DKcZOdLP8KL7K74AOCuAAAB5HsQtZIw8yV+SMwQxx6MR38UTJv4/iRxAeX+iHyztbYj5J4VInFICtNVynnH9htpFsPWVI6vAT5q4P0Yrmui+DG3KYcVSsHaD3GpJDil1gWj6cVqC6dhHwEnECp8XK72OBTY1shb+SdLDNZ63/9JrgAAHqzPDPOe0TgVPuTBXge1Zp0s1mwYHLJj4vIi6HhCEu6cQjvvXEqJ1VZqmCWhg7ebnS2b4HEjiitZRo1cOlMcmjlMfo10tIQZzWrBLxJw0yZE73eY5qhlVDX7tdTs4Prgqd1Wc5CydaBvf1EH2KAIOTTrQAAFWEjf3UXYbULzJUk39HWmIgriXhd9bStLp71MVXiQ36gMouzaXIAAtVxFABH8tMVMUISRmjOxXaCw5NqpfA4c6VwKLDPRYmB44xjhuYy+HhlgZFMq0bJI9vkTaBCYmm3J/dSseaAs7V3FQYoQuAUz3WumULVlF/hQGvfGacpuQvB7TEu1+3JEeC0g7HSSUEUErhM9BF9gMMAAACfp882woVyg9kmVngLY/A7OgOH+k9AqL2D9oDb54kuwdAAAA==;" vertex="1" parent="1">
          <mxGeometry x="1020" y="190" width="27.62" height="30" as="geometry" />
        </mxCell>
        <mxCell id="PNhUklN0JLp1l5unrN9_-26" value="Sub" style="text;html=1;align=center;verticalAlign=middle;whiteSpace=wrap;rounded=0;fontSize=9;" vertex="1" parent="1">
          <mxGeometry x="1087.81" y="210" width="60" height="30" as="geometry" />
        </mxCell>
        <mxCell id="PNhUklN0JLp1l5unrN9_-27" value="Pub" style="text;html=1;align=center;verticalAlign=middle;whiteSpace=wrap;rounded=0;fontSize=9;" vertex="1" parent="1">
          <mxGeometry x="1003.81" y="210" width="60" height="30" as="geometry" />
        </mxCell>
      </root>
    </mxGraphModel>
  </diagram>
</mxfile>
